%TF.GenerationSoftware,KiCad,Pcbnew,(5.1.9-0-10_14)*%
%TF.CreationDate,2021-11-15T11:24:55-08:00*%
%TF.ProjectId,trustno1-board,74727573-746e-46f3-912d-626f6172642e,rev?*%
%TF.SameCoordinates,Original*%
%TF.FileFunction,Copper,L1,Top*%
%TF.FilePolarity,Positive*%
%FSLAX46Y46*%
G04 Gerber Fmt 4.6, Leading zero omitted, Abs format (unit mm)*
G04 Created by KiCad (PCBNEW (5.1.9-0-10_14)) date 2021-11-15 11:24:55*
%MOMM*%
%LPD*%
G01*
G04 APERTURE LIST*
%TA.AperFunction,ComponentPad*%
%ADD10R,1.700000X1.700000*%
%TD*%
%TA.AperFunction,ComponentPad*%
%ADD11O,1.700000X1.700000*%
%TD*%
%TA.AperFunction,SMDPad,CuDef*%
%ADD12R,1.400000X2.750000*%
%TD*%
%TA.AperFunction,SMDPad,CuDef*%
%ADD13R,1.000000X3.150000*%
%TD*%
%TA.AperFunction,SMDPad,CuDef*%
%ADD14R,2.000000X3.800000*%
%TD*%
%TA.AperFunction,SMDPad,CuDef*%
%ADD15R,2.000000X1.500000*%
%TD*%
%TA.AperFunction,ViaPad*%
%ADD16C,1.200000*%
%TD*%
%TA.AperFunction,Conductor*%
%ADD17C,0.400000*%
%TD*%
G04 APERTURE END LIST*
%TO.P,D1,2*%
%TO.N,Net-(D1-Pad2)*%
%TA.AperFunction,SMDPad,CuDef*%
G36*
G01*
X177225000Y-47625000D02*
X177225000Y-48875000D01*
G75*
G02*
X176975000Y-49125000I-250000J0D01*
G01*
X176225000Y-49125000D01*
G75*
G02*
X175975000Y-48875000I0J250000D01*
G01*
X175975000Y-47625000D01*
G75*
G02*
X176225000Y-47375000I250000J0D01*
G01*
X176975000Y-47375000D01*
G75*
G02*
X177225000Y-47625000I0J-250000D01*
G01*
G37*
%TD.AperFunction*%
%TO.P,D1,1*%
%TO.N,Net-(D1-Pad1)*%
%TA.AperFunction,SMDPad,CuDef*%
G36*
G01*
X180025000Y-47625000D02*
X180025000Y-48875000D01*
G75*
G02*
X179775000Y-49125000I-250000J0D01*
G01*
X179025000Y-49125000D01*
G75*
G02*
X178775000Y-48875000I0J250000D01*
G01*
X178775000Y-47625000D01*
G75*
G02*
X179025000Y-47375000I250000J0D01*
G01*
X179775000Y-47375000D01*
G75*
G02*
X180025000Y-47625000I0J-250000D01*
G01*
G37*
%TD.AperFunction*%
%TD*%
%TO.P,D2,1*%
%TO.N,Net-(D2-Pad1)*%
%TA.AperFunction,SMDPad,CuDef*%
G36*
G01*
X180125000Y-66075000D02*
X180125000Y-67325000D01*
G75*
G02*
X179875000Y-67575000I-250000J0D01*
G01*
X179125000Y-67575000D01*
G75*
G02*
X178875000Y-67325000I0J250000D01*
G01*
X178875000Y-66075000D01*
G75*
G02*
X179125000Y-65825000I250000J0D01*
G01*
X179875000Y-65825000D01*
G75*
G02*
X180125000Y-66075000I0J-250000D01*
G01*
G37*
%TD.AperFunction*%
%TO.P,D2,2*%
%TO.N,Net-(D2-Pad2)*%
%TA.AperFunction,SMDPad,CuDef*%
G36*
G01*
X177325000Y-66075000D02*
X177325000Y-67325000D01*
G75*
G02*
X177075000Y-67575000I-250000J0D01*
G01*
X176325000Y-67575000D01*
G75*
G02*
X176075000Y-67325000I0J250000D01*
G01*
X176075000Y-66075000D01*
G75*
G02*
X176325000Y-65825000I250000J0D01*
G01*
X177075000Y-65825000D01*
G75*
G02*
X177325000Y-66075000I0J-250000D01*
G01*
G37*
%TD.AperFunction*%
%TD*%
D10*
%TO.P,J1,1*%
%TO.N,+9V*%
X111800000Y-56000000D03*
D11*
%TO.P,J1,2*%
%TO.N,GND*%
X111800000Y-53460000D03*
%TD*%
%TO.P,R2,1*%
%TO.N,GND*%
%TA.AperFunction,SMDPad,CuDef*%
G36*
G01*
X187850000Y-47674999D02*
X187850000Y-48925001D01*
G75*
G02*
X187600001Y-49175000I-249999J0D01*
G01*
X186799999Y-49175000D01*
G75*
G02*
X186550000Y-48925001I0J249999D01*
G01*
X186550000Y-47674999D01*
G75*
G02*
X186799999Y-47425000I249999J0D01*
G01*
X187600001Y-47425000D01*
G75*
G02*
X187850000Y-47674999I0J-249999D01*
G01*
G37*
%TD.AperFunction*%
%TO.P,R2,2*%
%TO.N,Net-(D1-Pad1)*%
%TA.AperFunction,SMDPad,CuDef*%
G36*
G01*
X184750000Y-47674999D02*
X184750000Y-48925001D01*
G75*
G02*
X184500001Y-49175000I-249999J0D01*
G01*
X183699999Y-49175000D01*
G75*
G02*
X183450000Y-48925001I0J249999D01*
G01*
X183450000Y-47674999D01*
G75*
G02*
X183699999Y-47425000I249999J0D01*
G01*
X184500001Y-47425000D01*
G75*
G02*
X184750000Y-47674999I0J-249999D01*
G01*
G37*
%TD.AperFunction*%
%TD*%
%TO.P,R3,2*%
%TO.N,Net-(D2-Pad1)*%
%TA.AperFunction,SMDPad,CuDef*%
G36*
G01*
X184650000Y-66074999D02*
X184650000Y-67325001D01*
G75*
G02*
X184400001Y-67575000I-249999J0D01*
G01*
X183599999Y-67575000D01*
G75*
G02*
X183350000Y-67325001I0J249999D01*
G01*
X183350000Y-66074999D01*
G75*
G02*
X183599999Y-65825000I249999J0D01*
G01*
X184400001Y-65825000D01*
G75*
G02*
X184650000Y-66074999I0J-249999D01*
G01*
G37*
%TD.AperFunction*%
%TO.P,R3,1*%
%TO.N,GND*%
%TA.AperFunction,SMDPad,CuDef*%
G36*
G01*
X187750000Y-66074999D02*
X187750000Y-67325001D01*
G75*
G02*
X187500001Y-67575000I-249999J0D01*
G01*
X186699999Y-67575000D01*
G75*
G02*
X186450000Y-67325001I0J249999D01*
G01*
X186450000Y-66074999D01*
G75*
G02*
X186699999Y-65825000I249999J0D01*
G01*
X187500001Y-65825000D01*
G75*
G02*
X187750000Y-66074999I0J-249999D01*
G01*
G37*
%TD.AperFunction*%
%TD*%
%TO.P,R4,2*%
%TO.N,Net-(R4-Pad2)*%
%TA.AperFunction,SMDPad,CuDef*%
G36*
G01*
X148525001Y-59700000D02*
X147274999Y-59700000D01*
G75*
G02*
X147025000Y-59450001I0J249999D01*
G01*
X147025000Y-58649999D01*
G75*
G02*
X147274999Y-58400000I249999J0D01*
G01*
X148525001Y-58400000D01*
G75*
G02*
X148775000Y-58649999I0J-249999D01*
G01*
X148775000Y-59450001D01*
G75*
G02*
X148525001Y-59700000I-249999J0D01*
G01*
G37*
%TD.AperFunction*%
%TO.P,R4,1*%
%TO.N,GND*%
%TA.AperFunction,SMDPad,CuDef*%
G36*
G01*
X148525001Y-62800000D02*
X147274999Y-62800000D01*
G75*
G02*
X147025000Y-62550001I0J249999D01*
G01*
X147025000Y-61749999D01*
G75*
G02*
X147274999Y-61500000I249999J0D01*
G01*
X148525001Y-61500000D01*
G75*
G02*
X148775000Y-61749999I0J-249999D01*
G01*
X148775000Y-62550001D01*
G75*
G02*
X148525001Y-62800000I-249999J0D01*
G01*
G37*
%TD.AperFunction*%
%TD*%
D12*
%TO.P,SW1,1*%
%TO.N,Net-(SW1-Pad1)*%
X144000000Y-57325000D03*
%TO.P,SW1,5*%
%TO.N,N/C*%
X142000000Y-57325000D03*
%TO.P,SW1,3*%
%TO.N,Net-(R4-Pad2)*%
X140000000Y-57325000D03*
%TO.P,SW1,2*%
%TO.N,VCC*%
X144000000Y-64075000D03*
%TO.P,SW1,4*%
%TO.N,Net-(SW1-Pad4)*%
X140000000Y-64075000D03*
%TD*%
%TO.P,U2,1*%
%TO.N,VCC*%
%TA.AperFunction,SMDPad,CuDef*%
G36*
G01*
X128950000Y-29840000D02*
X128950000Y-29540000D01*
G75*
G02*
X129100000Y-29390000I150000J0D01*
G01*
X130750000Y-29390000D01*
G75*
G02*
X130900000Y-29540000I0J-150000D01*
G01*
X130900000Y-29840000D01*
G75*
G02*
X130750000Y-29990000I-150000J0D01*
G01*
X129100000Y-29990000D01*
G75*
G02*
X128950000Y-29840000I0J150000D01*
G01*
G37*
%TD.AperFunction*%
%TO.P,U2,2*%
%TO.N,Net-(U2-Pad2)*%
%TA.AperFunction,SMDPad,CuDef*%
G36*
G01*
X128950000Y-31110000D02*
X128950000Y-30810000D01*
G75*
G02*
X129100000Y-30660000I150000J0D01*
G01*
X130750000Y-30660000D01*
G75*
G02*
X130900000Y-30810000I0J-150000D01*
G01*
X130900000Y-31110000D01*
G75*
G02*
X130750000Y-31260000I-150000J0D01*
G01*
X129100000Y-31260000D01*
G75*
G02*
X128950000Y-31110000I0J150000D01*
G01*
G37*
%TD.AperFunction*%
%TO.P,U2,3*%
%TO.N,Net-(U2-Pad3)*%
%TA.AperFunction,SMDPad,CuDef*%
G36*
G01*
X128950000Y-32380000D02*
X128950000Y-32080000D01*
G75*
G02*
X129100000Y-31930000I150000J0D01*
G01*
X130750000Y-31930000D01*
G75*
G02*
X130900000Y-32080000I0J-150000D01*
G01*
X130900000Y-32380000D01*
G75*
G02*
X130750000Y-32530000I-150000J0D01*
G01*
X129100000Y-32530000D01*
G75*
G02*
X128950000Y-32380000I0J150000D01*
G01*
G37*
%TD.AperFunction*%
%TO.P,U2,4*%
%TO.N,/RESET*%
%TA.AperFunction,SMDPad,CuDef*%
G36*
G01*
X128950000Y-33650000D02*
X128950000Y-33350000D01*
G75*
G02*
X129100000Y-33200000I150000J0D01*
G01*
X130750000Y-33200000D01*
G75*
G02*
X130900000Y-33350000I0J-150000D01*
G01*
X130900000Y-33650000D01*
G75*
G02*
X130750000Y-33800000I-150000J0D01*
G01*
X129100000Y-33800000D01*
G75*
G02*
X128950000Y-33650000I0J150000D01*
G01*
G37*
%TD.AperFunction*%
%TO.P,U2,5*%
%TO.N,Net-(U2-Pad5)*%
%TA.AperFunction,SMDPad,CuDef*%
G36*
G01*
X128950000Y-34920000D02*
X128950000Y-34620000D01*
G75*
G02*
X129100000Y-34470000I150000J0D01*
G01*
X130750000Y-34470000D01*
G75*
G02*
X130900000Y-34620000I0J-150000D01*
G01*
X130900000Y-34920000D01*
G75*
G02*
X130750000Y-35070000I-150000J0D01*
G01*
X129100000Y-35070000D01*
G75*
G02*
X128950000Y-34920000I0J150000D01*
G01*
G37*
%TD.AperFunction*%
%TO.P,U2,6*%
%TO.N,Net-(U2-Pad6)*%
%TA.AperFunction,SMDPad,CuDef*%
G36*
G01*
X128950000Y-36190000D02*
X128950000Y-35890000D01*
G75*
G02*
X129100000Y-35740000I150000J0D01*
G01*
X130750000Y-35740000D01*
G75*
G02*
X130900000Y-35890000I0J-150000D01*
G01*
X130900000Y-36190000D01*
G75*
G02*
X130750000Y-36340000I-150000J0D01*
G01*
X129100000Y-36340000D01*
G75*
G02*
X128950000Y-36190000I0J150000D01*
G01*
G37*
%TD.AperFunction*%
%TO.P,U2,7*%
%TO.N,/MOSI*%
%TA.AperFunction,SMDPad,CuDef*%
G36*
G01*
X128950000Y-37460000D02*
X128950000Y-37160000D01*
G75*
G02*
X129100000Y-37010000I150000J0D01*
G01*
X130750000Y-37010000D01*
G75*
G02*
X130900000Y-37160000I0J-150000D01*
G01*
X130900000Y-37460000D01*
G75*
G02*
X130750000Y-37610000I-150000J0D01*
G01*
X129100000Y-37610000D01*
G75*
G02*
X128950000Y-37460000I0J150000D01*
G01*
G37*
%TD.AperFunction*%
%TO.P,U2,8*%
%TO.N,/MISO*%
%TA.AperFunction,SMDPad,CuDef*%
G36*
G01*
X133900000Y-37460000D02*
X133900000Y-37160000D01*
G75*
G02*
X134050000Y-37010000I150000J0D01*
G01*
X135700000Y-37010000D01*
G75*
G02*
X135850000Y-37160000I0J-150000D01*
G01*
X135850000Y-37460000D01*
G75*
G02*
X135700000Y-37610000I-150000J0D01*
G01*
X134050000Y-37610000D01*
G75*
G02*
X133900000Y-37460000I0J150000D01*
G01*
G37*
%TD.AperFunction*%
%TO.P,U2,9*%
%TO.N,/SCK*%
%TA.AperFunction,SMDPad,CuDef*%
G36*
G01*
X133900000Y-36190000D02*
X133900000Y-35890000D01*
G75*
G02*
X134050000Y-35740000I150000J0D01*
G01*
X135700000Y-35740000D01*
G75*
G02*
X135850000Y-35890000I0J-150000D01*
G01*
X135850000Y-36190000D01*
G75*
G02*
X135700000Y-36340000I-150000J0D01*
G01*
X134050000Y-36340000D01*
G75*
G02*
X133900000Y-36190000I0J150000D01*
G01*
G37*
%TD.AperFunction*%
%TO.P,U2,10*%
%TO.N,Net-(R4-Pad2)*%
%TA.AperFunction,SMDPad,CuDef*%
G36*
G01*
X133900000Y-34920000D02*
X133900000Y-34620000D01*
G75*
G02*
X134050000Y-34470000I150000J0D01*
G01*
X135700000Y-34470000D01*
G75*
G02*
X135850000Y-34620000I0J-150000D01*
G01*
X135850000Y-34920000D01*
G75*
G02*
X135700000Y-35070000I-150000J0D01*
G01*
X134050000Y-35070000D01*
G75*
G02*
X133900000Y-34920000I0J150000D01*
G01*
G37*
%TD.AperFunction*%
%TO.P,U2,11*%
%TO.N,Net-(D2-Pad2)*%
%TA.AperFunction,SMDPad,CuDef*%
G36*
G01*
X133900000Y-33650000D02*
X133900000Y-33350000D01*
G75*
G02*
X134050000Y-33200000I150000J0D01*
G01*
X135700000Y-33200000D01*
G75*
G02*
X135850000Y-33350000I0J-150000D01*
G01*
X135850000Y-33650000D01*
G75*
G02*
X135700000Y-33800000I-150000J0D01*
G01*
X134050000Y-33800000D01*
G75*
G02*
X133900000Y-33650000I0J150000D01*
G01*
G37*
%TD.AperFunction*%
%TO.P,U2,12*%
%TO.N,Net-(D1-Pad2)*%
%TA.AperFunction,SMDPad,CuDef*%
G36*
G01*
X133900000Y-32380000D02*
X133900000Y-32080000D01*
G75*
G02*
X134050000Y-31930000I150000J0D01*
G01*
X135700000Y-31930000D01*
G75*
G02*
X135850000Y-32080000I0J-150000D01*
G01*
X135850000Y-32380000D01*
G75*
G02*
X135700000Y-32530000I-150000J0D01*
G01*
X134050000Y-32530000D01*
G75*
G02*
X133900000Y-32380000I0J150000D01*
G01*
G37*
%TD.AperFunction*%
%TO.P,U2,13*%
%TO.N,Net-(U2-Pad13)*%
%TA.AperFunction,SMDPad,CuDef*%
G36*
G01*
X133900000Y-31110000D02*
X133900000Y-30810000D01*
G75*
G02*
X134050000Y-30660000I150000J0D01*
G01*
X135700000Y-30660000D01*
G75*
G02*
X135850000Y-30810000I0J-150000D01*
G01*
X135850000Y-31110000D01*
G75*
G02*
X135700000Y-31260000I-150000J0D01*
G01*
X134050000Y-31260000D01*
G75*
G02*
X133900000Y-31110000I0J150000D01*
G01*
G37*
%TD.AperFunction*%
%TO.P,U2,14*%
%TO.N,GND*%
%TA.AperFunction,SMDPad,CuDef*%
G36*
G01*
X133900000Y-29840000D02*
X133900000Y-29540000D01*
G75*
G02*
X134050000Y-29390000I150000J0D01*
G01*
X135700000Y-29390000D01*
G75*
G02*
X135850000Y-29540000I0J-150000D01*
G01*
X135850000Y-29840000D01*
G75*
G02*
X135700000Y-29990000I-150000J0D01*
G01*
X134050000Y-29990000D01*
G75*
G02*
X133900000Y-29840000I0J150000D01*
G01*
G37*
%TD.AperFunction*%
%TD*%
D13*
%TO.P,J2,1*%
%TO.N,/MISO*%
X136440000Y-84975000D03*
%TO.P,J2,2*%
%TO.N,VCC*%
X136440000Y-90025000D03*
%TO.P,J2,3*%
%TO.N,/SCK*%
X133900000Y-84975000D03*
%TO.P,J2,4*%
%TO.N,/MOSI*%
X133900000Y-90025000D03*
%TO.P,J2,5*%
%TO.N,/RESET*%
X131360000Y-84975000D03*
%TO.P,J2,6*%
%TO.N,GND*%
X131360000Y-90025000D03*
%TD*%
%TO.P,C1,1*%
%TO.N,VCC*%
%TA.AperFunction,SMDPad,CuDef*%
G36*
G01*
X120650001Y-65225000D02*
X119349999Y-65225000D01*
G75*
G02*
X119100000Y-64975001I0J249999D01*
G01*
X119100000Y-64149999D01*
G75*
G02*
X119349999Y-63900000I249999J0D01*
G01*
X120650001Y-63900000D01*
G75*
G02*
X120900000Y-64149999I0J-249999D01*
G01*
X120900000Y-64975001D01*
G75*
G02*
X120650001Y-65225000I-249999J0D01*
G01*
G37*
%TD.AperFunction*%
%TO.P,C1,2*%
%TO.N,GND*%
%TA.AperFunction,SMDPad,CuDef*%
G36*
G01*
X120650001Y-62100000D02*
X119349999Y-62100000D01*
G75*
G02*
X119100000Y-61850001I0J249999D01*
G01*
X119100000Y-61024999D01*
G75*
G02*
X119349999Y-60775000I249999J0D01*
G01*
X120650001Y-60775000D01*
G75*
G02*
X120900000Y-61024999I0J-249999D01*
G01*
X120900000Y-61850001D01*
G75*
G02*
X120650001Y-62100000I-249999J0D01*
G01*
G37*
%TD.AperFunction*%
%TD*%
%TO.P,R1,1*%
%TO.N,VCC*%
%TA.AperFunction,SMDPad,CuDef*%
G36*
G01*
X119375000Y-67200000D02*
X120625000Y-67200000D01*
G75*
G02*
X120875000Y-67450000I0J-250000D01*
G01*
X120875000Y-68250000D01*
G75*
G02*
X120625000Y-68500000I-250000J0D01*
G01*
X119375000Y-68500000D01*
G75*
G02*
X119125000Y-68250000I0J250000D01*
G01*
X119125000Y-67450000D01*
G75*
G02*
X119375000Y-67200000I250000J0D01*
G01*
G37*
%TD.AperFunction*%
%TO.P,R1,2*%
%TO.N,/RESET*%
%TA.AperFunction,SMDPad,CuDef*%
G36*
G01*
X119375000Y-70300000D02*
X120625000Y-70300000D01*
G75*
G02*
X120875000Y-70550000I0J-250000D01*
G01*
X120875000Y-71350000D01*
G75*
G02*
X120625000Y-71600000I-250000J0D01*
G01*
X119375000Y-71600000D01*
G75*
G02*
X119125000Y-71350000I0J250000D01*
G01*
X119125000Y-70550000D01*
G75*
G02*
X119375000Y-70300000I250000J0D01*
G01*
G37*
%TD.AperFunction*%
%TD*%
D14*
%TO.P,U1,2*%
%TO.N,VCC*%
X122650000Y-55200000D03*
D15*
X116350000Y-55200000D03*
%TO.P,U1,3*%
%TO.N,+9V*%
X116350000Y-57500000D03*
%TO.P,U1,1*%
%TO.N,GND*%
X116350000Y-52900000D03*
%TD*%
D16*
%TO.N,*%
X106100000Y-58000000D03*
%TD*%
D17*
%TO.N,VCC*%
X136440000Y-90025000D02*
X139500000Y-86965000D01*
X142024999Y-62099999D02*
X144000000Y-64075000D01*
X137700000Y-63219998D02*
X138819999Y-62099999D01*
X138819999Y-62099999D02*
X142024999Y-62099999D01*
X137700000Y-65665000D02*
X137700000Y-63219998D01*
X139500000Y-67465000D02*
X137700000Y-65665000D01*
X139500000Y-86965000D02*
X139500000Y-67465000D01*
X130900000Y-29690000D02*
X129925000Y-29690000D01*
X131300000Y-54100000D02*
X132400000Y-53000000D01*
X131300000Y-70690000D02*
X131300000Y-54100000D01*
X136440000Y-88140000D02*
X135700000Y-87400000D01*
X132400000Y-53000000D02*
X132400000Y-31190000D01*
X133100000Y-72490000D02*
X131300000Y-70690000D01*
X132400000Y-31190000D02*
X130900000Y-29690000D01*
X132799999Y-87030001D02*
X132799999Y-82919999D01*
X135700000Y-87400000D02*
X133169998Y-87400000D01*
X133169998Y-87400000D02*
X132799999Y-87030001D01*
X133100000Y-82619998D02*
X133100000Y-72490000D01*
X132799999Y-82919999D02*
X133100000Y-82619998D01*
X136440000Y-90025000D02*
X136440000Y-88140000D01*
X129159324Y-29690000D02*
X129925000Y-29690000D01*
X120000000Y-64562500D02*
X120000000Y-67850000D01*
X122650000Y-61912500D02*
X122650000Y-55200000D01*
X120000000Y-64562500D02*
X122650000Y-61912500D01*
X123591256Y-54258744D02*
X122650000Y-55200000D01*
X128950000Y-29690000D02*
X123591256Y-35048744D01*
X123591256Y-35048744D02*
X123591256Y-54258744D01*
X129925000Y-29690000D02*
X128950000Y-29690000D01*
X116350000Y-55200000D02*
X122650000Y-55200000D01*
%TO.N,GND*%
X187200000Y-48300000D02*
X187200000Y-51900000D01*
X187200000Y-66600000D02*
X187100000Y-66700000D01*
X187200000Y-48300000D02*
X187200000Y-66600000D01*
X187100000Y-66700000D02*
X187100000Y-71200000D01*
X156950000Y-71200000D02*
X147900000Y-62150000D01*
X187100000Y-71200000D02*
X156950000Y-71200000D01*
X131360000Y-92000000D02*
X131360000Y-90025000D01*
X134160000Y-94800000D02*
X131360000Y-92000000D01*
X137500000Y-94800000D02*
X134160000Y-94800000D01*
X139200000Y-93100000D02*
X137500000Y-94800000D01*
X144830002Y-82766382D02*
X139200000Y-88396384D01*
X147900000Y-63330002D02*
X144830002Y-66400000D01*
X139200000Y-88396384D02*
X139200000Y-93100000D01*
X144830002Y-66400000D02*
X144830002Y-82766382D01*
X147900000Y-62150000D02*
X147900000Y-63330002D01*
X175872912Y-46774990D02*
X185674990Y-46774990D01*
X135850000Y-29690000D02*
X145000000Y-38840000D01*
X134875000Y-29690000D02*
X135850000Y-29690000D01*
X145000000Y-45419605D02*
X147880395Y-48300000D01*
X145000000Y-38840000D02*
X145000000Y-45419605D01*
X149405405Y-46774990D02*
X185674990Y-46774990D01*
X185674990Y-46774990D02*
X187200000Y-48300000D01*
X147880395Y-48300000D02*
X149405405Y-46774990D01*
X115790000Y-53460000D02*
X116350000Y-52900000D01*
X111800000Y-53460000D02*
X115790000Y-53460000D01*
X123994705Y-77171803D02*
X117950001Y-71127099D01*
X116880002Y-52900000D02*
X116350000Y-52900000D01*
X123994705Y-83559705D02*
X123994705Y-77171803D01*
X130460000Y-90025000D02*
X123994705Y-83559705D01*
X131360000Y-90025000D02*
X130460000Y-90025000D01*
X117962502Y-61437500D02*
X117950001Y-61450001D01*
X120000000Y-61437500D02*
X117962502Y-61437500D01*
X117950001Y-71127099D02*
X117950001Y-61450001D01*
X114457498Y-61437500D02*
X110349999Y-57330001D01*
X110349999Y-57330001D02*
X110349999Y-50450001D01*
X117962502Y-61437500D02*
X114457498Y-61437500D01*
X110349999Y-50450001D02*
X111100000Y-49700000D01*
X113150000Y-49700000D02*
X116350000Y-52900000D01*
X111100000Y-49700000D02*
X113150000Y-49700000D01*
%TO.N,Net-(D1-Pad2)*%
X147549019Y-49100008D02*
X175749992Y-49100008D01*
X144199990Y-45750979D02*
X147549019Y-49100008D01*
X144199990Y-39171374D02*
X144199990Y-45750979D01*
X136888626Y-31860010D02*
X144199990Y-39171374D01*
X133530010Y-31860010D02*
X136888626Y-31860010D01*
X175749992Y-49100008D02*
X176600000Y-48250000D01*
X133900000Y-32230000D02*
X133530010Y-31860010D01*
X134875000Y-32230000D02*
X133900000Y-32230000D01*
%TO.N,Net-(D1-Pad1)*%
X184050000Y-48250000D02*
X184100000Y-48300000D01*
X179400000Y-48250000D02*
X184050000Y-48250000D01*
%TO.N,Net-(D2-Pad1)*%
X179500000Y-66700000D02*
X184000000Y-66700000D01*
%TO.N,Net-(D2-Pad2)*%
X140800010Y-43482383D02*
X164017627Y-66700000D01*
X140800010Y-36902778D02*
X140800010Y-43482383D01*
X137397232Y-33500000D02*
X140800010Y-36902778D01*
X164017627Y-66700000D02*
X176700000Y-66700000D01*
X134875000Y-33500000D02*
X137397232Y-33500000D01*
%TO.N,+9V*%
X113300000Y-57500000D02*
X116350000Y-57500000D01*
X111800000Y-56000000D02*
X113300000Y-57500000D01*
%TO.N,/MISO*%
X135800008Y-84335008D02*
X136440000Y-84975000D01*
X135800008Y-38235008D02*
X135800008Y-84335008D01*
X134875000Y-37310000D02*
X135800008Y-38235008D01*
%TO.N,/SCK*%
X133900000Y-84975000D02*
X133900000Y-72158616D01*
X133200000Y-71458616D02*
X133900000Y-72158616D01*
X133200000Y-36740000D02*
X133200000Y-71458616D01*
X133900000Y-36040000D02*
X133200000Y-36740000D01*
X134875000Y-36040000D02*
X133900000Y-36040000D01*
%TO.N,/MOSI*%
X129300000Y-87599998D02*
X129550001Y-87849999D01*
X129300000Y-79935000D02*
X129300000Y-87599998D01*
X127500000Y-78135000D02*
X129300000Y-79935000D01*
X128600000Y-73600000D02*
X127500000Y-74700000D01*
X129925000Y-37310000D02*
X128600000Y-38635000D01*
X127500000Y-74700000D02*
X127500000Y-78135000D01*
X133900000Y-89400000D02*
X133900000Y-90025000D01*
X132349999Y-87849999D02*
X133900000Y-89400000D01*
X129550001Y-87849999D02*
X132349999Y-87849999D01*
X128600000Y-38635000D02*
X128600000Y-73600000D01*
%TO.N,/RESET*%
X130900000Y-33500000D02*
X129925000Y-33500000D01*
X131500010Y-34100010D02*
X130900000Y-33500000D01*
X131500010Y-37770666D02*
X131500010Y-34100010D01*
X131360000Y-84975000D02*
X131360000Y-71881384D01*
X130660000Y-38610676D02*
X131500010Y-37770666D01*
X130660000Y-38610676D02*
X130660000Y-50081384D01*
X127799990Y-34650010D02*
X128950000Y-33500000D01*
X131360000Y-71881384D02*
X131360000Y-79910676D01*
X130499992Y-71021376D02*
X131360000Y-71881384D01*
X130499992Y-50241392D02*
X130499992Y-71021376D01*
X130660000Y-50081384D02*
X130499992Y-50241392D01*
X128950000Y-33500000D02*
X126699990Y-35750010D01*
X129925000Y-33500000D02*
X128950000Y-33500000D01*
X126699990Y-64250010D02*
X120000000Y-70950000D01*
X126699990Y-35750010D02*
X126699990Y-64250010D01*
%TO.N,Net-(R4-Pad2)*%
X140000000Y-57325000D02*
X140000000Y-60300000D01*
X146650000Y-60300000D02*
X147900000Y-59050000D01*
X140000000Y-60300000D02*
X146650000Y-60300000D01*
X135850000Y-34770000D02*
X140000000Y-38920000D01*
X140000000Y-38920000D02*
X140000000Y-57325000D01*
X134875000Y-34770000D02*
X135850000Y-34770000D01*
%TD*%
M02*
