<svg version="1.1" xmlns="http://www.w3.org/2000/svg" xmlns:xlink="http://www.w3.org/1999/xlink" width="850.3401360544217" height="850.3401360544217" viewBox="0 0 850.3401360544217 850.3401360544217"><defs/><g><rect fill="rgb(255,255,255)" stroke="none" x="0" y="0" width="850.3401360544217" height="850.3401360544217" transform="matrix(1 0 0 1 0 0)" fill-opacity="1"/><path fill="none" stroke="rgb(0,0,0)" paint-order="fill stroke markers" d=" M 127.55102040816325 4.2517006802721085 L 722.7891156462584 4.2517006802721085 L 722.7891156462584 846.0884353741496 L 127.55102040816325 846.0884353741496 L 127.55102040816325 4.2517006802721085 Z" stroke-opacity="1" stroke-linecap="round" stroke-miterlimit="10" stroke-width="0.002834467120181406" stroke-dasharray=""/><path fill="none" stroke="rgb(0,0,0)" paint-order="fill stroke markers" d=" M 422.33560090702946 425.17006802721085 C 422.33560090702946 423.6046350629251 423.6046350629251 422.33560090702946 425.17006802721085 422.33560090702946 C 426.73550099149656 422.33560090702946 428.0045351473923 423.6046350629251 428.0045351473923 425.17006802721085 C 428.0045351473923 426.73550099149656 426.73550099149656 428.0045351473923 425.17006802721085 428.0045351473923 C 423.6046350629251 428.0045351473923 422.33560090702946 426.73550099149656 422.33560090702946 425.17006802721085" stroke-opacity="1" stroke-linecap="round" stroke-miterlimit="10" stroke-width="0.002834467120181406" stroke-dasharray=""/><path fill="none" stroke="rgb(0,0,0)" paint-order="fill stroke markers" d=" M 430.1303854875283 425.17006802721085 C 430.1303854875283 424.7787097861394 430.44764402650225 424.4614512471655 430.8390022675737 424.4614512471655 C 431.2303605086451 424.4614512471655 431.54761904761904 424.7787097861394 431.54761904761904 425.17006802721085 C 431.54761904761904 425.5614262682823 431.2303605086451 425.8786848072562 430.8390022675737 425.8786848072562 C 430.44764402650225 425.8786848072562 430.1303854875283 425.5614262682823 430.1303854875283 425.17006802721085" stroke-opacity="1" stroke-linecap="round" stroke-miterlimit="10" stroke-width="0.002834467120181406" stroke-dasharray=""/><path fill="none" stroke="rgb(0,0,0)" paint-order="fill stroke markers" d=" M 432.67214227347716 427.9875415681389 C 432.67214227347716 427.341800470371 433.1956188627841 426.8183238810641 433.841359960552 426.8183238810641 C 434.48710105831987 426.8183238810641 435.0105776476268 427.341800470371 435.0105776476268 427.9875415681389 C 435.0105776476268 428.6332826659068 434.48710105831987 429.15675925521373 433.841359960552 429.15675925521373 C 433.1956188627841 429.15675925521373 432.67214227347716 428.6332826659068 432.67214227347716 427.9875415681389" stroke-opacity="1" stroke-linecap="round" stroke-miterlimit="10" stroke-width="0.002834467120181406" stroke-dasharray=""/><path fill="none" stroke="rgb(0,0,0)" paint-order="fill stroke markers" d=" M 433.7064682777652 432.55625836686494 C 433.7064682777652 431.65613441240066 434.4361629174053 430.9264397727606 435.33628687186956 430.9264397727606 C 436.23641082633384 430.9264397727606 436.96610546597384 431.65613441240066 436.96610546597384 432.55625836686494 C 436.96610546597384 433.4563823213292 436.23641082633384 434.1860769609692 435.33628687186956 434.1860769609692 C 434.4361629174053 434.1860769609692 433.7064682777652 433.4563823213292 433.7064682777652 432.55625836686494" stroke-opacity="1" stroke-linecap="round" stroke-miterlimit="10" stroke-width="0.002834467120181406" stroke-dasharray=""/><path fill="none" stroke="rgb(0,0,0)" paint-order="fill stroke markers" d=" M 432.4928760642076 438.12626422397517 C 432.4928760642076 436.97175741281444 433.4287887541807 436.0358447228414 434.5832955653414 436.0358447228414 C 435.73780237650215 436.0358447228414 436.6737150664752 436.97175741281444 436.6737150664752 438.12626422397517 C 436.6737150664752 439.2807710351359 435.73780237650215 440.21668372510896 434.5832955653414 440.21668372510896 C 433.4287887541807 440.21668372510896 432.4928760642076 439.2807710351359 432.4928760642076 438.12626422397517" stroke-opacity="1" stroke-linecap="round" stroke-miterlimit="10" stroke-width="0.002834467120181406" stroke-dasharray=""/><path fill="none" stroke="rgb(0,0,0)" paint-order="fill stroke markers" d=" M 428.63355072196134 443.680805211338 C 428.63355072196134 442.2719155434809 429.77568146226747 441.12978480317474 431.1845711301246 441.12978480317474 C 432.5934607979817 441.12978480317474 433.73559153828785 442.2719155434809 433.73559153828785 443.680805211338 C 433.73559153828785 445.0896948791951 432.5934607979817 446.23182561950125 431.1845711301246 446.23182561950125 C 429.77568146226747 446.23182561950125 428.63355072196134 445.0896948791951 428.63355072196134 443.680805211338" stroke-opacity="1" stroke-linecap="round" stroke-miterlimit="10" stroke-width="0.002834467120181406" stroke-dasharray=""/><path fill="none" stroke="rgb(0,0,0)" paint-order="fill stroke markers" d=" M 422.1584467120181 448.0820105820105 C 422.1584467120181 446.41873805745695 423.50679550265727 445.07038926681776 425.17006802721085 445.07038926681776 C 426.8333405517644 445.07038926681776 428.18168934240356 446.41873805745695 428.18168934240356 448.0820105820105 C 428.18168934240356 449.7452831065641 426.8333405517644 451.09363189720324 425.17006802721085 451.09363189720324 C 423.50679550265727 451.09363189720324 422.1584467120181 449.7452831065641 422.1584467120181 448.0820105820105" stroke-opacity="1" stroke-linecap="round" stroke-miterlimit="10" stroke-width="0.002834467120181406" stroke-dasharray=""/><path fill="none" stroke="rgb(0,0,0)" paint-order="fill stroke markers" d=" M 413.5519896607511 450.2404353785287 C 413.5519896607511 448.3227799972787 415.10655650172333 446.76821315630644 417.0242118829733 446.76821315630644 C 418.9418672642233 446.76821315630644 420.49643410519553 448.3227799972787 420.49643410519553 450.2404353785287 C 420.49643410519553 452.15809075977864 418.9418672642233 453.7126576007509 417.0242118829733 453.7126576007509 C 415.10655650172333 453.7126576007509 413.5519896607511 452.15809075977864 413.5519896607511 450.2404353785287" stroke-opacity="1" stroke-linecap="round" stroke-miterlimit="10" stroke-width="0.002834467120181406" stroke-dasharray=""/><path fill="none" stroke="rgb(0,0,0)" paint-order="fill stroke markers" d=" M 403.71586856592256 449.28617363239755 C 403.71586856592256 447.1141353944511 405.4766534572278 445.35335050314586 407.64869169517425 445.35335050314586 C 409.8207299331207 445.35335050314586 411.58151482442594 447.1141353944511 411.58151482442594 449.28617363239755 C 411.58151482442594 451.458211870344 409.8207299331207 453.21899676164924 407.64869169517425 453.21899676164924 C 405.4766534572278 453.21899676164924 403.71586856592256 451.458211870344 403.71586856592256 449.28617363239755" stroke-opacity="1" stroke-linecap="round" stroke-miterlimit="10" stroke-width="0.002834467120181406" stroke-dasharray=""/><path fill="none" stroke="rgb(0,0,0)" paint-order="fill stroke markers" d=" M 393.8705610336374 444.7184815577239 C 393.8705610336374 442.29206046308104 395.8375639752757 440.3250575214427 398.2639850699186 440.3250575214427 C 400.69040616456147 440.3250575214427 402.65740910619974 442.29206046308104 402.65740910619974 444.7184815577239 C 402.65740910619974 447.1449026523668 400.69040616456147 449.11190559400507 398.2639850699186 449.11190559400507 C 395.8375639752757 449.11190559400507 393.8705610336374 447.1449026523668 393.8705610336374 444.7184815577239" stroke-opacity="1" stroke-linecap="round" stroke-miterlimit="10" stroke-width="0.002834467120181406" stroke-dasharray=""/><path fill="none" stroke="rgb(0,0,0)" paint-order="fill stroke markers" d=" M 385.40623048179634 436.51295373343413 C 385.40623048179634 433.83214978209486 387.57945147376773 431.65892879012347 390.260255425107 431.65892879012347 C 392.9410593764463 431.65892879012347 395.11428036841767 433.83214978209486 395.11428036841767 436.51295373343413 C 395.11428036841767 439.1937576847734 392.9410593764463 441.3669786767448 390.260255425107 441.3669786767448 C 387.57945147376773 441.3669786767448 385.40623048179634 439.1937576847734 385.40623048179634 436.51295373343413" stroke-opacity="1" stroke-linecap="round" stroke-miterlimit="10" stroke-width="0.002834467120181406" stroke-dasharray=""/><path fill="none" stroke="rgb(0,0,0)" paint-order="fill stroke markers" d=" M 379.70049130763414 425.17006802721085 C 379.70049130763414 422.2348812191751 382.07993034993854 419.8554421768707 385.01511715797426 419.8554421768707 C 387.95030396601 419.8554421768707 390.3297430083144 422.2348812191751 390.3297430083144 425.17006802721085 C 390.3297430083144 428.10525483524657 387.95030396601 430.48469387755097 385.01511715797426 430.48469387755097 C 382.07993034993854 430.48469387755097 379.70049130763414 428.10525483524657 379.70049130763414 425.17006802721085" stroke-opacity="1" stroke-linecap="round" stroke-miterlimit="10" stroke-width="0.002834467120181406" stroke-dasharray=""/><path fill="none" stroke="rgb(0,0,0)" paint-order="fill stroke markers" d=" M 377.9253985005467 411.69582927966377 C 377.9253985005467 408.50625961493165 380.5110555931842 405.92060252229413 383.70062525791633 405.92060252229413 C 386.89019492264845 405.92060252229413 389.4758520152859 408.50625961493165 389.4758520152859 411.69582927966377 C 389.4758520152859 414.8853989443959 386.89019492264845 417.47105603703335 383.70062525791633 417.47105603703335 C 380.5110555931842 417.47105603703335 377.9253985005467 414.8853989443959 377.9253985005467 411.69582927966377" stroke-opacity="1" stroke-linecap="round" stroke-miterlimit="10" stroke-width="0.002834467120181406" stroke-dasharray=""/><path fill="none" stroke="rgb(0,0,0)" paint-order="fill stroke markers" d=" M 380.8682479970971 397.51350570279175 C 380.8682479970971 394.0695531813632 383.66012314006764 391.27767803839265 387.1040756614962 391.27767803839265 C 390.5480281829248 391.27767803839265 393.3399033258953 394.0695531813632 393.3399033258953 397.51350570279175 C 393.3399033258953 400.9574582242203 390.5480281829248 403.74933336719084 387.1040756614962 403.74933336719084 C 383.66012314006764 403.74933336719084 380.8682479970971 400.9574582242203 380.8682479970971 397.51350570279175" stroke-opacity="1" stroke-linecap="round" stroke-miterlimit="10" stroke-width="0.002834467120181406" stroke-dasharray=""/><path fill="none" stroke="rgb(0,0,0)" paint-order="fill stroke markers" d=" M 388.7900399328867 384.3140983093906 C 388.7900399328867 380.6157629312656 391.78813312619025 377.61766973796205 395.48646850431527 377.61766973796205 C 399.1848038824403 377.61766973796205 402.1828970757439 380.6157629312656 402.1828970757439 384.3140983093906 C 402.1828970757439 388.0124336875156 399.1848038824403 391.0105268808192 395.48646850431527 391.0105268808192 C 391.78813312619025 391.0105268808192 388.7900399328867 388.0124336875156 388.7900399328867 384.3140983093906" stroke-opacity="1" stroke-linecap="round" stroke-miterlimit="10" stroke-width="0.002834467120181406" stroke-dasharray=""/><path fill="none" stroke="rgb(0,0,0)" paint-order="fill stroke markers" d=" M 401.34177023922 373.8611800071303 C 401.34177023922 369.9084617723089 404.54608148285666 366.70415052867224 408.4987997176781 366.70415052867224 C 412.4515179524995 366.70415052867224 415.6558291961361 369.9084617723089 415.6558291961361 373.8611800071303 C 415.6558291961361 377.81389824195173 412.4515179524995 381.01820948558833 408.4987997176781 381.01820948558833 C 404.54608148285666 381.01820948558833 401.34177023922 377.81389824195173 401.34177023922 373.8611800071303" stroke-opacity="1" stroke-linecap="round" stroke-miterlimit="10" stroke-width="0.002834467120181406" stroke-dasharray=""/><path fill="none" stroke="rgb(0,0,0)" paint-order="fill stroke markers" d=" M 417.5524376417233 367.77210884353735 C 417.5524376417233 363.5650077520195 420.962966935693 360.1544784580498 425.17006802721085 360.1544784580498 C 429.3771691187287 360.1544784580498 432.7876984126984 363.5650077520195 432.7876984126984 367.77210884353735 C 432.7876984126984 371.9792099350552 429.3771691187287 375.3897392290249 425.17006802721085 375.3897392290249 C 420.962966935693 375.3897392290249 417.5524376417233 371.9792099350552 417.5524376417233 367.77210884353735" stroke-opacity="1" stroke-linecap="round" stroke-miterlimit="10" stroke-width="0.002834467120181406" stroke-dasharray=""/><path fill="none" stroke="rgb(0,0,0)" paint-order="fill stroke markers" d=" M 435.8944580855504 367.3015498399396 C 435.8944580855504 362.8400658917253 439.51120542985313 359.2233185474226 443.9726893780674 359.2233185474226 C 448.43417332628167 359.2233185474226 452.05092067058445 362.8400658917253 452.05092067058445 367.3015498399396 C 452.05092067058445 371.76303378815385 448.43417332628167 375.3797811324566 443.9726893780674 375.3797811324566 C 439.51120542985313 375.3797811324566 435.8944580855504 371.76303378815385 435.8944580855504 367.3015498399396" stroke-opacity="1" stroke-linecap="round" stroke-miterlimit="10" stroke-width="0.002834467120181406" stroke-dasharray=""/><path fill="none" stroke="rgb(0,0,0)" paint-order="fill stroke markers" d=" M 454.4229841444659 373.1541889009682 C 454.4229841444659 368.4383220960575 458.2459495391017 364.6153567014217 462.9618163440124 364.6153567014217 C 467.6776831489231 364.6153567014217 471.50064854355884 368.4383220960575 471.50064854355884 373.1541889009682 C 471.50064854355884 377.87005570587894 467.6776831489231 381.69302110051467 462.9618163440124 381.69302110051467 C 458.2459495391017 381.69302110051467 454.4229841444659 377.87005570587894 454.4229841444659 373.1541889009682" stroke-opacity="1" stroke-linecap="round" stroke-miterlimit="10" stroke-width="0.002834467120181406" stroke-dasharray=""/><path fill="none" stroke="rgb(0,0,0)" paint-order="fill stroke markers" d=" M 470.97649139898306 385.35128251193277 C 470.97649139898306 380.3810328503256 475.00567484395185 376.3518494053568 479.975924505559 376.3518494053568 C 484.9461741671662 376.3518494053568 488.975357612135 380.3810328503256 488.975357612135 385.35128251193277 C 488.975357612135 390.32153217353994 484.9461741671662 394.35071561850873 479.975924505559 394.35071561850873 C 475.00567484395185 394.35071561850873 470.97649139898306 390.32153217353994 470.97649139898306 385.35128251193277" stroke-opacity="1" stroke-linecap="round" stroke-miterlimit="10" stroke-width="0.002834467120181406" stroke-dasharray=""/><path fill="none" stroke="rgb(0,0,0)" paint-order="fill stroke markers" d=" M 483.4179974516627 403.17041711436855 C 483.4179974516627 397.945784596065 487.65339894696456 393.7103831007631 492.8780314652681 393.7103831007631 C 498.1026639835717 393.7103831007631 502.3380654788736 397.945784596065 502.3380654788736 403.17041711436855 C 502.3380654788736 408.3950496326721 498.1026639835717 412.630451127974 492.8780314652681 412.630451127974 C 487.65339894696456 412.630451127974 483.4179974516627 408.3950496326721 483.4179974516627 403.17041711436855" stroke-opacity="1" stroke-linecap="round" stroke-miterlimit="10" stroke-width="0.002834467120181406" stroke-dasharray=""/><path fill="none" stroke="rgb(0,0,0)" paint-order="fill stroke markers" d=" M 489.89040060468625 425.17006802721085 C 489.89040060468625 419.69105265221083 494.33202015032117 415.2494331065759 499.8110355253212 415.2494331065759 C 505.2900509003212 415.2494331065759 509.73167044595607 419.69105265221083 509.73167044595607 425.17006802721085 C 509.73167044595607 430.64908340221086 505.2900509003212 435.0907029478457 499.8110355253212 435.0907029478457 C 494.33202015032117 435.0907029478457 489.89040060468625 430.64908340221086 489.89040060468625 425.17006802721085" stroke-opacity="1" stroke-linecap="round" stroke-miterlimit="10" stroke-width="0.002834467120181406" stroke-dasharray=""/><path fill="none" stroke="rgb(0,0,0)" paint-order="fill stroke markers" d=" M 489.0564258047944 449.30107198137694 C 489.0564258047944 443.5676737496805 493.7042634007624 438.91983615371254 499.4376616324588 438.91983615371254 C 505.1710598641552 438.91983615371254 509.8188974601232 443.5676737496805 509.8188974601232 449.30107198137694 C 509.8188974601232 455.03447021307335 505.1710598641552 459.68230780904133 499.4376616324588 459.68230780904133 C 493.7042634007624 459.68230780904133 489.0564258047944 455.03447021307335 489.0564258047944 449.30107198137694" stroke-opacity="1" stroke-linecap="round" stroke-miterlimit="10" stroke-width="0.002834467120181406" stroke-dasharray=""/><path fill="none" stroke="rgb(0,0,0)" paint-order="fill stroke markers" d=" M 480.29399717928754 473.0970023363949 C 480.29399717928754 467.10922124800203 485.14805282558854 462.25516560170104 491.1358339139814 462.25516560170104 C 497.12361500237427 462.25516560170104 501.9776706486753 467.10922124800203 501.9776706486753 473.0970023363949 C 501.9776706486753 479.08478342478776 497.12361500237427 483.9388390710888 491.1358339139814 483.9388390710888 C 485.14805282558854 483.9388390710888 480.29399717928754 479.08478342478776 480.29399717928754 473.0970023363949" stroke-opacity="1" stroke-linecap="round" stroke-miterlimit="10" stroke-width="0.002834467120181406" stroke-dasharray=""/><path fill="none" stroke="rgb(0,0,0)" paint-order="fill stroke markers" d=" M 463.82160189314806 493.925811266087 C 463.82160189314806 487.68364732099775 468.88187558978217 482.62337362436364 475.12403953487143 482.62337362436364 C 481.3662034799607 482.62337362436364 486.42647717659474 487.68364732099775 486.42647717659474 493.925811266087 C 486.42647717659474 500.16797521117627 481.3662034799607 505.2282489078103 475.12403953487143 505.2282489078103 C 468.88187558978217 505.2282489078103 463.82160189314806 500.16797521117627 463.82160189314806 493.925811266087" stroke-opacity="1" stroke-linecap="round" stroke-miterlimit="10" stroke-width="0.002834467120181406" stroke-dasharray=""/><path fill="none" stroke="rgb(0,0,0)" paint-order="fill stroke markers" d=" M 440.73506299460985 509.2771068832448 C 440.73506299460985 502.7805600814591 446.00155474157697 497.514068334492 452.4981015433627 497.514068334492 C 458.9946483451484 497.514068334492 464.2611400921155 502.7805600814591 464.2611400921155 509.2771068832448 C 464.2611400921155 515.7736536850306 458.9946483451484 521.0401454319976 452.4981015433627 521.0401454319976 C 446.00155474157697 521.0401454319976 440.73506299460985 515.7736536850306 440.73506299460985 509.2771068832448" stroke-opacity="1" stroke-linecap="round" stroke-miterlimit="10" stroke-width="0.002834467120181406" stroke-dasharray=""/><path fill="none" stroke="rgb(0,0,0)" paint-order="fill stroke markers" d=" M 412.94642857142856 517.0540438397582 C 412.94642857142856 510.303114181276 418.4191383687287 504.83040438397586 425.17006802721085 504.83040438397586 C 431.920997685693 504.83040438397586 437.3937074829932 510.303114181276 437.3937074829932 517.0540438397582 C 437.3937074829932 523.8049734982403 431.920997685693 529.2776832955404 425.17006802721085 529.2776832955404 C 418.4191383687287 529.2776832955404 412.94642857142856 523.8049734982403 412.94642857142856 517.0540438397582" stroke-opacity="1" stroke-linecap="round" stroke-miterlimit="10" stroke-width="0.002834467120181406" stroke-dasharray=""/><path fill="none" stroke="rgb(0,0,0)" paint-order="fill stroke markers" d=" M 383.02644110692347 515.8367370504355 C 383.02644110692347 508.831424535257 388.7053689545567 503.15249668762374 395.7106814697353 503.15249668762374 C 402.71599398491384 503.15249668762374 408.3949218325471 508.831424535257 408.3949218325471 515.8367370504355 C 408.3949218325471 522.8420495656142 402.71599398491384 528.5209774132474 395.7106814697353 528.5209774132474 C 388.7053689545567 528.5209774132474 383.02644110692347 522.8420495656142 383.02644110692347 515.8367370504355" stroke-opacity="1" stroke-linecap="round" stroke-miterlimit="10" stroke-width="0.002834467120181406" stroke-dasharray=""/><path fill="none" stroke="rgb(0,0,0)" paint-order="fill stroke markers" d=" M 353.96310645580303 505.0857206745094 C 353.96310645580303 497.8260253026344 359.8482523537693 491.9408794046681 367.1079477256443 491.9408794046681 C 374.3676430975193 491.9408794046681 380.25278899548556 497.8260253026344 380.25278899548556 505.0857206745094 C 380.25278899548556 512.3454160463843 374.3676430975193 518.2305619443507 367.1079477256443 518.2305619443507 C 359.8482523537693 518.2305619443507 353.96310645580303 512.3454160463843 353.96310645580303 505.0857206745094" stroke-opacity="1" stroke-linecap="round" stroke-miterlimit="10" stroke-width="0.002834467120181406" stroke-dasharray=""/><path fill="none" stroke="rgb(0,0,0)" paint-order="fill stroke markers" d=" M 328.858995850936 485.25922552725393 C 328.858995850936 477.7451472986825 334.95035979923534 471.6537833503832 342.46443802780675 471.6537833503832 C 349.97851625637816 471.6537833503832 356.06988020467753 477.7451472986825 356.06988020467753 485.25922552725393 C 356.06988020467753 492.77330375582534 349.97851625637816 498.8646677041247 342.46443802780675 498.8646677041247 C 334.95035979923534 498.8646677041247 328.858995850936 492.77330375582534 328.858995850936 485.25922552725393" stroke-opacity="1" stroke-linecap="round" stroke-miterlimit="10" stroke-width="0.002834467120181406" stroke-dasharray=""/><path fill="none" stroke="rgb(0,0,0)" paint-order="fill stroke markers" d=" M 310.5979106692999 457.8264841466722 C 310.5979106692999 450.05802306140436 316.8954926679323 443.760441062772 324.66395375320013 443.760441062772 C 332.432414838468 443.760441062772 338.7299968371004 450.05802306140436 338.7299968371004 457.8264841466722 C 338.7299968371004 465.5949452319401 332.432414838468 471.89252723057245 324.66395375320013 471.89252723057245 C 316.8954926679323 471.89252723057245 310.5979106692999 465.5949452319401 310.5979106692999 457.8264841466722" stroke-opacity="1" stroke-linecap="round" stroke-miterlimit="10" stroke-width="0.002834467120181406" stroke-dasharray=""/><path fill="none" stroke="rgb(0,0,0)" paint-order="fill stroke markers" d=" M 301.51643990929705 425.1700680272109 C 301.51643990929705 417.1472240852466 308.02023995826244 410.6434240362812 316.04308390022675 410.6434240362812 C 324.06592784219106 410.6434240362812 330.56972789115645 417.1472240852466 330.56972789115645 425.1700680272109 C 330.56972789115645 433.1929119691752 324.06592784219106 439.6967120181406 316.04308390022675 439.6967120181406 C 308.02023995826244 439.6967120181406 301.51643990929705 433.1929119691752 301.51643990929705 425.1700680272109" stroke-opacity="1" stroke-linecap="round" stroke-miterlimit="10" stroke-width="0.002834467120181406" stroke-dasharray=""/><path fill="none" stroke="rgb(0,0,0)" paint-order="fill stroke markers" d=" M 303.11707868805024 390.3822988664257 C 303.11707868805024 382.105072067765 309.8270967873487 375.3950539684665 318.1043235860094 375.3950539684665 C 326.3815503846701 375.3950539684665 333.0915684839686 382.105072067765 333.0915684839686 390.3822988664257 C 333.0915684839686 398.6595256650864 326.3815503846701 405.3695437643849 318.1043235860094 405.3695437643849 C 309.8270967873487 405.3695437643849 303.11707868805024 398.6595256650864 303.11707868805024 390.3822988664257" stroke-opacity="1" stroke-linecap="round" stroke-miterlimit="10" stroke-width="0.002834467120181406" stroke-dasharray=""/><path fill="none" stroke="rgb(0,0,0)" paint-order="fill stroke markers" d=" M 315.85668281439564 356.9727617332618 C 315.85668281439564 348.44115207790463 322.77291896402716 341.5249159282731 331.3045286193843 341.5249159282731 C 339.8361382747415 341.5249159282731 346.752374424373 348.44115207790463 346.752374424373 356.9727617332618 C 346.752374424373 365.50437138861895 339.8361382747415 372.42060753825047 331.3045286193843 372.42060753825047 C 322.77291896402716 372.42060753825047 315.85668281439564 365.50437138861895 315.85668281439564 356.9727617332618" stroke-opacity="1" stroke-linecap="round" stroke-miterlimit="10" stroke-width="0.002834467120181406" stroke-dasharray=""/><path fill="none" stroke="rgb(0,0,0)" paint-order="fill stroke markers" d=" M 339.03727782276707 328.51455126727876 C 339.03727782276707 319.7285587552252 346.15973202273165 312.60610455526063 354.9457245347852 312.60610455526063 C 363.73171704683875 312.60610455526063 370.85417124680333 319.7285587552252 370.85417124680333 328.51455126727876 C 370.85417124680333 337.3005437793323 363.73171704683875 344.4229979792969 354.9457245347852 344.4229979792969 C 346.15973202273165 344.4229979792969 339.03727782276707 337.3005437793323 339.03727782276707 328.51455126727876" stroke-opacity="1" stroke-linecap="round" stroke-miterlimit="10" stroke-width="0.002834467120181406" stroke-dasharray=""/><path fill="none" stroke="rgb(0,0,0)" paint-order="fill stroke markers" d=" M 370.8162216853923 308.26487833522344 C 370.8162216853923 299.22450296647344 378.1448939356899 291.89583071617585 387.1852693044399 291.89583071617585 C 396.2256446731899 291.89583071617585 403.55431692348753 299.22450296647344 403.55431692348753 308.26487833522344 C 403.55431692348753 317.30525370397345 396.2256446731899 324.6339259542711 387.1852693044399 324.6339259542711 C 378.1448939356899 324.6339259542711 370.8162216853923 317.30525370397345 370.8162216853923 308.26487833522344" stroke-opacity="1" stroke-linecap="round" stroke-miterlimit="10" stroke-width="0.002834467120181406" stroke-dasharray=""/><path fill="none" stroke="rgb(0,0,0)" paint-order="fill stroke markers" d=" M 408.3404195011337 298.80007558578984 C 408.3404195011337 289.50531736034344 415.8753098017644 281.97042705971273 425.1700680272108 281.97042705971273 C 434.4648262526572 281.97042705971273 441.9997165532879 289.50531736034344 441.9997165532879 298.80007558578984 C 441.9997165532879 308.09483381123624 434.4648262526572 315.62972411186695 425.1700680272108 315.62972411186695 C 415.8753098017644 315.62972411186695 408.3404195011337 308.09483381123624 408.3404195011337 298.80007558578984" stroke-opacity="1" stroke-linecap="round" stroke-miterlimit="10" stroke-width="0.002834467120181406" stroke-dasharray=""/><path fill="none" stroke="rgb(0,0,0)" paint-order="fill stroke markers" d=" M 447.99597035819886 301.70524816803277 C 447.99597035819886 292.1561070858899 455.7370787091626 284.4149987349262 465.2862197913054 284.4149987349262 C 474.8353608734483 284.4149987349262 482.576469224412 292.1561070858899 482.576469224412 301.70524816803277 C 482.576469224412 311.2543892501756 474.8353608734483 318.99549760113933 465.2862197913054 318.99549760113933 C 455.7370787091626 318.99549760113933 447.99597035819886 311.2543892501756 447.99597035819886 301.70524816803277" stroke-opacity="1" stroke-linecap="round" stroke-miterlimit="10" stroke-width="0.002834467120181406" stroke-dasharray=""/><path fill="none" stroke="rgb(0,0,0)" paint-order="fill stroke markers" d=" M 485.7517099734064 317.3546418588563 C 485.7517099734064 307.551117920017 493.6990363747031 299.6037915187203 503.5025603135424 299.6037915187203 C 513.3060842523817 299.6037915187203 521.2534106536784 307.551117920017 521.2534106536784 317.3546418588563 C 521.2534106536784 327.15816579769563 513.3060842523817 335.1054921989924 503.5025603135424 335.1054921989924 C 493.6990363747031 335.1054921989924 485.7517099734064 327.15816579769563 485.7517099734064 317.3546418588563" stroke-opacity="1" stroke-linecap="round" stroke-miterlimit="10" stroke-width="0.002834467120181406" stroke-dasharray=""/><path fill="none" stroke="rgb(0,0,0)" paint-order="fill stroke markers" d=" M 517.5640203005053 344.81053854240275 C 517.5640203005053 334.75263174686705 525.7175647521351 326.5990872952372 535.7754715476708 326.5990872952372 C 545.8333783432065 326.5990872952372 553.9869227948363 334.75263174686705 553.9869227948363 344.81053854240275 C 553.9869227948363 354.86844533793845 545.8333783432065 363.0219897895683 535.7754715476708 363.0219897895683 C 525.7175647521351 363.0219897895683 517.5640203005053 354.86844533793845 517.5640203005053 344.81053854240275" stroke-opacity="1" stroke-linecap="round" stroke-miterlimit="10" stroke-width="0.002834467120181406" stroke-dasharray=""/><path fill="none" stroke="rgb(0,0,0)" paint-order="fill stroke markers" d=" M 539.8022809829798 381.8568867011304 C 539.8022809829798 371.54459704889825 548.1620434849427 363.1848345469354 558.4743331371749 363.1848345469354 C 568.786622789407 363.1848345469354 577.1463852913698 371.54459704889825 577.1463852913698 381.8568867011304 C 577.1463852913698 392.16917635336256 568.786622789407 400.5289388553254 558.4743331371749 400.5289388553254 C 548.1620434849427 400.5289388553254 539.8022809829798 392.16917635336256 539.8022809829798 381.8568867011304" stroke-opacity="1" stroke-linecap="round" stroke-miterlimit="10" stroke-width="0.002834467120181406" stroke-dasharray=""/><path fill="none" stroke="rgb(0,0,0)" paint-order="fill stroke markers" d=" M 549.6504157218443 425.17006802721073 C 549.6504157218443 414.6033955182822 558.2163962741402 406.0374149659863 568.7830687830688 406.0374149659863 C 579.3497412919974 406.0374149659863 587.9157218442933 414.6033955182822 587.9157218442933 425.17006802721073 C 587.9157218442933 435.7367405361393 579.3497412919974 444.30272108843525 568.7830687830688 444.30272108843525 C 558.2163962741402 444.30272108843525 549.6504157218443 435.7367405361393 549.6504157218443 425.17006802721073" stroke-opacity="1" stroke-linecap="round" stroke-miterlimit="10" stroke-width="0.002834467120181406" stroke-dasharray=""/><path fill="none" stroke="rgb(0,0,0)" paint-order="fill stroke markers" d=" M 545.4407093361117 470.61460239461496 C 545.4407093361117 459.79354702898996 554.2129079387407 451.021348426361 565.0339633043657 451.021348426361 C 575.8550186699906 451.021348426361 584.6272172726196 459.79354702898996 584.6272172726196 470.61460239461496 C 584.6272172726196 481.43565776023996 575.8550186699906 490.20785636286894 565.0339633043657 490.20785636286894 C 554.2129079387407 490.20785636286894 545.4407093361117 481.43565776023996 545.4407093361117 470.61460239461496" stroke-opacity="1" stroke-linecap="round" stroke-miterlimit="10" stroke-width="0.002834467120181406" stroke-dasharray=""/><path fill="none" stroke="rgb(0,0,0)" paint-order="fill stroke markers" d=" M 526.8815260808097 513.6377463059248 C 526.8815260808097 502.56230808360334 535.8599427337718 493.58389143064136 546.9353809560932 493.58389143064136 C 558.0108191784146 493.58389143064136 566.9892358313766 502.56230808360334 566.9892358313766 513.6377463059248 C 566.9892358313766 524.7131845282462 558.0108191784146 533.6916011812083 546.9353809560932 533.6916011812083 C 535.8599427337718 533.6916011812083 526.8815260808097 524.7131845282462 526.8815260808097 513.6377463059248" stroke-opacity="1" stroke-linecap="round" stroke-miterlimit="10" stroke-width="0.002834467120181406" stroke-dasharray=""/><path fill="none" stroke="rgb(0,0,0)" paint-order="fill stroke markers" d=" M 495.15032772208855 549.7253583081988 C 495.15032772208855 538.395537229181 504.33496242538365 529.2109025258859 515.6647835044015 529.2109025258859 C 526.9946045834193 529.2109025258859 536.1792392867144 538.395537229181 536.1792392867144 549.7253583081988 C 536.1792392867144 561.0551793872166 526.9946045834193 570.2398140905118 515.6647835044015 570.2398140905118 C 504.33496242538365 570.2398140905118 495.15032772208855 561.0551793872166 495.15032772208855 549.7253583081988" stroke-opacity="1" stroke-linecap="round" stroke-miterlimit="10" stroke-width="0.002834467120181406" stroke-dasharray=""/><path fill="none" stroke="rgb(0,0,0)" paint-order="fill stroke markers" d=" M 452.8365752672584 574.8734085551516 C 452.8365752672584 563.2892046194373 462.2274280208865 553.8983518658092 473.8116319566008 553.8983518658092 C 485.3958358923151 553.8983518658092 494.78668864594323 563.2892046194373 494.78668864594323 574.8734085551516 C 494.78668864594323 586.4576124908659 485.3958358923151 595.848465244494 473.8116319566008 595.848465244494 C 462.2274280208865 595.848465244494 452.8365752672584 586.4576124908659 452.8365752672584 574.8734085551516" stroke-opacity="1" stroke-linecap="round" stroke-miterlimit="10" stroke-width="0.002834467120181406" stroke-dasharray=""/><path fill="none" stroke="rgb(0,0,0)" paint-order="fill stroke markers" d=" M 403.7344104308391 586.0260770975055 C 403.7344104308391 574.1874903050948 413.33148123480026 564.5904195011336 425.17006802721096 564.5904195011336 C 437.00865481962165 564.5904195011336 446.6057256235829 574.1874903050948 446.6057256235829 586.0260770975055 C 446.6057256235829 597.8646638899163 437.00865481962165 607.4617346938774 425.17006802721096 607.4617346938774 C 413.33148123480026 607.4617346938774 403.7344104308391 597.8646638899163 403.7344104308391 586.0260770975055" stroke-opacity="1" stroke-linecap="round" stroke-miterlimit="10" stroke-width="0.002834467120181406" stroke-dasharray=""/><path fill="none" stroke="rgb(0,0,0)" paint-order="fill stroke markers" d=" M 352.50089255309587 581.4330387223424 C 352.50089255309587 569.3400690732353 362.3041814073901 559.5367802189411 374.39715105649725 559.5367802189411 C 386.4901207056044 559.5367802189411 396.2934095598986 569.3400690732353 396.2934095598986 581.4330387223424 C 396.2934095598986 593.5260083714495 386.4901207056044 603.3292972257439 374.39715105649725 603.3292972257439 C 362.3041814073901 603.3292972257439 352.50089255309587 593.5260083714495 352.50089255309587 581.4330387223424" stroke-opacity="1" stroke-linecap="round" stroke-miterlimit="10" stroke-width="0.002834467120181406" stroke-dasharray=""/><path fill="none" stroke="rgb(0,0,0)" paint-order="fill stroke markers" d=" M 304.21034434568355 560.8852677166212 C 304.21034434568355 548.5379152108177 314.21985125031085 538.5284083061904 326.5672037561144 538.5284083061904 C 338.91455626191794 538.5284083061904 348.92406316654524 548.5379152108177 348.92406316654524 560.8852677166212 C 348.92406316654524 573.2326202224248 338.91455626191794 583.2421271270521 326.5672037561144 583.2421271270521 C 314.21985125031085 583.2421271270521 304.21034434568355 573.2326202224248 304.21034434568355 560.8852677166212" stroke-opacity="1" stroke-linecap="round" stroke-miterlimit="10" stroke-width="0.002834467120181406" stroke-dasharray=""/><path fill="none" stroke="rgb(0,0,0)" paint-order="fill stroke markers" d=" M 263.8474306682347 525.799969496784 C 263.8474306682347 513.198234134284 274.06315562319503 502.9825091793237 286.664890985695 502.9825091793237 C 299.266626348195 502.9825091793237 309.4823513031554 513.198234134284 309.4823513031554 525.799969496784 C 309.4823513031554 538.401704859284 299.266626348195 548.6174298142444 286.664890985695 548.6174298142444 C 274.06315562319503 548.6174298142444 263.8474306682347 538.401704859284 263.8474306682347 525.799969496784" stroke-opacity="1" stroke-linecap="round" stroke-miterlimit="10" stroke-width="0.002834467120181406" stroke-dasharray=""/><path fill="none" stroke="rgb(0,0,0)" paint-order="fill stroke markers" d=" M 235.78959085680353 479.14001455991036 C 235.78959085680353 466.2838963407139 246.2115338620969 455.86195333542054 259.0676520812933 455.86195333542054 C 271.92377030048976 455.86195333542054 282.34571330578314 466.2838963407139 282.34571330578314 479.14001455991036 C 282.34571330578314 491.9961327791068 271.92377030048976 502.4180757844001 259.0676520812933 502.4180757844001 C 246.2115338620969 502.4180757844001 235.78959085680353 491.9961327791068 235.78959085680353 479.14001455991036" stroke-opacity="1" stroke-linecap="round" stroke-miterlimit="10" stroke-width="0.002834467120181406" stroke-dasharray=""/><path fill="none" stroke="rgb(0,0,0)" paint-order="fill stroke markers" d=" M 223.3323885109599 425.17006802721096 C 223.3323885109599 412.0595669513181 233.96054956658634 401.4314058956917 247.07105064247918 401.4314058956917 C 260.181551718372 401.4314058956917 270.80971277399846 412.0595669513181 270.80971277399846 425.17006802721096 C 270.80971277399846 438.2805691031038 260.181551718372 448.90873015873024 247.07105064247918 448.90873015873024 C 233.96054956658634 448.90873015873024 223.3323885109599 438.2805691031038 223.3323885109599 425.17006802721096" stroke-opacity="1" stroke-linecap="round" stroke-miterlimit="10" stroke-width="0.002834467120181406" stroke-dasharray=""/><path fill="none" stroke="rgb(0,0,0)" paint-order="fill stroke markers" d=" M 228.30875887555374 369.0687684531881 C 228.30875887555374 355.7038845205988 239.14313798151318 344.8695054146394 252.50802191410247 344.8695054146394 C 265.87290584669176 344.8695054146394 276.7072849526512 355.7038845205988 276.7072849526512 369.0687684531881 C 276.7072849526512 382.4336523857774 265.87290584669176 393.2680314917369 252.50802191410247 393.2680314917369 C 239.14313798151318 393.2680314917369 228.30875887555374 382.4336523857774 228.30875887555374 369.0687684531881" stroke-opacity="1" stroke-linecap="round" stroke-miterlimit="10" stroke-width="0.002834467120181406" stroke-dasharray=""/><path fill="none" stroke="rgb(0,0,0)" paint-order="fill stroke markers" d=" M 250.84511763169425 316.4320177637319 C 250.84511763169425 302.8127509744462 261.8857147879868 291.77215381815364 275.5049815772725 291.77215381815364 C 289.12424836655816 291.77215381815364 300.1648455228507 302.8127509744462 300.1648455228507 316.4320177637319 C 300.1648455228507 330.0512845530176 289.12424836655816 341.0918817093101 275.5049815772725 341.0918817093101 C 261.8857147879868 341.0918817093101 250.84511763169425 330.0512845530176 250.84511763169425 316.4320177637319" stroke-opacity="1" stroke-linecap="round" stroke-miterlimit="10" stroke-width="0.002834467120181406" stroke-dasharray=""/><path fill="none" stroke="rgb(0,0,0)" paint-order="fill stroke markers" d=" M 289.2845157126477 272.7150042251668 C 289.2845157126477 258.84135457918467 300.5313309192733 247.5945393725591 314.4049805652554 247.5945393725591 C 328.27863021123756 247.5945393725591 339.5254454178631 258.84135457918467 339.5254454178631 272.7150042251668 C 339.5254454178631 286.58865387114895 328.27863021123756 297.8354690777745 314.4049805652554 297.8354690777745 C 300.5313309192733 297.8354690777745 289.2845157126477 286.58865387114895 289.2845157126477 272.7150042251668" stroke-opacity="1" stroke-linecap="round" stroke-miterlimit="10" stroke-width="0.002834467120181406" stroke-dasharray=""/><path fill="none" stroke="rgb(0,0,0)" paint-order="fill stroke markers" d=" M 340.2906731315653 242.66857666331643 C 340.2906731315653 228.54054416063786 351.7437063885239 217.08751090367923 365.8717388912025 217.08751090367923 C 379.9997713938811 217.08751090367923 391.4528046508397 228.54054416063786 391.4528046508397 242.66857666331643 C 391.4528046508397 256.796609165995 379.9997713938811 268.2496424229536 365.8717388912025 268.2496424229536 C 351.7437063885239 268.2496424229536 340.2906731315653 256.796609165995 340.2906731315653 242.66857666331643" stroke-opacity="1" stroke-linecap="round" stroke-miterlimit="10" stroke-width="0.002834467120181406" stroke-dasharray=""/><path fill="none" stroke="rgb(0,0,0)" paint-order="fill stroke markers" d=" M 399.12840136054507 229.82804232804224 C 399.12840136054507 215.44562696866723 410.78765266783677 203.78637566137556 425.17006802721176 203.78637566137556 C 439.55248338658674 203.78637566137556 451.21173469387844 215.44562696866723 451.21173469387844 229.82804232804224 C 451.21173469387844 244.21045768741726 439.55248338658674 255.8697089947089 425.17006802721176 255.8697089947089 C 410.78765266783677 255.8697089947089 399.12840136054507 244.21045768741726 399.12840136054507 229.82804232804224" stroke-opacity="1" stroke-linecap="round" stroke-miterlimit="10" stroke-width="0.002834467120181406" stroke-dasharray=""/><path fill="none" stroke="rgb(0,0,0)" paint-order="fill stroke markers" d=" M 460.0974826308486 236.1089464961262 C 460.0974826308486 221.47214828005477 471.9629519884733 209.60667892243006 486.59975020454476 209.60667892243006 C 501.2365484206162 209.60667892243006 513.1020177782409 221.47214828005477 513.1020177782409 236.1089464961262 C 513.1020177782409 250.74574471219765 501.2365484206162 262.6112140698224 486.59975020454476 262.6112140698224 C 471.9629519884733 262.6112140698224 460.0974826308486 250.74574471219765 460.0974826308486 236.1089464961262" stroke-opacity="1" stroke-linecap="round" stroke-miterlimit="10" stroke-width="0.002834467120181406" stroke-dasharray=""/><path fill="none" stroke="rgb(0,0,0)" paint-order="fill stroke markers" d=" M 517.0804358023481 261.5550948167455 C 517.0804358023481 246.66391374397764 529.152123210306 234.59222633601988 544.0433042830738 234.59222633601988 C 558.9344853558416 234.59222633601988 571.0061727637994 246.66391374397764 571.0061727637994 261.5550948167455 C 571.0061727637994 276.44627588951334 558.9344853558416 288.51796329747117 544.0433042830738 288.51796329747117 C 529.152123210306 288.51796329747117 517.0804358023481 276.44627588951334 517.0804358023481 261.5550948167455" stroke-opacity="1" stroke-linecap="round" stroke-miterlimit="10" stroke-width="0.002834467120181406" stroke-dasharray=""/><path fill="none" stroke="rgb(0,0,0)" paint-order="fill stroke markers" d=" M 564.151549202029 304.2697945728744 C 564.151549202029 289.1242306434101 576.4294546603197 276.84632518511927 591.575018589784 276.84632518511927 C 606.7205825192483 276.84632518511927 618.9984879775392 289.1242306434101 618.9984879775392 304.2697945728744 C 618.9984879775392 319.4153585023387 606.7205825192483 331.6932639606295 591.575018589784 331.6932639606295 C 576.4294546603197 331.6932639606295 564.151549202029 319.4153585023387 564.151549202029 304.2697945728744" stroke-opacity="1" stroke-linecap="round" stroke-miterlimit="10" stroke-width="0.002834467120181406" stroke-dasharray=""/><path fill="none" stroke="rgb(0,0,0)" paint-order="fill stroke markers" d=" M 596.1865645142981 360.5433562878947 C 596.1865645142981 345.14340950173397 608.6706880229219 332.65928599311013 624.0706348090827 332.65928599311013 C 639.4705815952434 332.65928599311013 651.9547051038672 345.14340950173397 651.9547051038672 360.5433562878947 C 651.9547051038672 375.94330307405545 639.4705815952434 388.42742658267935 624.0706348090827 388.42742658267935 C 608.6706880229219 388.42742658267935 596.1865645142981 375.94330307405545 596.1865645142981 360.5433562878947" stroke-opacity="1" stroke-linecap="round" stroke-miterlimit="10" stroke-width="0.002834467120181406" stroke-dasharray=""/><path fill="none" stroke="rgb(0,0,0)" paint-order="fill stroke markers" d=" M 155.8956916099773 425.17006802721085 C 155.8956916099773 276.453936420068 276.453936420068 155.8956916099773 425.17006802721085 155.8956916099773 C 573.8861996343537 155.8956916099773 694.4444444444443 276.453936420068 694.4444444444443 425.17006802721085 C 694.4444444444443 573.8861996343537 573.8861996343537 694.4444444444443 425.17006802721085 694.4444444444443 C 276.453936420068 694.4444444444443 155.8956916099773 573.8861996343537 155.8956916099773 425.17006802721085" stroke-opacity="1" stroke-linecap="round" stroke-miterlimit="10" stroke-width="0.002834467120181406" stroke-dasharray=""/><path fill="none" stroke="rgb(0,0,0)" paint-order="fill stroke markers" d=" M 678.1462585034012 425.17006802721085 C 678.1462585034012 423.6046350629251 679.4152926592969 422.33560090702946 680.9807256235827 422.33560090702946 C 682.5461585878684 422.33560090702946 683.815192743764 423.6046350629251 683.815192743764 425.17006802721085 C 683.815192743764 426.73550099149656 682.5461585878684 428.0045351473923 680.9807256235827 428.0045351473923 C 679.4152926592969 428.0045351473923 678.1462585034012 426.73550099149656 678.1462585034012 425.17006802721085" stroke-opacity="1" stroke-linecap="round" stroke-miterlimit="10" stroke-width="0.002834467120181406" stroke-dasharray=""/><path fill="none" stroke="rgb(0,0,0)" paint-order="fill stroke markers" d=" M 662.7189881687307 512.6624658025555 C 662.7189881687307 511.0970328382698 663.9880223246264 509.82799868237413 665.5534552889121 509.82799868237413 C 667.1188882531978 509.82799868237413 668.3879224090934 511.0970328382698 668.3879224090934 512.6624658025555 C 668.3879224090934 514.2278987668412 667.1188882531978 515.496932922737 665.5534552889121 515.496932922737 C 663.9880223246264 515.496932922737 662.7189881687307 514.2278987668412 662.7189881687307 512.6624658025555" stroke-opacity="1" stroke-linecap="round" stroke-miterlimit="10" stroke-width="0.002834467120181406" stroke-dasharray=""/><path fill="none" stroke="rgb(0,0,0)" paint-order="fill stroke markers" d=" M 618.2979336493416 589.6019891559245 C 618.2979336493416 588.0365561916387 619.5669678052374 586.767522035743 621.1324007695231 586.767522035743 C 622.6978337338088 586.767522035743 623.9668678897044 588.0365561916387 623.9668678897044 589.6019891559245 C 623.9668678897044 591.1674221202102 622.6978337338088 592.4364562761058 621.1324007695231 592.4364562761058 C 619.5669678052374 592.4364562761058 618.2979336493416 591.1674221202102 618.2979336493416 589.6019891559245" stroke-opacity="1" stroke-linecap="round" stroke-miterlimit="10" stroke-width="0.002834467120181406" stroke-dasharray=""/><path fill="none" stroke="rgb(0,0,0)" paint-order="fill stroke markers" d=" M 550.2409297052154 646.7085960644715 C 550.2409297052154 645.1431631001858 551.5099638611111 643.8741289442901 553.0753968253969 643.8741289442901 C 554.6408297896826 643.8741289442901 555.9098639455782 645.1431631001858 555.9098639455782 646.7085960644715 C 555.9098639455782 648.2740290287572 554.6408297896826 649.5430631846529 553.0753968253969 649.5430631846529 C 551.5099638611111 649.5430631846529 550.2409297052154 648.2740290287572 550.2409297052154 646.7085960644715" stroke-opacity="1" stroke-linecap="round" stroke-miterlimit="10" stroke-width="0.002834467120181406" stroke-dasharray=""/><path fill="none" stroke="rgb(0,0,0)" paint-order="fill stroke markers" d=" M 466.75665542641855 677.0943869312691 C 466.75665542641855 675.5289539669834 468.0256895823142 674.2599198110877 469.59112254659993 674.2599198110877 C 471.15655551088565 674.2599198110877 472.4255896667814 675.5289539669834 472.4255896667814 677.0943869312691 C 472.4255896667814 678.6598198955548 471.15655551088565 679.9288540514505 469.59112254659993 679.9288540514505 C 468.0256895823142 679.9288540514505 466.75665542641855 678.6598198955548 466.75665542641855 677.0943869312691" stroke-opacity="1" stroke-linecap="round" stroke-miterlimit="10" stroke-width="0.002834467120181406" stroke-dasharray=""/><path fill="none" stroke="rgb(0,0,0)" paint-order="fill stroke markers" d=" M 377.9145463876404 677.0943869312691 C 377.9145463876404 675.5289539669834 379.1835805435361 674.2599198110877 380.7490135078218 674.2599198110877 C 382.31444647210753 674.2599198110877 383.58348062800326 675.5289539669834 383.58348062800326 677.0943869312691 C 383.58348062800326 678.6598198955548 382.31444647210753 679.9288540514505 380.7490135078218 679.9288540514505 C 379.1835805435361 679.9288540514505 377.9145463876404 678.6598198955548 377.9145463876404 677.0943869312691" stroke-opacity="1" stroke-linecap="round" stroke-miterlimit="10" stroke-width="0.002834467120181406" stroke-dasharray=""/><path fill="none" stroke="rgb(0,0,0)" paint-order="fill stroke markers" d=" M 294.43027210884355 646.7085960644716 C 294.43027210884355 645.1431631001859 295.6993062647392 643.8741289442902 297.26473922902494 643.8741289442902 C 298.83017219331066 643.8741289442902 300.0992063492064 645.1431631001859 300.0992063492064 646.7085960644716 C 300.0992063492064 648.2740290287574 298.83017219331066 649.543063184653 297.26473922902494 649.543063184653 C 295.6993062647392 649.543063184653 294.43027210884355 648.2740290287574 294.43027210884355 646.7085960644716" stroke-opacity="1" stroke-linecap="round" stroke-miterlimit="10" stroke-width="0.002834467120181406" stroke-dasharray=""/><path fill="none" stroke="rgb(0,0,0)" paint-order="fill stroke markers" d=" M 226.37326816471722 589.6019891559245 C 226.37326816471722 588.0365561916387 227.6423023206129 586.767522035743 229.20773528489863 586.767522035743 C 230.77316824918435 586.767522035743 232.04220240508002 588.0365561916387 232.04220240508002 589.6019891559245 C 232.04220240508002 591.1674221202102 230.77316824918435 592.4364562761058 229.20773528489863 592.4364562761058 C 227.6423023206129 592.4364562761058 226.37326816471722 591.1674221202102 226.37326816471722 589.6019891559245" stroke-opacity="1" stroke-linecap="round" stroke-miterlimit="10" stroke-width="0.002834467120181406" stroke-dasharray=""/><path fill="none" stroke="rgb(0,0,0)" paint-order="fill stroke markers" d=" M 181.95221364532813 512.6624658025555 C 181.95221364532813 511.0970328382698 183.22124780122383 509.82799868237413 184.78668076550954 509.82799868237413 C 186.35211372979526 509.82799868237413 187.62114788569093 511.0970328382698 187.62114788569093 512.6624658025555 C 187.62114788569093 514.2278987668412 186.35211372979526 515.496932922737 184.78668076550954 515.496932922737 C 183.22124780122383 515.496932922737 181.95221364532813 514.2278987668412 181.95221364532813 512.6624658025555" stroke-opacity="1" stroke-linecap="round" stroke-miterlimit="10" stroke-width="0.002834467120181406" stroke-dasharray=""/><path fill="none" stroke="rgb(0,0,0)" paint-order="fill stroke markers" d=" M 166.52494331065756 425.1700680272109 C 166.52494331065756 423.6046350629252 167.79397746655326 422.3356009070295 169.35941043083898 422.3356009070295 C 170.9248433951247 422.3356009070295 172.19387755102036 423.6046350629252 172.19387755102036 425.1700680272109 C 172.19387755102036 426.7355009914966 170.9248433951247 428.00453514739235 169.35941043083898 428.00453514739235 C 167.79397746655326 428.00453514739235 166.52494331065756 426.7355009914966 166.52494331065756 425.1700680272109" stroke-opacity="1" stroke-linecap="round" stroke-miterlimit="10" stroke-width="0.002834467120181406" stroke-dasharray=""/><path fill="none" stroke="rgb(0,0,0)" paint-order="fill stroke markers" d=" M 181.9522136453281 337.6776702518662 C 181.9522136453281 336.11223728758046 183.2212478012238 334.8432031316848 184.78668076550952 334.8432031316848 C 186.35211372979524 334.8432031316848 187.6211478856909 336.11223728758046 187.6211478856909 337.6776702518662 C 187.6211478856909 339.2431032161519 186.35211372979524 340.5121373720476 184.78668076550952 340.5121373720476 C 183.2212478012238 340.5121373720476 181.9522136453281 339.2431032161519 181.9522136453281 337.6776702518662" stroke-opacity="1" stroke-linecap="round" stroke-miterlimit="10" stroke-width="0.002834467120181406" stroke-dasharray=""/><path fill="none" stroke="rgb(0,0,0)" paint-order="fill stroke markers" d=" M 226.37326816471716 260.73814689849723 C 226.37326816471716 259.1727139342115 227.64230232061286 257.90367977831585 229.20773528489858 257.90367977831585 C 230.7731682491843 257.90367977831585 232.04220240507996 259.1727139342115 232.04220240507996 260.73814689849723 C 232.04220240507996 262.30357986278295 230.7731682491843 263.5726140186787 229.20773528489858 263.5726140186787 C 227.64230232061286 263.5726140186787 226.37326816471716 262.30357986278295 226.37326816471716 260.73814689849723" stroke-opacity="1" stroke-linecap="round" stroke-miterlimit="10" stroke-width="0.002834467120181406" stroke-dasharray=""/><path fill="none" stroke="rgb(0,0,0)" paint-order="fill stroke markers" d=" M 294.43027210884344 203.6315399899502 C 294.43027210884344 202.06610702566448 295.6993062647391 200.79707286976878 297.2647392290248 200.79707286976878 C 298.83017219331055 200.79707286976878 300.09920634920627 202.06610702566448 300.09920634920627 203.6315399899502 C 300.09920634920627 205.19697295423592 298.83017219331055 206.46600711013159 297.2647392290248 206.46600711013159 C 295.6993062647391 206.46600711013159 294.43027210884344 205.19697295423592 294.43027210884344 203.6315399899502" stroke-opacity="1" stroke-linecap="round" stroke-miterlimit="10" stroke-width="0.002834467120181406" stroke-dasharray=""/><path fill="none" stroke="rgb(0,0,0)" paint-order="fill stroke markers" d=" M 377.91454638764014 173.24574912315256 C 377.91454638764014 171.68031615886684 379.1835805435358 170.41128200297115 380.74901350782153 170.41128200297115 C 382.31444647210725 170.41128200297115 383.583480628003 171.68031615886684 383.583480628003 173.24574912315256 C 383.583480628003 174.81118208743828 382.31444647210725 176.08021624333395 380.74901350782153 176.08021624333395 C 379.1835805435358 176.08021624333395 377.91454638764014 174.81118208743828 377.91454638764014 173.24574912315256" stroke-opacity="1" stroke-linecap="round" stroke-miterlimit="10" stroke-width="0.002834467120181406" stroke-dasharray=""/><path fill="none" stroke="rgb(0,0,0)" paint-order="fill stroke markers" d=" M 466.7566554264182 173.24574912315248 C 466.7566554264182 171.68031615886676 468.0256895823139 170.41128200297106 469.5911225465996 170.41128200297106 C 471.1565555108853 170.41128200297106 472.42558966678104 171.68031615886676 472.42558966678104 173.24574912315248 C 472.42558966678104 174.8111820874382 471.1565555108853 176.08021624333387 469.5911225465996 176.08021624333387 C 468.0256895823139 176.08021624333387 466.7566554264182 174.8111820874382 466.7566554264182 173.24574912315248" stroke-opacity="1" stroke-linecap="round" stroke-miterlimit="10" stroke-width="0.002834467120181406" stroke-dasharray=""/><path fill="none" stroke="rgb(0,0,0)" paint-order="fill stroke markers" d=" M 550.240929705215 203.6315399899499 C 550.240929705215 202.0661070256642 551.5099638611107 200.7970728697685 553.0753968253964 200.7970728697685 C 554.6408297896821 200.7970728697685 555.9098639455777 202.0661070256642 555.9098639455777 203.6315399899499 C 555.9098639455777 205.19697295423563 554.6408297896821 206.4660071101313 553.0753968253964 206.4660071101313 C 551.5099638611107 206.4660071101313 550.240929705215 205.19697295423563 550.240929705215 203.6315399899499" stroke-opacity="1" stroke-linecap="round" stroke-miterlimit="10" stroke-width="0.002834467120181406" stroke-dasharray=""/><path fill="none" stroke="rgb(0,0,0)" paint-order="fill stroke markers" d=" M 618.2979336493413 260.7381468984968 C 618.2979336493413 259.17271393421106 619.566967805237 257.9036797783154 621.1324007695227 257.9036797783154 C 622.6978337338085 257.9036797783154 623.9668678897041 259.17271393421106 623.9668678897041 260.7381468984968 C 623.9668678897041 262.3035798627825 622.6978337338085 263.5726140186782 621.1324007695227 263.5726140186782 C 619.566967805237 263.5726140186782 618.2979336493413 262.3035798627825 618.2979336493413 260.7381468984968" stroke-opacity="1" stroke-linecap="round" stroke-miterlimit="10" stroke-width="0.002834467120181406" stroke-dasharray=""/><path fill="none" stroke="rgb(0,0,0)" paint-order="fill stroke markers" d=" M 662.7189881687304 337.6776702518656 C 662.7189881687304 336.1122372875799 663.9880223246262 334.8432031316842 665.5534552889119 334.8432031316842 C 667.1188882531976 334.8432031316842 668.3879224090932 336.1122372875799 668.3879224090932 337.6776702518656 C 668.3879224090932 339.2431032161513 667.1188882531976 340.51213737204705 665.5534552889119 340.51213737204705 C 663.9880223246262 340.51213737204705 662.7189881687304 339.2431032161513 662.7189881687304 337.6776702518656" stroke-opacity="1" stroke-linecap="round" stroke-miterlimit="10" stroke-width="0.002834467120181406" stroke-dasharray=""/><path fill="none" stroke="rgb(0,0,0)" paint-order="fill stroke markers" d=" M 678.1462585034012 425.1700680272101 C 678.1462585034012 423.6046350629244 679.4152926592969 422.3356009070287 680.9807256235827 422.3356009070287 C 682.5461585878684 422.3356009070287 683.815192743764 423.6046350629244 683.815192743764 425.1700680272101 C 683.815192743764 426.7355009914958 682.5461585878684 428.00453514739155 680.9807256235827 428.00453514739155 C 679.4152926592969 428.00453514739155 678.1462585034012 426.7355009914958 678.1462585034012 425.1700680272101" stroke-opacity="1" stroke-linecap="round" stroke-miterlimit="10" stroke-width="0.002834467120181406" stroke-dasharray=""/></g></svg>