<svg version="1.1" xmlns="http://www.w3.org/2000/svg" xmlns:xlink="http://www.w3.org/1999/xlink" width="1440" height="787" viewBox="0 0 1440 787"><defs/><g><rect fill="rgb(255,255,255)" stroke="none" x="0" y="0" width="1440" height="787" transform="matrix(1 0 0 1 0 0)" fill-opacity="1"/><g><path fill="#FFFFFF" stroke="rgb(0,0,0)" paint-order="fill stroke markers" d=" M 717.1655328798186 393.5 C 717.1655328798186 391.9345670357143 718.4345670357143 390.6655328798186 720 390.6655328798186 C 721.5654329642857 390.6655328798186 722.8344671201814 391.9345670357143 722.8344671201814 393.5 C 722.8344671201814 395.0654329642857 721.5654329642857 396.3344671201814 720 396.3344671201814 C 718.4345670357143 396.3344671201814 717.1655328798186 395.0654329642857 717.1655328798186 393.5" stroke-opacity="1" stroke-linecap="round" stroke-miterlimit="10" stroke-width="0.002834467120181406" stroke-dasharray=""/><g><path fill="#FFFFFF" stroke="rgb(0,0,0)" paint-order="fill stroke markers" d=" M 725.6689342403628 394.20861678004536 L 726.28261437343 393.85430839002265 L 726.28261437343 393.14569160997735 L 725.6689342403628 392.79138321995464 L 725.0552541072956 393.14569160997735 L 725.0552541072956 393.85430839002265 L 725.6689342403628 394.20861678004536 L 725.6689342403628 394.20861678004536 L 725.6689342403628 394.20861678004536 Z" stroke-opacity="1" stroke-linecap="round" stroke-miterlimit="10" stroke-width="0.002834467120181406" stroke-dasharray=""/></g><g><path fill="#FFFFFF" stroke="rgb(0,0,0)" paint-order="fill stroke markers" d=" M 727.7686369826696 397.1018725328771 L 728.7200227610642 396.64808479442587 L 728.8027239408368 395.5972666723114 L 727.934039342215 395.000236288648 L 726.9826535638203 395.45402402709925 L 726.8999523840478 396.50484214921374 L 727.7686369826696 397.1018725328771 L 727.7686369826696 397.1018725328771 L 727.7686369826696 397.1018725328771 Z" stroke-opacity="1" stroke-linecap="round" stroke-miterlimit="10" stroke-width="0.002834467120181406" stroke-dasharray=""/></g><g><path fill="#FFFFFF" stroke="rgb(0,0,0)" paint-order="fill stroke markers" d=" M 728.5522972969687 401.25495949032756 L 729.8588600395509 400.75341704393304 L 730.0777929111881 399.37112929402133 L 728.9901630402431 398.49038399050414 L 727.683600297661 398.99192643689867 L 727.4646674260238 400.3742141868104 L 728.5522972969687 401.25495949032756 L 728.5522972969687 401.25495949032756 L 728.5522972969687 401.25495949032756 Z" stroke-opacity="1" stroke-linecap="round" stroke-miterlimit="10" stroke-width="0.002834467120181406" stroke-dasharray=""/></g><g><path fill="#FFFFFF" stroke="rgb(0,0,0)" paint-order="fill stroke markers" d=" M 727.4855947579699 406.0604683761228 L 729.1587053001418 405.5648704549682 L 729.5660601814451 403.8681152615305 L 728.3003045205764 402.6669579892474 L 726.6271939784046 403.16255591040203 L 726.2198390971013 404.85931110383973 L 727.4855947579699 406.0604683761228 L 727.4855947579699 406.0604683761228 L 727.4855947579699 406.0604683761228 Z" stroke-opacity="1" stroke-linecap="round" stroke-miterlimit="10" stroke-width="0.002834467120181406" stroke-dasharray=""/></g><g><path fill="#FFFFFF" stroke="rgb(0,0,0)" paint-order="fill stroke markers" d=" M 724.3028514310287 410.71902918887554 L 726.3475902505899 410.2844065358764 L 726.993565401813 408.29629944753265 L 725.594801733475 406.7428150121881 L 723.5500629139138 407.1774376651872 L 722.9040877626907 409.165544753531 L 724.3028514310287 410.71902918887554 L 724.3028514310287 410.71902918887554 L 724.3028514310287 410.71902918887554 Z" stroke-opacity="1" stroke-linecap="round" stroke-miterlimit="10" stroke-width="0.002834467120181406" stroke-dasharray=""/></g><g><path fill="#FFFFFF" stroke="rgb(0,0,0)" paint-order="fill stroke markers" d=" M 719.0678328381838 414.35164108064595 L 721.4828638125124 414.03369622112467 L 722.4150309743286 411.7832456166692 L 720.9321671618162 409.850739871735 L 718.5171361874876 410.1686847312563 L 717.5849690256714 412.41913533571176 L 719.0678328381838 414.35164108064595 L 719.0678328381838 414.35164108064595 L 719.0678328381838 414.35164108064595 Z" stroke-opacity="1" stroke-linecap="round" stroke-miterlimit="10" stroke-width="0.002834467120181406" stroke-dasharray=""/></g><g><path fill="#FFFFFF" stroke="rgb(0,0,0)" paint-order="fill stroke markers" d=" M 712.1899653888261 416.1288197595411 L 714.9674745469267 415.98325667262674 L 716.2301677948559 413.5050816390104 L 714.7153518846844 411.1724696923085 L 711.9378427265838 411.31803277922285 L 710.6751494786546 413.79620781283916 L 712.1899653888261 416.1288197595411 L 712.1899653888261 416.1288197595411 L 712.1899653888261 416.1288197595411 Z" stroke-opacity="1" stroke-linecap="round" stroke-miterlimit="10" stroke-width="0.002834467120181406" stroke-dasharray=""/></g><g><path fill="#FFFFFF" stroke="rgb(0,0,0)" paint-order="fill stroke markers" d=" M 704.3922051224337 415.399656240428 L 707.5179051978693 415.48150557745214 L 709.1516388407329 412.8154945760261 L 707.6596724081609 410.0676342375759 L 704.5339723327253 409.9857849005517 L 702.9002386898617 412.6517959019778 L 704.3922051224337 415.399656240428 L 704.3922051224337 415.399656240428 L 704.3922051224337 415.399656240428 Z" stroke-opacity="1" stroke-linecap="round" stroke-miterlimit="10" stroke-width="0.002834467120181406" stroke-dasharray=""/></g><g><path fill="#FFFFFF" stroke="rgb(0,0,0)" paint-order="fill stroke markers" d=" M 696.6329507320145 411.80342591958424 L 700.0861517575987 412.16637197259695 L 702.1270727725031 409.3572851865728 L 700.7147927618232 406.185252347536 L 697.261591736239 405.8223062945233 L 695.2206707213346 408.6313930805474 L 696.6329507320145 411.80342591958424 L 696.6329507320145 411.80342591958424 L 696.6329507320145 411.80342591958424 Z" stroke-opacity="1" stroke-linecap="round" stroke-miterlimit="10" stroke-width="0.002834467120181406" stroke-dasharray=""/></g><g><path fill="#FFFFFF" stroke="rgb(0,0,0)" paint-order="fill stroke markers" d=" M 689.9903911202977 405.3480947845003 L 693.7441367371492 406.04381041204346 L 696.2235169528371 403.14082916227716 L 694.9491515516737 399.5421322849677 L 691.1954059348221 398.8464166574245 L 688.7160257191342 401.7493979071908 L 689.9903911202977 405.3480947845003 L 689.9903911202977 405.3480947845003 L 689.9903911202977 405.3480947845003 Z" stroke-opacity="1" stroke-linecap="round" stroke-miterlimit="10" stroke-width="0.002834467120181406" stroke-dasharray=""/></g><g><path fill="#FFFFFF" stroke="rgb(0,0,0)" paint-order="fill stroke markers" d=" M 685.52278037169 396.4437729162918 L 689.5440489583173 397.5212685866272 L 692.487821874609 394.5774956703354 L 691.4103262042736 390.5562270837082 L 687.3890576176465 389.4787314133728 L 684.4452847013546 392.4225043296646 L 685.52278037169 396.4437729162918 L 685.52278037169 396.4437729162918 L 685.52278037169 396.4437729162918 Z" stroke-opacity="1" stroke-linecap="round" stroke-miterlimit="10" stroke-width="0.002834467120181406" stroke-dasharray=""/></g><g><path fill="#FFFFFF" stroke="rgb(0,0,0)" paint-order="fill stroke markers" d=" M 684.1217019446274 385.88445644015525 L 688.3716711106379 387.3894494545224 L 691.8000178766032 384.4613646986403 L 690.978395476558 380.0282869283911 L 686.7284263105475 378.52329391402395 L 683.3000795445822 381.45137866990603 L 684.1217019446274 385.88445644015525 L 684.1217019446274 385.88445644015525 L 684.1217019446274 385.88445644015525 Z" stroke-opacity="1" stroke-linecap="round" stroke-miterlimit="10" stroke-width="0.002834467120181406" stroke-dasharray=""/></g><g><path fill="#FFFFFF" stroke="rgb(0,0,0)" paint-order="fill stroke markers" d=" M 686.3769510203439 374.7776735469482 L 690.8113234585892 376.7519833577966 L 694.7383121288474 373.89885908185875 L 694.2309283608603 369.07142499507256 L 689.796555922615 367.0971151842242 L 685.8695672523568 369.95023946016204 L 686.3769510203439 374.7776735469482 L 686.3769510203439 374.7776735469482 L 686.3769510203439 374.7776735469482 Z" stroke-opacity="1" stroke-linecap="round" stroke-miterlimit="10" stroke-width="0.002834467120181406" stroke-dasharray=""/></g><g><path fill="#FFFFFF" stroke="rgb(0,0,0)" paint-order="fill stroke markers" d=" M 692.4709896219064 364.42817522712045 L 697.0403777767797 366.9091505696693 L 701.4736595270264 364.1924320190717 L 701.3375531223998 358.9947381259254 L 696.7681649675264 356.51376278337654 L 692.3348832172798 359.2304813339741 L 692.4709896219064 364.42817522712045 L 692.4709896219064 364.42817522712045 L 692.4709896219064 364.42817522712045 Z" stroke-opacity="1" stroke-linecap="round" stroke-miterlimit="10" stroke-width="0.002834467120181406" stroke-dasharray=""/></g><g><path fill="#FFFFFF" stroke="rgb(0,0,0)" paint-order="fill stroke markers" d=" M 702.1180339999055 356.1878086362092 L 706.768400492375 359.2077919475701 L 711.7089660052534 356.6904480838641 L 711.9991650256623 351.15312090879706 L 707.3487985331927 348.13313759743613 L 702.4082330203144 350.65048146114214 L 702.1180339999055 356.1878086362091 L 702.1180339999055 356.1878086362092 L 702.1180339999055 356.1878086362092 Z" stroke-opacity="1" stroke-linecap="round" stroke-miterlimit="10" stroke-width="0.002834467120181406" stroke-dasharray=""/></g><g><path fill="#FFFFFF" stroke="rgb(0,0,0)" paint-order="fill stroke markers" d=" M 714.5580012655895 351.28844673436424 L 719.2311515215213 354.87428104462145 L 724.6731502559318 352.6201313624114 L 725.4419987344105 346.7801473699442 L 720.7688484784787 343.194313059687 L 715.3268497440682 345.448462741897 L 714.5580012655895 351.28844673436424 L 714.5580012655895 351.28844673436424 L 714.5580012655895 351.28844673436424 Z" stroke-opacity="1" stroke-linecap="round" stroke-miterlimit="10" stroke-width="0.002834467120181406" stroke-dasharray=""/></g><g><path fill="#FFFFFF" stroke="rgb(0,0,0)" paint-order="fill stroke markers" d=" M 728.6092907334886 350.6777188694029 L 733.2434137948555 354.8503020156316 L 739.1740383295759 352.92332529333885 L 740.4705398029292 346.8237654248174 L 735.8364167415623 342.6511822785887 L 729.905792206842 344.57815900088144 L 728.6092907334886 350.6777188694029 L 728.6092907334886 350.6777188694029 L 728.6092907334886 350.6777188694029 Z" stroke-opacity="1" stroke-linecap="round" stroke-miterlimit="10" stroke-width="0.002834467120181406" stroke-dasharray=""/></g><g><path fill="#FFFFFF" stroke="rgb(0,0,0)" paint-order="fill stroke markers" d=" M 742.7774031231536 354.8778935380149 L 747.3076561856222 359.65178417773757 L 753.7070932857451 358.1154152599288 L 755.5762773233994 351.80515570239737 L 751.0460242609307 347.0312650626747 L 744.6465871608078 348.5676339804835 L 742.7774031231536 354.8778935380149 L 742.7774031231536 354.8778935380149 L 742.7774031231536 354.8778935380149 Z" stroke-opacity="1" stroke-linecap="round" stroke-miterlimit="10" stroke-width="0.002834467120181406" stroke-dasharray=""/></g><g><path fill="#FFFFFF" stroke="rgb(0,0,0)" paint-order="fill stroke markers" d=" M 755.4095088974746 363.8864610273618 L 759.7686407161482 369.2695405152033 L 766.6100902125467 368.18596136570767 L 769.0924078902715 361.71930272837056 L 764.7332760715979 356.3362232405291 L 757.8918265751994 357.4198023900247 L 755.4095088974746 363.8864610273618 L 755.4095088974746 363.8864610273618 L 755.4095088974746 363.8864610273618 Z" stroke-opacity="1" stroke-linecap="round" stroke-miterlimit="10" stroke-width="0.002834467120181406" stroke-dasharray=""/></g><g><path fill="#FFFFFF" stroke="rgb(0,0,0)" paint-order="fill stroke markers" d=" M 764.8790797888279 377.1328812039433 L 768.9980877299001 383.1260749473769 L 776.2478497320517 382.5555063037353 L 779.378603793131 375.99174391666014 L 775.2595958520587 369.9985501732266 L 768.0098338499072 370.5691188168682 L 764.8790797888279 377.1328812039433 L 764.8790797888279 377.1328812039433 L 764.8790797888279 377.1328812039433 Z" stroke-opacity="1" stroke-linecap="round" stroke-miterlimit="10" stroke-width="0.002834467120181406" stroke-dasharray=""/></g><g><path fill="#FFFFFF" stroke="rgb(0,0,0)" paint-order="fill stroke markers" d=" M 769.780328798186 393.5 L 773.5891439909298 400.0970614304724 L 781.2067743764172 400.0970614304724 L 785.015589569161 393.5 L 781.2067743764172 386.9029385695276 L 773.5891439909298 386.9029385695276 L 769.780328798186 393.5 L 769.780328798186 393.5 L 769.780328798186 393.5 Z" stroke-opacity="1" stroke-linecap="round" stroke-miterlimit="10" stroke-width="0.002834467120181406" stroke-dasharray=""/></g><g><path fill="#FFFFFF" stroke="rgb(0,0,0)" paint-order="fill stroke markers" d=" M 769.1100308719946 411.41142608106406 L 772.5382256355881 418.5987858691037 L 780.4767591799659 419.22356200873077 L 784.9870979607502 412.66097836031815 L 781.5589031971567 405.4736185722785 L 773.6203696527789 404.84884243265145 L 769.1100308719946 411.41142608106406 L 769.1100308719946 411.41142608106406 L 769.1100308719946 411.41142608106406 Z" stroke-opacity="1" stroke-linecap="round" stroke-miterlimit="10" stroke-width="0.002834467120181406" stroke-dasharray=""/></g><g><path fill="#FFFFFF" stroke="rgb(0,0,0)" paint-order="fill stroke markers" d=" M 762.4146505171697 428.97848899860304 L 765.3921620027271 436.73517160962894 L 773.5984019357472 438.03491232858914 L 778.8271303832099 431.5779704365236 L 775.8496188976525 423.8212878254977 L 767.6433789646323 422.52154710653747 L 762.4146505171697 428.97848899860304 L 762.4146505171697 428.97848899860304 L 762.4146505171697 428.97848899860304 Z" stroke-opacity="1" stroke-linecap="round" stroke-miterlimit="10" stroke-width="0.002834467120181406" stroke-dasharray=""/></g><g><path fill="#FFFFFF" stroke="rgb(0,0,0)" paint-order="fill stroke markers" d=" M 749.8836354134327 444.1931413879579 L 752.3414992153012 452.49075052350054 L 760.7563714182891 454.51098259981165 L 766.7133798194087 448.23360554058013 L 764.2555160175402 439.9359964050375 L 755.8406438145523 437.91576432872637 L 749.8836354134327 444.1931413879579 L 749.8836354134327 444.1931413879579 L 749.8836354134327 444.1931413879579 Z" stroke-opacity="1" stroke-linecap="round" stroke-miterlimit="10" stroke-width="0.002834467120181406" stroke-dasharray=""/></g><g><path fill="#FFFFFF" stroke="rgb(0,0,0)" paint-order="fill stroke markers" d=" M 732.375004893209 455.1471705847894 L 734.2460922467985 463.9499444859511 L 742.8050617457699 466.73092225562357 L 749.4929438911518 460.70912612413446 L 747.6218565375623 451.90635222297277 L 739.0628870385909 449.12537445330025 L 732.375004893209 455.1471705847894 L 732.375004893209 455.1471705847894 L 732.375004893209 455.1471705847894 Z" stroke-opacity="1" stroke-linecap="round" stroke-miterlimit="10" stroke-width="0.002834467120181406" stroke-dasharray=""/></g><g><path fill="#FFFFFF" stroke="rgb(0,0,0)" paint-order="fill stroke markers" d=" M 711.3664531356345 460.25408321689724 L 712.5862052330707 469.5190202275032 L 721.2197520974362 473.0951524301071 L 728.6335468643655 467.40634762210505 L 727.4137947669293 458.1414106114991 L 718.7802479025638 454.5652784088952 L 711.3664531356345 460.25408321689724 L 711.3664531356345 460.25408321689724 L 711.3664531356345 460.25408321689724 Z" stroke-opacity="1" stroke-linecap="round" stroke-miterlimit="10" stroke-width="0.002834467120181406" stroke-dasharray=""/></g><g><path fill="#FFFFFF" stroke="rgb(0,0,0)" paint-order="fill stroke markers" d=" M 688.8333595950553 458.4485511924837 L 689.340512515706 468.12560539300017 L 697.9746637474775 472.52492518037144 L 706.1016620585983 467.24719076722624 L 705.5945091379476 457.5701365667098 L 696.9603579061761 453.1708167793385 L 688.8333595950553 458.4485511924837 L 688.8333595950553 458.4485511924837 L 688.8333595950553 458.4485511924837 Z" stroke-opacity="1" stroke-linecap="round" stroke-miterlimit="10" stroke-width="0.002834467120181406" stroke-dasharray=""/></g><g><path fill="#FFFFFF" stroke="rgb(0,0,0)" paint-order="fill stroke markers" d=" M 667.0634672906548 449.3396221852757 L 666.8007610616227 459.3719683197473 L 675.3576745591175 464.6156516550574 L 684.1772942856447 459.8269888558959 L 684.4400005146769 449.7946427214243 L 675.883087017182 444.5509593861142 L 667.0634672906549 449.3396221852757 L 667.0634672906548 449.3396221852757 L 667.0634672906548 449.3396221852757 Z" stroke-opacity="1" stroke-linecap="round" stroke-miterlimit="10" stroke-width="0.002834467120181406" stroke-dasharray=""/></g><g><path fill="#FFFFFF" stroke="rgb(0,0,0)" paint-order="fill stroke markers" d=" M 648.4256152581404 433.2979597906362 L 647.3404806302556 443.62232612223 L 655.7390768374502 449.7242634423014 L 665.2228076725296 445.50183443077896 L 666.3079423004144 435.17746809918515 L 657.9093460932198 429.07553077911376 L 648.4256152581404 433.2979597906362 L 648.4256152581404 433.2979597906362 L 648.4256152581404 433.2979597906362 Z" stroke-opacity="1" stroke-linecap="round" stroke-miterlimit="10" stroke-width="0.002834467120181406" stroke-dasharray=""/></g><g><path fill="#FFFFFF" stroke="rgb(0,0,0)" paint-order="fill stroke markers" d=" M 635.1159086702993 411.4638357270335 L 633.1611253177359 422.01090287786207 L 641.3177617294922 428.9773284954912 L 651.4291814938118 425.3966869622916 L 653.3839648463752 414.849619811463 L 645.2273284346189 407.8831941938339 L 635.1159086702993 411.4638357270334 L 635.1159086702993 411.4638357270335 L 635.1159086702993 411.4638357270335 Z" stroke-opacity="1" stroke-linecap="round" stroke-miterlimit="10" stroke-width="0.002834467120181406" stroke-dasharray=""/></g><g><path fill="#FFFFFF" stroke="rgb(0,0,0)" paint-order="fill stroke markers" d=" M 628.9083450566611 385.67081671198997 L 626.0426650823649 396.3656799742963 L 633.8718483703749 404.1948632623064 L 644.5667116326813 401.32918328801014 L 647.4323916069775 390.6343200257038 L 639.6032083189675 382.8051367376937 L 628.9083450566611 385.67081671198997 L 628.9083450566611 385.67081671198997 L 628.9083450566611 385.67081671198997 Z" stroke-opacity="1" stroke-linecap="round" stroke-miterlimit="10" stroke-width="0.002834467120181406" stroke-dasharray=""/></g><g><path fill="#FFFFFF" stroke="rgb(0,0,0)" paint-order="fill stroke markers" d=" M 630.9376922988392 358.2892219463894 L 627.1264231524361 369.05191399941003 L 634.5415533102594 377.73391592736533 L 645.7679526144857 375.65322580229997 L 649.5792217608888 364.8905337492793 L 642.1640916030657 356.208531821324 L 630.9376922988392 358.2892219463894 L 630.9376922988392 358.2892219463894 L 630.9376922988392 358.2892219463894 Z" stroke-opacity="1" stroke-linecap="round" stroke-miterlimit="10" stroke-width="0.002834467120181406" stroke-dasharray=""/></g><g><path fill="#FFFFFF" stroke="rgb(0,0,0)" paint-order="fill stroke markers" d=" M 641.5401388279134 332.00249320243427 L 636.7556800162225 342.7485636367222 L 643.6698205973273 352.2650617281509 L 655.368419990123 351.0354893852916 L 660.1528788018139 340.28941895100365 L 653.2387382207093 330.772920859575 L 641.5401388279134 332.00249320243427 L 641.5401388279134 332.00249320243427 L 641.5401388279134 332.00249320243427 Z" stroke-opacity="1" stroke-linecap="round" stroke-miterlimit="10" stroke-width="0.002834467120181406" stroke-dasharray=""/></g><g><path fill="#FFFFFF" stroke="rgb(0,0,0)" paint-order="fill stroke markers" d=" M 660.1720451519615 309.53761214862345 L 654.3943734428232 320.1787596915737 L 660.7210416858671 330.50294393788926 L 672.8253816380496 330.1859806412547 L 678.6030533471879 319.5448330983044 L 672.276385104144 309.22064885198887 L 660.1720451519615 309.53761214862345 L 660.1720451519615 309.53761214862345 L 660.1720451519615 309.53761214862345 Z" stroke-opacity="1" stroke-linecap="round" stroke-miterlimit="10" stroke-width="0.002834467120181406" stroke-dasharray=""/></g><g><path fill="#FFFFFF" stroke="rgb(0,0,0)" paint-order="fill stroke markers" d=" M 685.4194812997073 293.3766968075394 L 678.6365794853726 303.82144966442775 L 684.2905498885207 314.9179913754613 L 696.7274221060034 315.5697802296066 L 703.510323920338 305.12502737271825 L 697.85635351719 294.02848566168467 L 685.4194812997073 293.3766968075394 L 685.4194812997073 293.3766968075394 L 685.4194812997073 293.3766968075394 Z" stroke-opacity="1" stroke-linecap="round" stroke-miterlimit="10" stroke-width="0.002834467120181406" stroke-dasharray=""/></g><g><path fill="#FFFFFF" stroke="rgb(0,0,0)" paint-order="fill stroke markers" d=" M 715.1018852770022 285.48017711452303 L 707.3101099712553 295.6346163924499 L 712.2082246942531 307.45971138677044 L 724.8981147229978 309.1303671031641 L 732.6898900287447 298.9759278252372 L 727.7917753057469 287.15083283091667 L 715.1018852770022 285.48017711452303 L 715.1018852770022 285.48017711452303 L 715.1018852770022 285.48017711452303 Z" stroke-opacity="1" stroke-linecap="round" stroke-miterlimit="10" stroke-width="0.002834467120181406" stroke-dasharray=""/></g><g><path fill="#FFFFFF" stroke="rgb(0,0,0)" paint-order="fill stroke markers" d=" M 746.4630837373953 287.05202894783196 L 737.6674681280156 296.8205497192362 L 741.7294474687576 309.3220366645842 L 754.5870424188796 312.05500283852797 L 763.3826580282594 302.28648206712376 L 759.3206786875173 289.78499512177575 L 746.4630837373953 287.05202894783196 L 746.4630837373953 287.05202894783196 L 746.4630837373953 287.05202894783196 Z" stroke-opacity="1" stroke-linecap="round" stroke-miterlimit="10" stroke-width="0.002834467120181406" stroke-dasharray=""/></g><g><path fill="#FFFFFF" stroke="rgb(0,0,0)" paint-order="fill stroke markers" d=" M 776.4331520876073 298.37431022894907 L 766.6476400495217 307.66041442025426 L 769.7968861623383 320.7779685299274 L 782.7316443132405 324.6094184482954 L 792.5171563513261 315.3233142569903 L 789.3679102385095 302.2057601473171 L 776.4331520876073 298.37431022894907 L 776.4331520876073 298.37431022894907 L 776.4331520876073 298.37431022894907 Z" stroke-opacity="1" stroke-linecap="round" stroke-miterlimit="10" stroke-width="0.002834467120181406" stroke-dasharray=""/></g><g><path fill="#FFFFFF" stroke="rgb(0,0,0)" paint-order="fill stroke markers" d=" M 801.9362316786383 318.7319222212118 L 791.183840169676 327.43903718383086 L 793.3482271664948 341.1044388633377 L 806.2650056722755 346.06272558022545 L 817.0173971812377 337.3556106176064 L 814.853010184419 323.69020893809954 L 801.9362316786383 318.7319222212118 L 801.9362316786383 318.7319222212118 L 801.9362316786383 318.7319222212118 Z" stroke-opacity="1" stroke-linecap="round" stroke-miterlimit="10" stroke-width="0.002834467120181406" stroke-dasharray=""/></g><g><path fill="#FFFFFF" stroke="rgb(0,0,0)" paint-order="fill stroke markers" d=" M 820.2134244414136 346.4396873259583 L 808.5263316481893 354.4720036641515 L 809.6389752516853 368.6094810885663 L 822.4387116484055 374.71464217478797 L 834.1258044416298 366.68232583659477 L 833.0131608381338 352.54484841217993 L 820.2134244414136 346.4396873259583 L 820.2134244414136 346.4396873259583 L 820.2134244414136 346.4396873259583 Z" stroke-opacity="1" stroke-linecap="round" stroke-miterlimit="10" stroke-width="0.002834467120181406" stroke-dasharray=""/></g><g><path fill="#FFFFFF" stroke="rgb(0,0,0)" paint-order="fill stroke markers" d=" M 829.1269841269841 378.97335600907024 L 816.5465413991064 386.23667800453507 L 816.5465413991064 400.7633219954648 L 829.1269841269841 408.02664399092964 L 841.7074268548618 400.7633219954648 L 841.7074268548618 386.2366780045351 L 829.1269841269841 378.97335600907024 L 829.1269841269841 378.97335600907024 L 829.1269841269841 378.97335600907024 Z" stroke-opacity="1" stroke-linecap="round" stroke-miterlimit="10" stroke-width="0.002834467120181406" stroke-dasharray=""/></g><g><path fill="#FFFFFF" stroke="rgb(0,0,0)" paint-order="fill stroke markers" d=" M 827.4126417697839 413.1951010639784 L 813.9893079720991 419.59770285271435 L 812.8224568726177 434.4239518193555 L 825.0789395708211 442.8475989972608 L 838.5022733685059 436.44499720852485 L 839.6691244679873 421.61874824188374 L 827.4126417697839 413.1951010639784 L 827.4126417697839 413.1951010639784 L 827.4126417697839 413.1951010639784 Z" stroke-opacity="1" stroke-linecap="round" stroke-miterlimit="10" stroke-width="0.002834467120181406" stroke-dasharray=""/></g><g><path fill="#FFFFFF" stroke="rgb(0,0,0)" paint-order="fill stroke markers" d=" M 814.8510992980571 445.6535955785822 L 800.6442968185875 451.1070761033026 L 798.2637482523043 466.13726821943106 L 810.0900021654904 475.7139798108393 L 824.29680464496 470.26049928611894 L 826.6773532112433 455.23030716999045 L 814.8510992980571 445.6535955785822 L 814.8510992980571 445.6535955785822 L 814.8510992980571 445.6535955785822 Z" stroke-opacity="1" stroke-linecap="round" stroke-miterlimit="10" stroke-width="0.002834467120181406" stroke-dasharray=""/></g><g><path fill="#FFFFFF" stroke="rgb(0,0,0)" paint-order="fill stroke markers" d=" M 792.3371748648872 472.93004453331463 L 777.4150671359737 477.35017421589674 L 773.7819578646547 492.483163428435 L 785.0709563222492 503.1960229583911 L 799.9930640511627 498.775893275809 L 803.6261733224817 483.64290406327075 L 792.3371748648872 472.93004453331463 L 792.3371748648872 472.93004453331463 L 792.3371748648872 472.93004453331463 Z" stroke-opacity="1" stroke-linecap="round" stroke-miterlimit="10" stroke-width="0.002834467120181406" stroke-dasharray=""/></g><g><path fill="#FFFFFF" stroke="rgb(0,0,0)" paint-order="fill stroke markers" d=" M 761.8351025902308 491.995542698793 L 746.2742936074686 495.3030947529729 L 741.3583132193468 510.43292666257196 L 752.0031418139871 522.2552065179912 L 767.5639507967492 518.9476544638112 L 772.4799311848711 503.81782255421217 L 761.8351025902308 491.99554269879303 L 761.8351025902308 491.995542698793 L 761.8351025902308 491.995542698793 Z" stroke-opacity="1" stroke-linecap="round" stroke-miterlimit="10" stroke-width="0.002834467120181406" stroke-dasharray=""/></g><g><path fill="#FFFFFF" stroke="rgb(0,0,0)" paint-order="fill stroke markers" d=" M 726.2200972433917 500.54259723853625 L 710.1052541965084 502.66415657388734 L 703.8851569531167 517.6807996981629 L 713.7799027566085 530.5758834870874 L 729.8947458034918 528.4543241517363 L 736.1148430468835 513.4376810274607 L 726.2200972433917 500.5425972385363 L 726.2200972433917 500.54259723853625 L 726.2200972433917 500.54259723853625 Z" stroke-opacity="1" stroke-linecap="round" stroke-miterlimit="10" stroke-width="0.002834467120181406" stroke-dasharray=""/></g><g><path fill="#FFFFFF" stroke="rgb(0,0,0)" paint-order="fill stroke markers" d=" M 689.0183093437115 497.25496980385844 L 672.4417101007793 498.1237125582455 L 664.9057637739661 512.9138399881721 L 673.946416690085 526.8352246637118 L 690.5230159330172 525.9664819093248 L 698.0589622598304 511.17635447939807 L 689.0183093437115 497.25496980385844 L 689.0183093437115 497.25496980385844 L 689.0183093437115 497.25496980385844 Z" stroke-opacity="1" stroke-linecap="round" stroke-miterlimit="10" stroke-width="0.002834467120181406" stroke-dasharray=""/></g><g><path fill="#FFFFFF" stroke="rgb(0,0,0)" paint-order="fill stroke markers" d=" M 654.068455838759 481.9851498086059 L 637.1294636452513 481.54158668756565 L 628.2758306174946 495.98940268112943 L 636.3611897832458 510.88078179573347 L 653.3001819767534 511.3243449167737 L 662.1538150045101 496.87652892320995 L 654.068455838759 481.9851498086059 L 654.068455838759 481.9851498086059 L 654.068455838759 481.9851498086059 Z" stroke-opacity="1" stroke-linecap="round" stroke-miterlimit="10" stroke-width="0.002834467120181406" stroke-dasharray=""/></g><g><path fill="#FFFFFF" stroke="rgb(0,0,0)" paint-order="fill stroke markers" d=" M 625.1375048089895 455.8173494594901 L 607.9419731713863 454.01002625673306 L 597.7790195461479 467.9981318850981 L 604.811597558513 483.79356071622016 L 622.0071291961162 485.6008839189772 L 632.1700828213546 471.6127782906122 L 625.1375048089897 455.8173494594901 L 625.1375048089895 455.8173494594901 L 625.1375048089895 455.8173494594901 Z" stroke-opacity="1" stroke-linecap="round" stroke-miterlimit="10" stroke-width="0.002834467120181406" stroke-dasharray=""/></g><g><path fill="#FFFFFF" stroke="rgb(0,0,0)" paint-order="fill stroke markers" d=" M 605.5287898476956 421.00511758084485 L 588.1884011628898 417.79126650326134 L 576.7349301433196 431.20155807700763 L 582.6218478085552 447.82570072833744 L 599.962236493361 451.03955180592095 L 611.4157075129312 437.62926023217466 L 605.5287898476956 421.00511758084485 L 605.5287898476956 421.00511758084485 L 605.5287898476956 421.00511758084485 Z" stroke-opacity="1" stroke-linecap="round" stroke-miterlimit="10" stroke-width="0.002834467120181406" stroke-dasharray=""/></g><g><path fill="#FFFFFF" stroke="rgb(0,0,0)" paint-order="fill stroke markers" d=" M 597.723097061089 380.7854063402717 L 580.3546391231034 376.1315420620146 L 567.6400454633751 388.84613572174294 L 572.2939097416322 406.2145936597284 L 589.6623676796178 410.86845793798557 L 602.376961339346 398.1538642782572 L 597.723097061089 380.7854063402717 L 597.723097061089 380.7854063402717 L 597.723097061089 380.7854063402717 Z" stroke-opacity="1" stroke-linecap="round" stroke-miterlimit="10" stroke-width="0.002834467120181406" stroke-dasharray=""/></g><g><path fill="#FFFFFF" stroke="rgb(0,0,0)" paint-order="fill stroke markers" d=" M 603.0912532926776 339.0839005046521 L 585.8158383526468 332.9663552262129 L 571.8801812627015 344.8685307859772 L 575.2199391127871 362.8882516241807 L 592.4953540528179 369.0057969026199 L 606.4310111427632 357.1036213428556 L 603.0912532926776 339.08390050465215 L 603.0912532926776 339.0839005046521 L 603.0912532926776 339.0839005046521 Z" stroke-opacity="1" stroke-linecap="round" stroke-miterlimit="10" stroke-width="0.002834467120181406" stroke-dasharray=""/></g><g><path fill="#FFFFFF" stroke="rgb(0,0,0)" paint-order="fill stroke markers" d=" M 621.7106266400334 300.13827643044374 L 604.6528582097028 292.5436686179102 L 589.5468506971037 303.51882550418196 L 591.4986116148351 322.08859020298723 L 608.5563800451657 329.68319801552076 L 623.6623875577649 318.70804112924907 L 621.7106266400334 300.1382764304438 L 621.7106266400334 300.13827643044374 L 621.7106266400334 300.13827643044374 Z" stroke-opacity="1" stroke-linecap="round" stroke-miterlimit="10" stroke-width="0.002834467120181406" stroke-dasharray=""/></g><g><path fill="#FFFFFF" stroke="rgb(0,0,0)" paint-order="fill stroke markers" d=" M 652.3082421602426 268.0755181778645 L 635.5953352292155 259.0011501021366 L 619.380248486831 268.93776803762717 L 619.8780686754737 287.9487540488457 L 636.5909756065008 297.0231221245736 L 652.8060623488852 287.08650418908303 L 652.3082421602427 268.0755181778646 L 652.3082421602426 268.0755181778645 L 652.3082421602426 268.0755181778645 Z" stroke-opacity="1" stroke-linecap="round" stroke-miterlimit="10" stroke-width="0.002834467120181406" stroke-dasharray=""/></g><g><path fill="#FFFFFF" stroke="rgb(0,0,0)" paint-order="fill stroke markers" d=" M 692.340821802116 246.48541532205266 L 676.1016825808088 235.93959500474426 L 658.8491646716201 244.7301919473343 L 657.8357859837384 264.0666092072328 L 674.0749252050457 274.6124295245412 L 691.3274431142344 265.8218325819512 L 692.340821802116 246.4854153220527 L 692.340821802116 246.48541532205266 L 692.340821802116 246.48541532205266 Z" stroke-opacity="1" stroke-linecap="round" stroke-miterlimit="10" stroke-width="0.002834467120181406" stroke-dasharray=""/></g><g><path fill="#FFFFFF" stroke="rgb(0,0,0)" paint-order="fill stroke markers" d=" M 738.2081912542312 238.0341674017474 L 722.5724629543092 226.03645110051082 L 704.3642717000787 233.57853086429628 L 701.7918087457701 253.1183269293183 L 717.4275370456921 265.1160432305549 L 735.6357282999227 257.57396346676944 L 738.2081912542312 238.03416740174742 L 738.2081912542312 238.0341674017474 L 738.2081912542312 238.0341674017474 Z" stroke-opacity="1" stroke-linecap="round" stroke-miterlimit="10" stroke-width="0.002834467120181406" stroke-dasharray=""/></g><g><path fill="#FFFFFF" stroke="rgb(0,0,0)" paint-order="fill stroke markers" d=" M 785.5825602440427 244.15930768005865 L 770.6796417626012 230.74065960752765 L 751.6072924066256 236.9376415667191 L 747.4378615320913 256.55327159844154 L 762.3407800135328 269.9719196709725 L 781.4131293695085 263.7749377117811 L 785.5825602440427 244.15930768005867 L 785.5825602440427 244.15930768005865 L 785.5825602440427 244.15930768005865 Z" stroke-opacity="1" stroke-linecap="round" stroke-miterlimit="10" stroke-width="0.002834467120181406" stroke-dasharray=""/></g><g><path fill="#FFFFFF" stroke="rgb(0,0,0)" paint-order="fill stroke markers" d=" M 829.823627296796 264.8800807492147 L 815.7816719766544 250.0829473127661 L 795.9460008574308 254.8450706205905 L 790.1522850583491 274.40432736486355 L 804.1942403784907 289.2014608013121 L 824.0299114977141 284.43933749348776 L 829.823627296796 264.8800807492147 L 829.823627296796 264.8800807492147 L 829.823627296796 264.8800807492147 Z" stroke-opacity="1" stroke-linecap="round" stroke-miterlimit="10" stroke-width="0.002834467120181406" stroke-dasharray=""/></g><g><path fill="#FFFFFF" stroke="rgb(0,0,0)" paint-order="fill stroke markers" d=" M 866.439632819657 298.7465710794308 L 853.3845347130924 282.6248675493479 L 832.8951808504771 285.8700623934896 L 825.4609250944264 305.23696076771404 L 838.5160232009911 321.3586642977969 L 859.0053770636064 318.1134694536552 L 866.439632819657 298.7465710794308 L 866.439632819657 298.7465710794308 L 866.439632819657 298.7465710794308 Z" stroke-opacity="1" stroke-linecap="round" stroke-miterlimit="10" stroke-width="0.002834467120181406" stroke-dasharray=""/></g><g><path fill="#FFFFFF" stroke="rgb(0,0,0)" paint-order="fill stroke markers" d=" M 891.5484871455184 342.9372983770961 L 879.6028624102044 325.5563065340811 L 858.5776695635261 327.2110250974314 L 849.4981014521621 346.2467355037967 L 861.4437261874762 363.6277273468117 L 882.4689190341544 361.9730087834614 L 891.5484871455185 342.93729837709617 L 891.5484871455184 342.9372983770961 L 891.5484871455184 342.9372983770961 Z" stroke-opacity="1" stroke-linecap="round" stroke-miterlimit="10" stroke-width="0.002834467120181406" stroke-dasharray=""/></g><g><path fill="#FFFFFF" stroke="rgb(0,0,0)" paint-order="fill stroke markers" d=" M 902.2916666666669 393.5000000000022 L 891.573837868481 374.9361759747193 L 870.138180272109 374.93617597471916 L 859.420351473923 393.5000000000021 L 870.1381802721089 412.06382402528504 L 891.5738378684808 412.06382402528516 L 902.2916666666669 393.5000000000023 L 902.2916666666669 393.5000000000022 L 902.2916666666669 393.5000000000022 Z" stroke-opacity="1" stroke-linecap="round" stroke-miterlimit="10" stroke-width="0.002834467120181406" stroke-dasharray=""/></g><g><path fill="#FFFFFF" stroke="rgb(0,0,0)" paint-order="fill stroke markers" d=" M 897.1569813131365 445.71542389988645 L 887.7799724992583 426.0561160925566 L 866.0660081103538 424.3471900332207 L 853.7290525353275 442.29757178121474 L 863.1060613492057 461.9568795885446 L 884.8200257381102 463.66580564788046 L 897.1569813131365 445.71542389988645 L 897.1569813131365 445.71542389988645 L 897.1569813131365 445.71542389988645 Z" stroke-opacity="1" stroke-linecap="round" stroke-miterlimit="10" stroke-width="0.002834467120181406" stroke-dasharray=""/></g><g><path fill="#FFFFFF" stroke="rgb(0,0,0)" paint-order="fill stroke markers" d=" M 876.174355312593 494.55070208546704 L 868.2449057487098 473.8937797375538 L 846.3907614494728 470.4324233239474 L 832.466066714119 487.6279892582543 L 840.3955162780022 508.2849116061675 L 862.2496605772392 511.74626801977394 L 876.174355312593 494.5507020854671 L 876.174355312593 494.55070208546704 L 876.174355312593 494.55070208546704 Z" stroke-opacity="1" stroke-linecap="round" stroke-miterlimit="10" stroke-width="0.002834467120181406" stroke-dasharray=""/></g><g><path fill="#FFFFFF" stroke="rgb(0,0,0)" paint-order="fill stroke markers" d=" M 840.9607297928018 535.1586804937657 L 834.5783342295059 513.6120741714814 L 812.7272280074175 508.3660877051544 L 797.2585173486247 524.6667075611118 L 803.6409129119205 546.2133138833962 L 825.492019134009 551.4593003497231 L 840.9607297928018 535.1586804937657 L 840.9607297928018 535.1586804937657 L 840.9607297928018 535.1586804937657 Z" stroke-opacity="1" stroke-linecap="round" stroke-miterlimit="10" stroke-width="0.002834467120181406" stroke-dasharray=""/></g><g><path fill="#FFFFFF" stroke="rgb(0,0,0)" paint-order="fill stroke markers" d=" M 794.6049643322609 563.3735838688948 L 789.8609475774907 541.0547398045321 L 768.160253257264 534.0037567979608 L 751.2035756918075 549.2716178557522 L 755.9475924465777 571.5904619201149 L 777.6482867668044 578.6414449266862 L 794.6049643322609 563.3735838688949 L 794.6049643322609 563.3735838688948 L 794.6049643322609 563.3735838688948 Z" stroke-opacity="1" stroke-linecap="round" stroke-miterlimit="10" stroke-width="0.002834467120181406" stroke-dasharray=""/></g><g><path fill="#FFFFFF" stroke="rgb(0,0,0)" paint-order="fill stroke markers" d=" M 741.3997393841817 576.1523275903021 L 738.3763728109159 553.1875785071413 L 716.9766334267302 544.3235162229619 L 698.6002606158106 558.4242030219432 L 701.6236271890764 581.388952105104 L 723.0233665732619 590.2530143892834 L 741.3997393841817 576.1523275903021 L 741.3997393841817 576.1523275903021 L 741.3997393841817 576.1523275903021 Z" stroke-opacity="1" stroke-linecap="round" stroke-miterlimit="10" stroke-width="0.002834467120181406" stroke-dasharray=""/></g><g><path fill="#FFFFFF" stroke="rgb(0,0,0)" paint-order="fill stroke markers" d=" M 686.4433188350474 571.9148963539695 L 685.2129862469242 548.4387520686215 L 664.2668826188424 537.7661792023662 L 644.5511115788838 550.5697506214586 L 645.7814441670071 574.0458949068066 L 666.7275477950888 584.718467773062 L 686.4433188350474 571.9148963539695 L 686.4433188350474 571.9148963539695 L 686.4433188350474 571.9148963539695 Z" stroke-opacity="1" stroke-linecap="round" stroke-miterlimit="10" stroke-width="0.002834467120181406" stroke-dasharray=""/></g><g><path fill="#FFFFFF" stroke="rgb(0,0,0)" paint-order="fill stroke markers" d=" M 635.1479833234836 550.7462088039542 L 635.7724033365321 526.9005705514105 L 615.4336848468995 514.4369878312073 L 594.4705463442184 525.8190433635477 L 593.8461263311699 549.6646816160915 L 614.1848448208025 562.1282643362947 L 635.1479833234836 550.7462088039542 L 635.1479833234836 550.7462088039542 L 635.1479833234836 550.7462088039542 Z" stroke-opacity="1" stroke-linecap="round" stroke-miterlimit="10" stroke-width="0.002834467120181406" stroke-dasharray=""/></g><g><path fill="#FFFFFF" stroke="rgb(0,0,0)" paint-order="fill stroke markers" d=" M 592.7025059516997 514.4349829954041 L 595.2320177293291 490.36828605179113 L 575.6544026797936 476.1443161213857 L 553.5472758526288 485.98704313459314 L 551.0177640749994 510.0537400782061 L 570.5953791245348 524.2777100086115 L 592.7025059516995 514.4349829954041 L 592.7025059516997 514.4349829954041 L 592.7025059516997 514.4349829954041 Z" stroke-opacity="1" stroke-linecap="round" stroke-miterlimit="10" stroke-width="0.002834467120181406" stroke-dasharray=""/></g><g><path fill="#FFFFFF" stroke="rgb(0,0,0)" paint-order="fill stroke markers" d=" M 563.5420393099296 466.341073386026 L 568.0149581125335 442.20736316724305 L 549.3510113767973 426.2668467457316 L 526.2141458384572 434.46004054300306 L 521.7412270358533 458.593750761786 L 540.4051737715895 474.53426718329746 L 563.5420393099296 466.341073386026 L 563.5420393099296 466.341073386026 L 563.5420393099296 466.341073386026 Z" stroke-opacity="1" stroke-linecap="round" stroke-miterlimit="10" stroke-width="0.002834467120181406" stroke-dasharray=""/></g><g><path fill="#FFFFFF" stroke="rgb(0,0,0)" paint-order="fill stroke markers" d=" M 550.8794824894961 411.100004031441 L 557.3215310717144 387.0579514177764 L 539.7215270402678 369.4579473863296 L 515.6794744266032 375.8999959685474 L 509.2374258443849 399.942048582212 L 526.8374298758314 417.5420526136588 L 550.8794824894961 411.100004031441 L 550.8794824894961 411.100004031441 L 550.8794824894961 411.100004031441 Z" stroke-opacity="1" stroke-linecap="round" stroke-miterlimit="10" stroke-width="0.002834467120181406" stroke-dasharray=""/></g><g><path fill="#FFFFFF" stroke="rgb(0,0,0)" paint-order="fill stroke markers" d=" M 556.3475909105092 354.190240506417 L 564.7714123209846 330.40210267937607 L 548.3821913592794 311.2127904274406 L 523.5691489870986 315.8116160025461 L 515.1453275766232 339.599753829587 L 531.5345485383284 358.7890660815225 L 556.3475909105092 354.190240506417 L 556.3475909105092 354.190240506417 L 556.3475909105092 354.190240506417 Z" stroke-opacity="1" stroke-linecap="round" stroke-miterlimit="10" stroke-width="0.002834467120181406" stroke-dasharray=""/></g><g><path fill="#FFFFFF" stroke="rgb(0,0,0)" paint-order="fill stroke markers" d=" M 579.7911320372926 301.40339227333214 L 590.195888850669 278.03392584695894 L 575.1597156592305 257.33840891318926 L 549.7187856544157 260.01235840579267 L 539.3140288410393 283.3818248321658 L 554.3502020324778 304.07734176593556 L 579.7911320372926 301.40339227333214 L 579.7911320372926 301.40339227333214 L 579.7911320372926 301.40339227333214 Z" stroke-opacity="1" stroke-linecap="round" stroke-miterlimit="10" stroke-width="0.002834467120181406" stroke-dasharray=""/></g><g><path fill="#FFFFFF" stroke="rgb(0,0,0)" paint-order="fill stroke markers" d=" M 619.2341650686529 258.26846507022043 L 631.6052295109707 235.48379875111644 L 618.0586618830338 213.37780951266294 L 592.1410298127793 214.05648659331342 L 579.7699653704615 236.8411529124174 L 593.3165329983984 258.9471421508709 L 619.2341650686529 258.26846507022043 L 619.2341650686529 258.26846507022043 L 619.2341650686529 258.26846507022043 Z" stroke-opacity="1" stroke-linecap="round" stroke-miterlimit="10" stroke-width="0.002834467120181406" stroke-dasharray=""/></g><g><path fill="#FFFFFF" stroke="rgb(0,0,0)" paint-order="fill stroke markers" d=" M 671.0303795650372 229.48728011805414 L 685.3391183853196 207.45375453232822 L 673.4118949032876 184.04526042498412 L 647.1759326009734 182.670291903366 L 632.867193780691 204.70381748909193 L 644.7944172627228 228.112311596436 L 671.0303795650372 229.48728011805417 L 671.0303795650372 229.48728011805414 L 671.0303795650372 229.48728011805414 Z" stroke-opacity="1" stroke-linecap="round" stroke-miterlimit="10" stroke-width="0.002834467120181406" stroke-dasharray=""/></g><g><path fill="#FFFFFF" stroke="rgb(0,0,0)" paint-order="fill stroke markers" d=" M 730.1860448045809 218.43850973636262 L 746.3897021013074 197.32149241444557 L 736.2036572967345 172.73020490030484 L 709.813955195435 169.25593470808116 L 693.6102978987085 190.37295202999817 L 703.7963427032814 214.96423954413893 L 730.1860448045809 218.43850973636265 L 730.1860448045809 218.43850973636262 L 730.1860448045809 218.43850973636262 Z" stroke-opacity="1" stroke-linecap="round" stroke-miterlimit="10" stroke-width="0.002834467120181406" stroke-dasharray=""/></g><g><path fill="#FFFFFF" stroke="rgb(0,0,0)" paint-order="fill stroke markers" d=" M 790.8273432756433 226.80227515192541 L 808.8690238113256 206.76495896044682 L 800.537039233685 181.12174719384336 L 774.1633741203622 175.51585161871856 L 756.1216935846799 195.55316781019715 L 764.4536781623204 221.19637957680058 L 790.8273432756433 226.80227515192544 L 790.8273432756433 226.80227515192541 L 790.8273432756433 226.80227515192541 Z" stroke-opacity="1" stroke-linecap="round" stroke-miterlimit="10" stroke-width="0.002834467120181406" stroke-dasharray=""/></g><g><path fill="#FFFFFF" stroke="rgb(0,0,0)" paint-order="fill stroke markers" d=" M 846.7685146575583 254.3463319042333 L 866.5772694923701 235.5485254552553 L 860.2022689895381 208.99473732648147 L 834.0185136518943 201.23875564668566 L 814.2097588170825 220.03656209566367 L 820.5847593199145 246.5903502244375 L 846.7685146575583 254.34633190423332 L 846.7685146575583 254.3463319042333 L 846.7685146575583 254.3463319042333 Z" stroke-opacity="1" stroke-linecap="round" stroke-miterlimit="10" stroke-width="0.002834467120181406" stroke-dasharray=""/></g><g><path fill="#FFFFFF" stroke="rgb(0,0,0)" paint-order="fill stroke markers" d=" M 892.1259419300949 298.8995139921548 L 913.6169574812985 281.49643274164487 L 909.2909547898341 254.18312669592112 L 883.4739365471661 244.27290190070727 L 861.9829209959624 261.67598315121717 L 866.3089236874268 288.98928919694094 L 892.1259419300949 298.8995139921548 L 892.1259419300949 298.8995139921548 L 892.1259419300949 298.8995139921548 Z" stroke-opacity="1" stroke-linecap="round" stroke-miterlimit="10" stroke-width="0.002834467120181406" stroke-dasharray=""/></g><g><path fill="#FFFFFF" stroke="rgb(0,0,0)" paint-order="fill stroke markers" d=" M 921.9173140759776 356.51977739946693 L 944.9922049687835 340.660844267032 L 942.7954114455791 312.7479359980905 L 917.5237270295688 300.6939608615838 L 894.4488361367629 316.5528939940187 L 896.6456296599673 344.4658022629602 L 921.9173140759775 356.51977739946693 L 921.9173140759776 356.51977739946693 L 921.9173140759776 356.51977739946693 Z" stroke-opacity="1" stroke-linecap="round" stroke-miterlimit="10" stroke-width="0.002834467120181406" stroke-dasharray=""/></g><path fill="none" stroke="rgb(0,0,0)" paint-order="fill stroke markers" d=" M 450.72562358276645 393.5 C 450.72562358276645 244.78386839285716 571.2838683928571 124.22562358276645 720 124.22562358276645 C 868.7161316071429 124.22562358276645 989.2743764172335 244.78386839285716 989.2743764172335 393.5 C 989.2743764172335 542.2161316071429 868.7161316071429 662.7743764172335 720 662.7743764172335 C 571.2838683928571 662.7743764172335 450.72562358276645 542.2161316071429 450.72562358276645 393.5" stroke-opacity="1" stroke-linecap="round" stroke-miterlimit="10" stroke-width="0.002834467120181406" stroke-dasharray=""/><path fill="none" stroke="rgb(0,0,0)" paint-order="fill stroke markers" d=" M 972.9761904761905 393.5 C 972.9761904761905 391.9345670357143 974.2452246320861 390.6655328798186 975.8106575963718 390.6655328798186 C 977.3760905606575 390.6655328798186 978.6451247165533 391.9345670357143 978.6451247165533 393.5 C 978.6451247165533 395.0654329642857 977.3760905606575 396.3344671201814 975.8106575963718 396.3344671201814 C 974.2452246320861 396.3344671201814 972.9761904761905 395.0654329642857 972.9761904761905 393.5" stroke-opacity="1" stroke-linecap="round" stroke-miterlimit="10" stroke-width="0.002834467120181406" stroke-dasharray=""/><path fill="none" stroke="rgb(0,0,0)" paint-order="fill stroke markers" d=" M 957.54892014152 480.99239777534467 C 957.54892014152 479.42696481105895 958.8179542974156 478.1579306551633 960.3833872617013 478.1579306551633 C 961.948820225987 478.1579306551633 963.2178543818827 479.42696481105895 963.2178543818827 480.99239777534467 C 963.2178543818827 482.5578307396304 961.948820225987 483.8268648955261 960.3833872617013 483.8268648955261 C 958.8179542974156 483.8268648955261 957.54892014152 482.5578307396304 957.54892014152 480.99239777534467" stroke-opacity="1" stroke-linecap="round" stroke-miterlimit="10" stroke-width="0.002834467120181406" stroke-dasharray=""/><path fill="none" stroke="rgb(0,0,0)" paint-order="fill stroke markers" d=" M 913.1278656221309 557.9319211287136 C 913.1278656221309 556.3664881644279 914.3968997780265 555.0974540085322 915.9623327423122 555.0974540085322 C 917.527765706598 555.0974540085322 918.7967998624937 556.3664881644279 918.7967998624937 557.9319211287136 C 918.7967998624937 559.4973540929993 917.527765706598 560.766388248895 915.9623327423122 560.766388248895 C 914.3968997780265 560.766388248895 913.1278656221309 559.4973540929993 913.1278656221309 557.9319211287136" stroke-opacity="1" stroke-linecap="round" stroke-miterlimit="10" stroke-width="0.002834467120181406" stroke-dasharray=""/><path fill="none" stroke="rgb(0,0,0)" paint-order="fill stroke markers" d=" M 845.0708616780046 615.0385280372607 C 845.0708616780046 613.473095072975 846.3398958339003 612.2040609170792 847.905328798186 612.2040609170792 C 849.4707617624717 612.2040609170792 850.7397959183673 613.473095072975 850.7397959183673 615.0385280372607 C 850.7397959183673 616.6039610015464 849.4707617624717 617.8729951574421 847.905328798186 617.8729951574421 C 846.3398958339003 617.8729951574421 845.0708616780046 616.6039610015464 845.0708616780046 615.0385280372607" stroke-opacity="1" stroke-linecap="round" stroke-miterlimit="10" stroke-width="0.002834467120181406" stroke-dasharray=""/><path fill="none" stroke="rgb(0,0,0)" paint-order="fill stroke markers" d=" M 761.5865873992077 645.4243189040583 C 761.5865873992077 643.8588859397726 762.8556215551034 642.5898517838768 764.4210545193891 642.5898517838768 C 765.9864874836748 642.5898517838768 767.2555216395705 643.8588859397726 767.2555216395705 645.4243189040583 C 767.2555216395705 646.989751868344 765.9864874836748 648.2587860242397 764.4210545193891 648.2587860242397 C 762.8556215551034 648.2587860242397 761.5865873992077 646.989751868344 761.5865873992077 645.4243189040583" stroke-opacity="1" stroke-linecap="round" stroke-miterlimit="10" stroke-width="0.002834467120181406" stroke-dasharray=""/><path fill="none" stroke="rgb(0,0,0)" paint-order="fill stroke markers" d=" M 672.7444783604295 645.4243189040583 C 672.7444783604295 643.8588859397726 674.0135125163252 642.5898517838768 675.578945480611 642.5898517838768 C 677.1443784448967 642.5898517838768 678.4134126007923 643.8588859397726 678.4134126007923 645.4243189040583 C 678.4134126007923 646.989751868344 677.1443784448967 648.2587860242397 675.578945480611 648.2587860242397 C 674.0135125163252 648.2587860242397 672.7444783604295 646.989751868344 672.7444783604295 645.4243189040583" stroke-opacity="1" stroke-linecap="round" stroke-miterlimit="10" stroke-width="0.002834467120181406" stroke-dasharray=""/><path fill="none" stroke="rgb(0,0,0)" paint-order="fill stroke markers" d=" M 589.2602040816328 615.0385280372608 C 589.2602040816328 613.4730950729751 590.5292382375284 612.2040609170793 592.0946712018141 612.2040609170793 C 593.6601041660998 612.2040609170793 594.9291383219955 613.4730950729751 594.9291383219955 615.0385280372608 C 594.9291383219955 616.6039610015465 593.6601041660998 617.8729951574421 592.0946712018141 617.8729951574421 C 590.5292382375284 617.8729951574421 589.2602040816328 616.6039610015465 589.2602040816328 615.0385280372608" stroke-opacity="1" stroke-linecap="round" stroke-miterlimit="10" stroke-width="0.002834467120181406" stroke-dasharray=""/><path fill="none" stroke="rgb(0,0,0)" paint-order="fill stroke markers" d=" M 521.2032001375064 557.9319211287136 C 521.2032001375064 556.3664881644279 522.472234293402 555.0974540085323 524.0376672576878 555.0974540085323 C 525.6031002219735 555.0974540085323 526.8721343778692 556.3664881644279 526.8721343778692 557.9319211287136 C 526.8721343778692 559.4973540929993 525.6031002219735 560.766388248895 524.0376672576878 560.766388248895 C 522.472234293402 560.766388248895 521.2032001375064 559.4973540929993 521.2032001375064 557.9319211287136" stroke-opacity="1" stroke-linecap="round" stroke-miterlimit="10" stroke-width="0.002834467120181406" stroke-dasharray=""/><path fill="none" stroke="rgb(0,0,0)" paint-order="fill stroke markers" d=" M 476.7821456181173 480.9923977753447 C 476.7821456181173 479.426964811059 478.051179774013 478.15793065516334 479.6166127382987 478.15793065516334 C 481.18204570258445 478.15793065516334 482.45107985848006 479.426964811059 482.45107985848006 480.9923977753447 C 482.45107985848006 482.55783073963045 481.18204570258445 483.8268648955261 479.6166127382987 483.8268648955261 C 478.051179774013 483.8268648955261 476.7821456181173 482.55783073963045 476.7821456181173 480.9923977753447" stroke-opacity="1" stroke-linecap="round" stroke-miterlimit="10" stroke-width="0.002834467120181406" stroke-dasharray=""/><path fill="none" stroke="rgb(0,0,0)" paint-order="fill stroke markers" d=" M 461.35487528344675 393.50000000000006 C 461.35487528344675 391.93456703571434 462.62390943934247 390.6655328798186 464.1893424036282 390.6655328798186 C 465.7547753679139 390.6655328798186 467.0238095238095 391.93456703571434 467.0238095238095 393.50000000000006 C 467.0238095238095 395.0654329642857 465.7547753679139 396.33446712018144 464.1893424036282 396.33446712018144 C 462.62390943934247 396.33446712018144 461.35487528344675 395.0654329642857 461.35487528344675 393.50000000000006" stroke-opacity="1" stroke-linecap="round" stroke-miterlimit="10" stroke-width="0.002834467120181406" stroke-dasharray=""/><path fill="none" stroke="rgb(0,0,0)" paint-order="fill stroke markers" d=" M 476.7821456181173 306.00760222465533 C 476.7821456181173 304.4421692603696 478.05117977401295 303.17313510447394 479.61661273829867 303.17313510447394 C 481.1820457025844 303.17313510447394 482.45107985848006 304.4421692603696 482.45107985848006 306.00760222465533 C 482.45107985848006 307.57303518894105 481.1820457025844 308.8420693448368 479.61661273829867 308.8420693448368 C 478.05117977401295 308.8420693448368 476.7821456181173 307.57303518894105 476.7821456181173 306.00760222465533" stroke-opacity="1" stroke-linecap="round" stroke-miterlimit="10" stroke-width="0.002834467120181406" stroke-dasharray=""/><path fill="none" stroke="rgb(0,0,0)" paint-order="fill stroke markers" d=" M 521.2032001375063 229.0680788712864 C 521.2032001375063 227.50264590700067 522.472234293402 226.23361175110497 524.0376672576878 226.23361175110497 C 525.6031002219735 226.23361175110497 526.8721343778691 227.50264590700067 526.8721343778691 229.0680788712864 C 526.8721343778691 230.6335118355721 525.6031002219735 231.90254599146778 524.0376672576878 231.90254599146778 C 522.472234293402 231.90254599146778 521.2032001375063 230.6335118355721 521.2032001375063 229.0680788712864" stroke-opacity="1" stroke-linecap="round" stroke-miterlimit="10" stroke-width="0.002834467120181406" stroke-dasharray=""/><path fill="none" stroke="rgb(0,0,0)" paint-order="fill stroke markers" d=" M 589.2602040816325 171.96147196273935 C 589.2602040816325 170.39603899845363 590.5292382375283 169.12700484255794 592.094671201814 169.12700484255794 C 593.6601041660997 169.12700484255794 594.9291383219953 170.39603899845363 594.9291383219953 171.96147196273935 C 594.9291383219953 173.52690492702507 593.6601041660997 174.79593908292074 592.094671201814 174.79593908292074 C 590.5292382375283 174.79593908292074 589.2602040816325 173.52690492702507 589.2602040816325 171.96147196273935" stroke-opacity="1" stroke-linecap="round" stroke-miterlimit="10" stroke-width="0.002834467120181406" stroke-dasharray=""/><path fill="none" stroke="rgb(0,0,0)" paint-order="fill stroke markers" d=" M 672.7444783604293 141.57568109594172 C 672.7444783604293 140.010248131656 674.013512516325 138.7412139757603 675.5789454806107 138.7412139757603 C 677.1443784448965 138.7412139757603 678.4134126007921 140.010248131656 678.4134126007921 141.57568109594172 C 678.4134126007921 143.14111406022744 677.1443784448965 144.4101482161231 675.5789454806107 144.4101482161231 C 674.013512516325 144.4101482161231 672.7444783604293 143.14111406022744 672.7444783604293 141.57568109594172" stroke-opacity="1" stroke-linecap="round" stroke-miterlimit="10" stroke-width="0.002834467120181406" stroke-dasharray=""/><path fill="none" stroke="rgb(0,0,0)" paint-order="fill stroke markers" d=" M 761.5865873992074 141.57568109594163 C 761.5865873992074 140.0102481316559 762.8556215551031 138.74121397576022 764.4210545193887 138.74121397576022 C 765.9864874836744 138.74121397576022 767.2555216395701 140.0102481316559 767.2555216395701 141.57568109594163 C 767.2555216395701 143.14111406022735 765.9864874836744 144.41014821612302 764.4210545193887 144.41014821612302 C 762.8556215551031 144.41014821612302 761.5865873992074 143.14111406022735 761.5865873992074 141.57568109594163" stroke-opacity="1" stroke-linecap="round" stroke-miterlimit="10" stroke-width="0.002834467120181406" stroke-dasharray=""/><path fill="none" stroke="rgb(0,0,0)" paint-order="fill stroke markers" d=" M 845.0708616780041 171.96147196273907 C 845.0708616780041 170.39603899845335 846.3398958338998 169.12700484255765 847.9053287981856 169.12700484255765 C 849.4707617624713 169.12700484255765 850.739795918367 170.39603899845335 850.739795918367 171.96147196273907 C 850.739795918367 173.5269049270248 849.4707617624713 174.79593908292046 847.9053287981856 174.79593908292046 C 846.3398958338998 174.79593908292046 845.0708616780041 173.5269049270248 845.0708616780041 171.96147196273907" stroke-opacity="1" stroke-linecap="round" stroke-miterlimit="10" stroke-width="0.002834467120181406" stroke-dasharray=""/><path fill="none" stroke="rgb(0,0,0)" paint-order="fill stroke markers" d=" M 913.1278656221305 229.06807887128596 C 913.1278656221305 227.50264590700024 914.3968997780262 226.23361175110455 915.9623327423119 226.23361175110455 C 917.5277657065976 226.23361175110455 918.7967998624933 227.50264590700024 918.7967998624933 229.06807887128596 C 918.7967998624933 230.63351183557168 917.5277657065976 231.90254599146735 915.9623327423119 231.90254599146735 C 914.3968997780262 231.90254599146735 913.1278656221305 230.63351183557168 913.1278656221305 229.06807887128596" stroke-opacity="1" stroke-linecap="round" stroke-miterlimit="10" stroke-width="0.002834467120181406" stroke-dasharray=""/><path fill="none" stroke="rgb(0,0,0)" paint-order="fill stroke markers" d=" M 957.5489201415197 306.00760222465476 C 957.5489201415197 304.44216926036904 958.8179542974153 303.1731351044733 960.383387261701 303.1731351044733 C 961.9488202259868 303.1731351044733 963.2178543818825 304.44216926036904 963.2178543818825 306.00760222465476 C 963.2178543818825 307.5730351889405 961.9488202259868 308.84206934483615 960.383387261701 308.84206934483615 C 958.8179542974153 308.84206934483615 957.5489201415197 307.5730351889405 957.5489201415197 306.00760222465476" stroke-opacity="1" stroke-linecap="round" stroke-miterlimit="10" stroke-width="0.002834467120181406" stroke-dasharray=""/><path fill="none" stroke="rgb(0,0,0)" paint-order="fill stroke markers" d=" M 972.9761904761905 393.49999999999926 C 972.9761904761905 391.93456703571354 974.2452246320861 390.6655328798179 975.8106575963718 390.6655328798179 C 977.3760905606575 390.6655328798179 978.6451247165533 391.93456703571354 978.6451247165533 393.49999999999926 C 978.6451247165533 395.065432964285 977.3760905606575 396.33446712018065 975.8106575963718 396.33446712018065 C 974.2452246320861 396.33446712018065 972.9761904761905 395.065432964285 972.9761904761905 393.49999999999926" stroke-opacity="1" stroke-linecap="round" stroke-miterlimit="10" stroke-width="0.002834467120181406" stroke-dasharray=""/></g></g></svg>