<svg version="1.1" xmlns="http://www.w3.org/2000/svg" xmlns:xlink="http://www.w3.org/1999/xlink" width="1440" height="787" viewBox="0 0 1440 787"><defs/><g><rect fill="rgb(255,255,255)" stroke="none" x="0" y="0" width="1440" height="787" transform="matrix(1 0 0 1 0 0)" fill-opacity="1"/><g><path fill="#FFFFFF" stroke="rgb(0,0,0)" paint-order="fill stroke markers" d=" M 717.1655328798186 393.5 C 717.1655328798186 391.9345670357143 718.4345670357143 390.6655328798186 720 390.6655328798186 C 721.5654329642857 390.6655328798186 722.8344671201814 391.9345670357143 722.8344671201814 393.5 C 722.8344671201814 395.0654329642857 721.5654329642857 396.3344671201814 720 396.3344671201814 C 718.4345670357143 396.3344671201814 717.1655328798186 395.0654329642857 717.1655328798186 393.5" stroke-opacity="1" stroke-linecap="round" stroke-miterlimit="10" stroke-width="0.002834467120181406" stroke-dasharray=""/><g><path fill="#FFFFFF" stroke="rgb(0,0,0)" paint-order="fill stroke markers" d=" M 725.6689342403628 394.20861678004536 L 725.8451600674354 394.18635428084514 L 726.0103129776797 394.12096561794493 L 726.1540158063553 394.01655940151744 L 726.2672391762344 393.87969585812004 L 726.342868846581 393.71897462753327 L 726.3761527270608 393.5444944157662 L 726.3649994690537 393.3672184562176 L 726.3101098727792 393.19828564940116 L 726.2149328534408 393.04831066486065 L 726.0854487332005 392.9267169824441 L 725.9297934755418 392.841144780408 L 725.7577474727638 392.7969708749189 L 725.5801210079618 392.7969708749189 L 725.4080750051837 392.841144780408 L 725.2524197475251 392.9267169824441 L 725.1229356272847 393.0483106648606 L 725.0277586079463 393.19828564940116 L 724.9728690116718 393.3672184562176 L 724.9617157536647 393.5444944157662 L 724.9949996341445 393.71897462753327 L 725.0706293044911 393.87969585812004 L 725.1838526743702 394.01655940151744 L 725.3275555030458 394.12096561794493 L 725.4927084132902 394.18635428084514 L 725.6689342403628 394.20861678004536 L 725.6689342403628 394.20861678004536 Z" stroke-opacity="1" stroke-linecap="round" stroke-miterlimit="10" stroke-width="0.002834467120181406" stroke-dasharray=""/></g><g><path fill="#FFFFFF" stroke="rgb(0,0,0)" paint-order="fill stroke markers" d=" M 728.5490754052857 397.48028613117583 L 728.8541978767342 397.47229621806946 L 729.1468556104068 397.38560704795066 L 729.4071044653934 397.22612634450235 L 729.6172089123083 397.00472245411015 L 729.7628506803085 396.73648368601715 L 729.8341045235888 396.43969006898334 L 729.8261146104825 396.13456759753495 L 729.7394254403637 395.8419098638624 L 729.5799447369153 395.58166100887576 L 729.3585408465232 395.37155656196074 L 729.0903020784302 395.22591479396067 L 728.7935084613964 395.1546609506803 L 728.4883859899479 395.16265086378667 L 728.1957282562754 395.24934003390547 L 727.9354794012887 395.4088207373538 L 727.7253749543738 395.630224627746 L 727.5797331863737 395.898463395839 L 727.5084793430933 396.1952570128728 L 727.5164692561997 396.5003794843212 L 727.6031584263185 396.79303721799374 L 727.7626391297669 397.05328607298037 L 727.984043020159 397.2633905198954 L 728.2522817882519 397.40903228789546 L 728.5490754052857 397.48028613117583 L 728.5490754052857 397.48028613117583 L 728.5490754052857 397.48028613117583 Z" stroke-opacity="1" stroke-linecap="round" stroke-miterlimit="10" stroke-width="0.002834467120181406" stroke-dasharray=""/></g><g><path fill="#FFFFFF" stroke="rgb(0,0,0)" paint-order="fill stroke markers" d=" M 729.8273605050323 402.4803934871086 L 730.2515169592837 402.5137753240188 L 730.6698604879853 402.436239933956 L 731.0538816710012 402.2530712256196 L 731.3774100993342 401.97675184378204 L 731.6183978452492 401.62611249767633 L 731.7604219921132 401.2250486792805 L 731.7938038290234 400.8008922250291 L 731.7162684389606 400.3825486963276 L 731.5330997306241 399.99852751331156 L 731.2567803487867 399.67499908497865 L 730.9061410026809 399.43401133906366 L 730.5050771842851 399.2919871921996 L 730.0809207300338 399.2586053552894 L 729.6625772013322 399.33614074535217 L 729.2785560183162 399.5193094536886 L 728.9550275899833 399.79562883552614 L 728.7140398440682 400.14626818163185 L 728.5720156972043 400.54733200002767 L 728.538633860294 400.9714884542791 L 728.6161692503568 401.3898319829806 L 728.7993379586933 401.7738531659966 L 729.0756573405307 402.09738159432953 L 729.4262966866365 402.3383693402445 L 729.8273605050323 402.4803934871086 L 729.8273605050323 402.4803934871086 L 729.8273605050323 402.4803934871086 Z" stroke-opacity="1" stroke-linecap="round" stroke-miterlimit="10" stroke-width="0.002834467120181406" stroke-dasharray=""/></g><g><path fill="#FFFFFF" stroke="rgb(0,0,0)" paint-order="fill stroke markers" d=" M 728.7672523869074 408.44430328510805 L 729.3038234345898 408.54375085062344 L 729.8478501911297 408.5009350163255 L 730.3622581321157 408.31877361056513 L 730.8119912064686 408.00968063210894 L 731.1664008483907 407.5947202566384 L 731.4013346264744 407.10217134798745 L 731.5007821919897 406.56560030030505 L 731.4579663576918 406.02157354376516 L 731.2758049519314 405.5071656027793 L 730.9667119734752 405.0574325284263 L 730.5517515980047 404.70302288650424 L 730.0592026893538 404.4680891084206 L 729.5226316416714 404.3686415429052 L 728.9786048851315 404.41145737720313 L 728.4641969441456 404.5936187829635 L 728.0144638697926 404.9027117614197 L 727.6600542278705 405.3176721368902 L 727.4251204497868 405.8102210455412 L 727.3256728842715 406.3467920932236 L 727.3684887185694 406.8908188497635 L 727.5506501243299 407.40522679074934 L 727.8597431027861 407.85495986510233 L 728.2747034782565 408.2093695070244 L 728.7672523869074 408.44430328510805 L 728.7672523869074 408.44430328510805 L 728.7672523869074 408.44430328510805 Z" stroke-opacity="1" stroke-linecap="round" stroke-miterlimit="10" stroke-width="0.002834467120181406" stroke-dasharray=""/></g><g><path fill="#FFFFFF" stroke="rgb(0,0,0)" paint-order="fill stroke markers" d=" M 724.9769096256796 414.3412102903583 L 725.6441405257751 414.5347293957476 L 726.3388395239209 414.54105554529707 L 727.009483973461 414.35971955743486 L 727.6063352435673 414.00417029282374 L 728.0851276059487 413.5007772138903 L 728.4103512214169 412.8868746824288 L 728.5578857422115 412.2079930407807 L 728.5167892078508 411.5144818346301 L 728.2901095602841 410.8577756175345 L 727.8946585919812 410.2865792853849 L 727.359765092193 409.84325585708746 L 726.7250996648243 409.56068460324923 L 726.0377325412214 409.45982254109 L 725.348642596447 409.54815014834685 L 724.7089364793281 409.8191165704614 L 724.1660582661107 410.2526254674944 L 723.7602707503664 410.8165254677241 L 723.5216693357838 411.46899468780435 L 723.4679499977535 412.16164247052984 L 723.6030968538278 412.8430982985086 L 723.917086679947 413.4628217104324 L 724.3866322871162 413.97485065588484 L 724.9769096256796 414.3412102903583 L 724.9769096256796 414.3412102903583 L 724.9769096256796 414.3412102903583 Z" stroke-opacity="1" stroke-linecap="round" stroke-miterlimit="10" stroke-width="0.002834467120181406" stroke-dasharray=""/></g><g><path fill="#FFFFFF" stroke="rgb(0,0,0)" paint-order="fill stroke markers" d=" M 718.4941893424036 419.0200831203353 L 719.2536967896331 419.32962904658035 L 720.0685541318654 419.4227835132575 L 720.8783271277516 419.2926376797268 L 721.6229586186516 418.94884386708355 L 722.247222693348 418.4168996896595 L 722.7048205412384 417.7362570136114 L 722.9618142233159 416.9573959924888 L 722.9991436938485 416.13808118517625 L 722.8140403967778 415.3390774228163 L 722.4202325968563 414.61964315926406 L 721.8469272170535 414.03313554265463 L 721.1366436946914 413.62305315981797 L 720.3420605092932 413.4198099450871 L 719.5221082607433 413.43847951792276 L 718.7375990562848 413.67767724151525 L 718.0467163547218 414.1196629149626 L 717.5006997654508 414.7316564828151 L 717.1400448410386 415.4682691818293 L 716.9914997073423 416.2748698178984 L 717.0660812773793 417.0916365117974 L 717.3582581772881 417.8579934142988 L 717.8463609830227 418.51710333979366 L 718.4941893424036 419.0200831203353 L 718.4941893424036 419.0200831203353 L 718.4941893424036 419.0200831203353 Z" stroke-opacity="1" stroke-linecap="round" stroke-miterlimit="10" stroke-width="0.002834467120181406" stroke-dasharray=""/></g><g><path fill="#FFFFFF" stroke="rgb(0,0,0)" paint-order="fill stroke markers" d=" M 709.8132228408581 421.37945413734195 L 710.6467882731688 421.82591947924845 L 711.5698977457562 422.0309354129863 L 712.5140884519833 421.9792968446357 L 713.4093340865544 421.6748335705805 L 714.1892383762296 421.1401262390305 L 714.7959593876683 420.41483164664356 L 715.1844993990162 419.55274157533495 L 715.3260421750837 418.61779330189404 L 715.2100901356852 417.6793276626582 L 714.8452429131374 416.80694636089487 L 714.2585595568719 416.065349926877 L 713.493551687525 415.5095391755377 L 712.6069564390881 415.18073604763885 L 711.6645285252343 415.10332636700247 L 710.7361635130134 415.2830512555156 L 709.8907139883944 415.7065813403839 L 709.1908830749442 416.34250533273394 L 708.6885740299998 417.1436596592118 L 708.4210408175139 418.0506263684597 L 708.4081251519735 418.99613988874944 L 708.6507849292067 419.9100758077176 L 709.1310231836304 420.724651679233 L 709.8132228408581 421.37945413734195 L 709.8132228408581 421.37945413734195 L 709.8132228408581 421.37945413734195 Z" stroke-opacity="1" stroke-linecap="round" stroke-miterlimit="10" stroke-width="0.002834467120181406" stroke-dasharray=""/></g><g><path fill="#FFFFFF" stroke="rgb(0,0,0)" paint-order="fill stroke markers" d=" M 699.8470513427851 420.5387627632079 L 700.7770561862967 421.1617742122778 L 701.8449119075615 421.4975366777043 L 702.964107186825 421.5188486813949 L 704.0439714786721 421.22398365155783 L 704.9970206003775 420.63682979928075 L 705.7460441801019 419.80495483773666 L 706.2303607820309 418.79575232895894 L 706.4107339554178 417.69098185825044 L 706.2725509384755 416.58014535882495 L 705.8270064974307 415.55323619746684 L 705.1101959931418 414.6934484471655 L 704.1801911496302 414.0704369980956 L 703.1123354283654 413.7346745326691 L 701.9931401491019 413.7133625289785 L 700.9132758572548 414.0082275588156 L 699.9602267355494 414.59538141109266 L 699.211203155825 415.42725637263675 L 698.7268865538961 416.43645888141447 L 698.5465133805092 417.54122935212297 L 698.6846963974514 418.65206585154846 L 699.1302408384962 419.6789750129065 L 699.8470513427851 420.5387627632079 L 699.8470513427851 420.5387627632079 L 699.8470513427851 420.5387627632079 Z" stroke-opacity="1" stroke-linecap="round" stroke-miterlimit="10" stroke-width="0.002834467120181406" stroke-dasharray=""/></g><g><path fill="#FFFFFF" stroke="rgb(0,0,0)" paint-order="fill stroke markers" d=" M 689.8289667040174 415.9881880199015 L 690.7894503169666 416.78894930397195 L 691.9366281188442 417.28667462549953 L 693.1775625866709 417.44104123902065 L 694.4117205899848 417.2395432795613 L 695.539117987178 416.69850491344243 L 696.46841974602 415.86175785140796 L 697.12433936478 414.7970903640975 L 697.4537381368502 413.5907554795116 L 697.4299301327275 412.3404832756496 L 697.054844135314 411.14756337081326 L 696.3588673813981 410.10863904112466 L 695.3983837684489 409.3078777570542 L 694.2512059665713 408.8101524355266 L 693.0102714987446 408.6557858220055 L 691.7761134954306 408.85728378146484 L 690.6487160982375 409.3983221475837 L 689.7194143393955 410.2350692096182 L 689.0634947206355 411.2997366969286 L 688.7340959485653 412.50607158151456 L 688.757903952688 413.75634378537654 L 689.1329899501014 414.9492636902129 L 689.8289667040174 415.9881880199015 L 689.8289667040174 415.9881880199015 L 689.8289667040174 415.9881880199015 Z" stroke-opacity="1" stroke-linecap="round" stroke-miterlimit="10" stroke-width="0.002834467120181406" stroke-dasharray=""/></g><g><path fill="#FFFFFF" stroke="rgb(0,0,0)" paint-order="fill stroke markers" d=" M 681.1631987276379 407.6960099821611 L 682.1260873585659 408.68679896059376 L 683.3291097464988 409.36617694778965 L 684.6748041722158 409.67910477964267 L 686.0541504764983 409.60023090426955 L 687.3554022250615 409.13594521397204 L 688.4731397400792 408.32386137416466 L 689.3168105755254 407.22976958790014 L 689.818065537816 405.94230666488716 L 689.9362959309843 404.56577519431147 L 689.661923431719 403.21169356937116 L 689.0171760681543 401.98976143028545 L 688.0542874372263 400.9989724518528 L 686.8512650492934 400.3195944646569 L 685.5055706235764 400.0066666328039 L 684.126224319294 400.085540508177 L 682.8249725707307 400.54982619847453 L 681.707235055713 401.3619100382819 L 680.8635642202668 402.45600182454643 L 680.3623092579762 403.74346474755936 L 680.2440788648079 405.1199962181351 L 680.5184513640733 406.4740778430754 L 681.1631987276379 407.6960099821611 L 681.1631987276379 407.6960099821611 L 681.1631987276379 407.6960099821611 Z" stroke-opacity="1" stroke-linecap="round" stroke-miterlimit="10" stroke-width="0.002834467120181406" stroke-dasharray=""/></g><g><path fill="#FFFFFF" stroke="rgb(0,0,0)" paint-order="fill stroke markers" d=" M 675.2424481327594 396.15731292517006 L 676.2301855159095 397.395896427667 L 677.539119394807 398.2883124357059 L 679.0529452501503 398.7552658706693 L 680.6371530113765 398.7552658706693 L 682.1509788667198 398.2883124357059 L 683.4599127456173 397.395896427667 L 684.4476501287675 396.15731292517006 L 685.0264262150631 394.68261550784604 L 685.1448142093199 393.10283751282725 L 684.792294818711 391.5583491477126 L 684.0001909380977 390.1863849816181 L 682.8388844733635 389.10885005146685 L 681.4115626002091 388.42148806448694 L 679.8450491307634 388.1853741496599 L 678.2785356613177 388.42148806448694 L 676.8512137881634 389.10885005146685 L 675.6899073234291 390.1863849816181 L 674.8978034428159 391.5583491477126 L 674.545284052207 393.10283751282725 L 674.6636720464637 394.68261550784604 L 675.2424481327594 396.15731292517006 L 675.2424481327594 396.15731292517006 Z" stroke-opacity="1" stroke-linecap="round" stroke-miterlimit="10" stroke-width="0.002834467120181406" stroke-dasharray=""/></g><g><path fill="#FFFFFF" stroke="rgb(0,0,0)" paint-order="fill stroke markers" d=" M 673.2546250596544 382.374757596747 L 674.1813987500298 383.82550658720965 L 675.4946142573808 384.9386315297714 L 677.0775866209281 385.6152263884173 L 678.7896617994106 385.79517274076903 L 680.478714399902 385.4624815637386 L 681.9946646865632 384.6467139283963 L 683.2028138237864 383.4203543690797 L 683.995812458854 381.89237031442417 L 684.303199183023 380.1985298531336 L 684.0976613369066 378.48933814349004 L 683.3974618601204 376.9166643695596 L 682.2648165489514 375.62024749772115 L 680.8003659098292 374.7152798562693 L 679.1342328086755 374.2821717915321 L 677.4144604832326 374.35940685572496 L 675.7938582517124 374.9401223744538 L 674.4164237342815 375.97271922545144 L 673.4045480325854 377.3654466470301 L 672.8481407432629 378.994554695899 L 672.7966410957239 380.71528997269314 L 673.2546250596544 382.374757596747 L 673.2546250596544 382.374757596747 Z" stroke-opacity="1" stroke-linecap="round" stroke-miterlimit="10" stroke-width="0.002834467120181406" stroke-dasharray=""/></g><g><path fill="#FFFFFF" stroke="rgb(0,0,0)" paint-order="fill stroke markers" d=" M 676.003383099565 367.77041439787365 L 676.8348504674436 369.4328864978838 L 678.1194003268788 370.7764203179957 L 679.7428947857055 371.6816369822913 L 681.5610792366689 372.06810401766995 L 683.4124000123298 371.9014821320557 L 685.1323591373833 371.19657641119346 L 686.5681306956523 370.0160208218096 L 687.5921400834046 368.4647129088038 L 688.1133995727475 366.6804931880493 L 688.0855929705431 364.82189741165433 L 687.5111910154246 363.05406997066484 L 686.4412318418257 361.5340900911957 L 684.9707860177592 360.39701465585955 L 683.2305091076387 359.74387780705945 L 681.3750323520077 359.63271362005503 L 679.5692230032296 360.0733995206977 L 677.9735351466073 361.0267786327971 L 676.7297526507624 362.4081390384079 L 675.9483910487004 364.09474080349133 L 675.6988777477133 365.9367219596897 L 676.003383099565 367.77041439787365 L 676.003383099565 367.77041439787365 Z" stroke-opacity="1" stroke-linecap="round" stroke-miterlimit="10" stroke-width="0.002834467120181406" stroke-dasharray=""/></g><g><path fill="#FFFFFF" stroke="rgb(0,0,0)" paint-order="fill stroke markers" d=" M 683.7663049364762 354.0362960689058 L 684.5171232196193 355.99224456789403 L 685.8356151666655 357.6204465242159 L 687.5927175993646 358.7615221860365 L 689.6164330891513 359.30377511723515 L 691.7086662638304 359.1941258228079 L 693.6646147628187 358.44330753966483 L 695.2928167191404 357.1248155926185 L 696.4338923809611 355.3677131599195 L 696.9761453121598 353.3439976701328 L 696.8664960177325 351.2517644954537 L 696.1156777345894 349.2958159964655 L 694.7971857875432 347.66761404014363 L 693.0400833548441 346.52653837832304 L 691.0163678650574 345.98428544712436 L 688.9241346903783 346.0939347415516 L 686.96818619139 346.8447530246947 L 685.3399842350683 348.163244971741 L 684.1989085732476 349.92034740444 L 683.6566556420489 351.9440628942267 L 683.7663049364762 354.0362960689058 L 683.7663049364762 354.0362960689058 Z" stroke-opacity="1" stroke-linecap="round" stroke-miterlimit="10" stroke-width="0.002834467120181406" stroke-dasharray=""/></g><g><path fill="#FFFFFF" stroke="rgb(0,0,0)" paint-order="fill stroke markers" d=" M 696.2109091683445 342.939225272864 L 696.7904599202076 345.10213812438207 L 698.0100222677619 346.98009945456835 L 699.7502169512381 348.3892813238982 L 701.8407015903684 349.1917431926543 L 704.0768449834117 349.3089345020422 L 706.2397578349297 348.729383750179 L 708.117719165116 347.50982140262477 L 709.5269010344459 345.7696267191485 L 710.3293629032021 343.6791420800182 L 710.4465542125898 341.44299868697493 L 709.8670034607268 339.2800858354569 L 708.6474411131725 337.4021245052706 L 706.9072464296962 335.9929426359407 L 704.8167617905659 335.1904807671846 L 702.5806183975227 335.07328945779676 L 700.4177055460046 335.6528402096599 L 698.5397442158184 336.8724025572142 L 697.1305623464884 338.61259724069043 L 696.3281004777323 340.70308187982073 L 696.2109091683445 342.939225272864 L 696.2109091683445 342.939225272864 Z" stroke-opacity="1" stroke-linecap="round" stroke-miterlimit="10" stroke-width="0.002834467120181406" stroke-dasharray=""/></g><g><path fill="#FFFFFF" stroke="rgb(0,0,0)" paint-order="fill stroke markers" d=" M 712.3823696145125 336.1020408163265 L 712.7552029831542 338.4560180623091 L 713.8372075612737 340.5795716143311 L 715.5224692019954 342.2648332550529 L 717.6460227540174 343.3468378331724 L 720 343.71967120181404 L 722.3539772459826 343.3468378331724 L 724.4775307980046 342.2648332550529 L 726.1627924387263 340.5795716143311 L 727.2447970168458 338.4560180623091 L 727.6176303854875 336.1020408163265 L 727.2447970168458 333.7480635703439 L 726.1627924387263 331.6245100183219 L 724.4775307980046 329.9392483776001 L 722.3539772459826 328.8572437994806 L 720 328.484410430839 L 717.6460227540174 328.8572437994806 L 715.5224692019954 329.9392483776001 L 713.8372075612737 331.6245100183219 L 712.7552029831542 333.7480635703439 L 712.3823696145125 336.1020408163265 L 712.3823696145125 336.1020408163265 Z" stroke-opacity="1" stroke-linecap="round" stroke-miterlimit="10" stroke-width="0.002834467120181406" stroke-dasharray=""/></g><g><path fill="#FFFFFF" stroke="rgb(0,0,0)" paint-order="fill stroke markers" d=" M 730.7686434545993 334.7870767098013 L 730.9297686484203 337.4414572659168 L 731.9440395924466 339.89969889701666 L 733.7015442918577 341.8954129788221 L 736.011829841977 343.21233292387495 L 738.6245409556755 343.7077500220104 L 741.2565498433938 343.3279781434571 L 743.622637502322 342.1141714640242 L 745.4664016209825 340.1978647715794 L 746.5880417481703 337.78671963081115 L 746.8660107720649 335.14202103049325 L 746.2701864357936 332.5503631006971 L 744.8651355513583 330.29259219183234 L 742.8031171836986 328.61337281479956 L 740.307583018462 327.6946744448736 L 737.6489629046539 327.63605230550985 L 735.1153595843471 328.44385901512464 L 732.9813282902028 330.0305561823186 L 731.4781244258489 332.224200548883 L 730.7686434545993 334.7870767098013 L 730.7686434545993 334.7870767098013 Z" stroke-opacity="1" stroke-linecap="round" stroke-miterlimit="10" stroke-width="0.002834467120181406" stroke-dasharray=""/></g><g><path fill="#FFFFFF" stroke="rgb(0,0,0)" paint-order="fill stroke markers" d=" M 749.4395100877466 339.70879783354053 L 749.315610944145 342.5169570523771 L 750.110232805693 345.2131924451557 L 751.7372660638636 347.50532507066606 L 754.0203964191115 349.144966792832 L 756.7122112710283 349.9544369893941 L 759.5210107125978 349.8460170043307 L 762.142417741312 348.8314558253328 L 764.2923622302889 347.02069689868347 L 765.7378643343218 344.6099640509049 L 766.3222814711627 341.86049759242815 L 765.9822829758687 339.0702448763969 L 764.7547129610249 336.5415730798249 L 762.7725976854513 334.5485030282563 L 760.2507300949435 333.30701478744675 L 757.4623936737404 332.9516428719629 L 754.7097479385769 333.52089734301086 L 752.2910847665571 334.9530906457593 L 750.4685038417955 337.0930224130867 L 749.4395100877466 339.70879783354053 L 749.4395100877466 339.70879783354053 Z" stroke-opacity="1" stroke-linecap="round" stroke-miterlimit="10" stroke-width="0.002834467120181406" stroke-dasharray=""/></g><g><path fill="#FFFFFF" stroke="rgb(0,0,0)" paint-order="fill stroke markers" d=" M 766.2468869793768 350.9002367150494 L 765.8076535493485 353.8300106146346 L 766.3435150281815 356.7436601447339 L 767.7964025098967 359.3254461688304 L 770.0088730919781 361.2955921106756 L 772.741171256839 362.44060208750653 L 775.6972101023426 362.6363965016732 L 778.5566569519099 361.86175799033725 L 781.0096463705008 360.2006306559569 L 782.7903588925587 357.8330234202586 L 783.7058266857169 355.0155032644416 L 783.6568446096402 352.05339221571836 L 782.6487206323069 349.2676809681067 L 780.7907006293161 346.96024456004875 L 778.2841298981429 345.3811295299226 L 775.4006342709619 344.70145749373665 L 772.4526852410229 344.9948814628098 L 769.759738827862 346.22960439715115 L 767.6136175607139 348.2718249081244 L 766.2468869793768 350.9002367150494 L 766.2468869793768 350.9002367150494 Z" stroke-opacity="1" stroke-linecap="round" stroke-miterlimit="10" stroke-width="0.002834467120181406" stroke-dasharray=""/></g><g><path fill="#FFFFFF" stroke="rgb(0,0,0)" paint-order="fill stroke markers" d=" M 779.0657923357835 367.6526066090809 L 778.2709735918494 370.8404504728691 L 778.6143950985047 374.10788784860677 L 780.0546351536855 377.06081756654015 L 782.4179795510572 379.3430727220853 L 785.4193740770485 380.67937966098464 L 788.6968062559591 380.90856004461693 L 791.8549693972652 380.0029713363739 L 794.512942416601 378.0718408995356 L 796.350134540331 375.3480915652345 L 797.1449532842652 372.1602477014463 L 796.8015317776099 368.89281032570864 L 795.3612917224291 365.93988060777525 L 792.9979473250573 363.6576254522301 L 789.9965527990661 362.32131851333077 L 786.7191206201554 362.09213812969847 L 783.5609574788494 362.9977268379415 L 780.9029844595135 364.92885727477983 L 779.0657923357835 367.6526066090809 L 779.0657923357835 367.6526066090809 L 779.0657923357835 367.6526066090809 Z" stroke-opacity="1" stroke-linecap="round" stroke-miterlimit="10" stroke-width="0.002834467120181406" stroke-dasharray=""/></g><g><path fill="#FFFFFF" stroke="rgb(0,0,0)" paint-order="fill stroke markers" d=" M 786.0494456351695 388.53968253968253 L 784.8710493134655 391.77729982473284 L 784.8710493134655 395.22270017526716 L 786.0494456351695 398.46031746031747 L 788.2641062909026 401.09964725316445 L 791.2479105206733 402.8223474284316 L 794.6409674981104 403.42063492063494 L 798.0340244755475 402.8223474284316 L 801.0178287053182 401.09964725316445 L 803.2324893610513 398.46031746031747 L 804.4108856827553 395.22270017526716 L 804.4108856827553 391.77729982473284 L 803.2324893610513 388.53968253968253 L 801.0178287053182 385.90035274683555 L 798.0340244755477 384.1776525715684 L 794.6409674981104 383.57936507936506 L 791.2479105206733 384.1776525715684 L 788.2641062909026 385.9003527468355 L 786.0494456351696 388.53968253968253 L 786.0494456351695 388.53968253968253 L 786.0494456351695 388.53968253968253 Z" stroke-opacity="1" stroke-linecap="round" stroke-miterlimit="10" stroke-width="0.002834467120181406" stroke-dasharray=""/></g><g><path fill="#FFFFFF" stroke="rgb(0,0,0)" paint-order="fill stroke markers" d=" M 785.8689973980534 411.5290666340947 L 784.2885092476116 414.769547560516 L 783.9116459463006 418.35516235861013 L 784.7838627701685 421.8534329656885 L 786.7999574977074 424.842416317562 L 789.7167593503868 426.96159690929846 L 793.1824589773631 427.9553702857599 L 796.7790418553437 427.7038727112121 L 800.0727070093342 426.2374385048544 L 802.6661898124426 423.7329412742375 L 804.2466779628843 420.4924603478162 L 804.6235412641953 416.90684554972205 L 803.7513244403274 413.40857494264367 L 801.7352297127885 410.4195915907702 L 798.8184278601091 408.3004109990337 L 795.3527282331328 407.3066376225723 L 791.7561453551522 407.55813519712007 L 788.4624802011617 409.02456940347776 L 785.8689973980534 411.5290666340947 L 785.8689973980534 411.5290666340947 L 785.8689973980534 411.5290666340947 Z" stroke-opacity="1" stroke-linecap="round" stroke-miterlimit="10" stroke-width="0.002834467120181406" stroke-dasharray=""/></g><g><path fill="#FFFFFF" stroke="rgb(0,0,0)" paint-order="fill stroke markers" d=" M 777.9087110187121 434.1723295208546 L 775.9133899125133 437.3655107836289 L 775.1305337060788 441.04855966381257 L 775.6545664116318 444.77724611044306 L 777.4222819509833 448.1018355085056 L 780.220467741385 450.62133331088 L 783.7116212796902 452.0318508987725 L 787.4746579252406 452.1632590340608 L 791.0556999220768 450.9997079562515 L 794.022820754829 448.6815390975135 L 796.0181418610279 445.4883578347392 L 796.8009980674623 441.8053089545555 L 796.2769653619093 438.07662250792504 L 794.5092498225578 434.7520331098625 L 791.7110640321561 432.2325353074881 L 788.2199104938509 430.8220177195956 L 784.4568738483005 430.6906095843073 L 780.8758318514643 431.8541606621166 L 777.9087110187121 434.1723295208546 L 777.9087110187121 434.1723295208546 L 777.9087110187121 434.1723295208546 Z" stroke-opacity="1" stroke-linecap="round" stroke-miterlimit="10" stroke-width="0.002834467120181406" stroke-dasharray=""/></g><g><path fill="#FFFFFF" stroke="rgb(0,0,0)" paint-order="fill stroke markers" d=" M 762.3911645551211 453.85639519014853 L 759.8676695640631 457.15558542292314 L 758.7063855406165 461.14358022969225 L 759.0641503270446 465.28177881355964 L 760.8926458064971 469.0112945252241 L 763.9449235324307 471.8284356018653 L 767.8087564847035 473.35273153076525 L 771.9623126128735 473.3783177003108 L 775.8446311461821 471.9017385565268 L 778.9313834540367 469.12241429478894 L 780.8056865329762 465.41570805741225 L 781.2144053663181 461.28223106132265 L 780.1023402108303 457.28023227922887 L 777.6196816279273 453.95020382249345 L 774.1017264161161 451.7418844865232 L 770.0235939204146 450.95352003436074 L 765.9360585320795 451.6915834537488 L 762.3911645551211 453.85639519014853 L 762.3911645551211 453.85639519014853 L 762.3911645551211 453.85639519014853 Z" stroke-opacity="1" stroke-linecap="round" stroke-miterlimit="10" stroke-width="0.002834467120181406" stroke-dasharray=""/></g><g><path fill="#FFFFFF" stroke="rgb(0,0,0)" paint-order="fill stroke markers" d=" M 740.4138929350471 468.0905407646053 L 737.4430338072594 471.2308443283677 L 735.807198664832 475.23228829480496 L 735.727316108225 479.55445548348337 L 737.2141747193527 483.6136132656166 L 740.0669660038145 486.861549890158 L 743.9004046907814 488.85961351852495 L 748.1967636437616 489.33795458605385 L 752.3757957792084 488.2319704809955 L 755.873099650413 485.69103048520753 L 758.2163449903397 482.05830262495573 L 759.0890635314606 477.824406927407 L 758.373389798897 473.5611544673412 L 756.1659794959168 469.84432111298776 L 752.7649556156199 467.1758858045366 L 748.6296452787645 465.91623551670466 L 744.3185450608886 466.2354930008267 L 740.4138929350471 468.0905407646053 L 740.4138929350471 468.0905407646053 L 740.4138929350471 468.0905407646053 Z" stroke-opacity="1" stroke-linecap="round" stroke-miterlimit="10" stroke-width="0.002834467120181406" stroke-dasharray=""/></g><g><path fill="#FFFFFF" stroke="rgb(0,0,0)" paint-order="fill stroke markers" d=" M 713.8881802721088 474.79799351713797 L 710.4767999499944 477.7206852430508 L 708.3515805645064 481.67834682413314 L 707.7995447699022 486.13647413369983 L 708.8952480591788 490.4929723752577 L 711.4907096316182 494.1594723210943 L 715.2353980199131 496.6407928367468 L 719.6235723071896 497.60181783710476 L 724.0625852402381 496.9127555706464 L 727.9529235250305 494.66666771468283 L 730.7691754190971 491.1669008801643 L 732.1309904987535 486.88611797097013 L 731.8544480914144 482.40246243962383 L 729.9768967815652 478.3214768104269 L 726.7519102774722 475.19432080612415 L 722.6150408767801 473.4433341732664 L 718.1249957152372 473.304997359173 L 713.8881802721089 474.79799351713797 L 713.8881802721088 474.79799351713797 L 713.8881802721088 474.79799351713797 Z" stroke-opacity="1" stroke-linecap="round" stroke-miterlimit="10" stroke-width="0.002834467120181406" stroke-dasharray=""/></g><g><path fill="#FFFFFF" stroke="rgb(0,0,0)" paint-order="fill stroke markers" d=" M 685.3814680973878 472.57903885613104 L 681.3397905675812 475.4354141302838 L 678.6988549148176 479.6210438128641 L 677.860719652089 484.4987037275267 L 678.9529832754308 489.3258143683613 L 681.8093585495835 493.367491898168 L 685.9949882321638 496.0084275509316 L 690.8726481468264 496.8465628136601 L 695.699758787661 495.75429919031836 L 699.7414363174677 492.8979239161656 L 702.3823719702312 488.7122942335853 L 703.2205072329599 483.8346343189227 L 702.128243609618 479.0075236780881 L 699.2718683354653 474.9658461482814 L 695.0862386528851 472.3249104955178 L 690.2085787382225 471.4867752327893 L 685.3814680973878 472.57903885613104 L 685.3814680973878 472.57903885613104 Z" stroke-opacity="1" stroke-linecap="round" stroke-miterlimit="10" stroke-width="0.002834467120181406" stroke-dasharray=""/></g><g><path fill="#FFFFFF" stroke="rgb(0,0,0)" paint-order="fill stroke markers" d=" M 657.8759003576913 460.91416570195054 L 653.400988190125 463.4202369288458 L 650.2257403675844 467.4480195902063 L 648.8335595873581 472.3843202877807 L 649.4363927530854 477.4776319880407 L 651.9424639799806 481.95254415560703 L 655.9702466413412 485.1277919781476 L 660.9065473389156 486.5199727583739 L 665.9998590391756 485.91713959264655 L 670.4747712067419 483.4110683657513 L 673.6500190292825 479.3832857043908 L 675.0421998095088 474.44698500681636 L 674.4393666437815 469.3536733065564 L 671.9332954168863 464.87876113899006 L 667.9055127555257 461.70351331644946 L 662.9692120579513 460.3113325362232 L 657.8759003576913 460.91416570195054 L 657.8759003576913 460.91416570195054 Z" stroke-opacity="1" stroke-linecap="round" stroke-miterlimit="10" stroke-width="0.002834467120181406" stroke-dasharray=""/></g><g><path fill="#FFFFFF" stroke="rgb(0,0,0)" paint-order="fill stroke markers" d=" M 634.4656395132795 440.28102687781444 L 629.5881626954962 442.3765562943014 L 625.8838860829711 446.17910260187944 L 623.9167522106102 451.109762595388 L 623.9862393783673 456.41788798735956 L 626.0817687948542 461.29536480514287 L 629.8843151024323 464.99964141766793 L 634.8149750959408 466.96677529002886 L 640.1231004879123 466.89728812227173 L 645.0005773056956 464.8017587057848 L 648.7048539182207 460.99921239820674 L 650.6719877905816 456.06855240469815 L 650.6025006228246 450.7604270127266 L 648.5069712063377 445.8829501949433 L 644.7044248987595 442.17867358241824 L 639.7737649052509 440.2115397100573 L 634.4656395132795 440.28102687781444 L 634.4656395132795 440.28102687781444 Z" stroke-opacity="1" stroke-linecap="round" stroke-miterlimit="10" stroke-width="0.002834467120181406" stroke-dasharray=""/></g><g><path fill="#FFFFFF" stroke="rgb(0,0,0)" paint-order="fill stroke markers" d=" M 618.0235838581726 412.16742829132914 L 612.4608641840392 413.9748654780774 L 608.1142178275038 417.8886034366343 L 605.735219431654 423.2319213187722 L 605.735219431654 429.08091092015053 L 608.1142178275038 434.42422880228844 L 612.4608641840392 438.33796676084535 L 618.0235838581726 440.1454039475936 L 623.8405320825248 439.53401805289303 L 628.9059056637893 436.6095232522039 L 632.3438554922915 431.8775912647665 L 633.5599288098896 426.15641611946137 L 632.3438554922915 420.4352409741562 L 628.9059056637893 415.7033089867188 L 623.8405320825248 412.7788141860297 L 618.0235838581726 412.16742829132914 L 618.0235838581726 412.16742829132914 L 618.0235838581726 412.16742829132914 Z" stroke-opacity="1" stroke-linecap="round" stroke-miterlimit="10" stroke-width="0.002834467120181406" stroke-dasharray=""/></g><g><path fill="#FFFFFF" stroke="rgb(0,0,0)" paint-order="fill stroke markers" d=" M 610.8730158730159 378.97335600907036 L 604.9644974609879 380.22925036729504 L 600.0776155596042 383.77977789799 L 597.0573564455424 389.01102013556806 L 596.4259503578163 395.01844777280826 L 598.2925731451382 400.76332199546493 L 602.3344687698443 405.2523018598969 L 607.8527567589541 407.7092019664421 L 613.8932749870777 407.7092019664421 L 619.4115629761875 405.2523018598969 L 623.4534586008936 400.7633219954649 L 625.3200813882155 395.0184477728082 L 624.6886753004894 389.01102013556806 L 621.6684161864276 383.77977789799 L 616.7815342850439 380.22925036729504 L 610.8730158730159 378.97335600907036 L 610.8730158730159 378.97335600907036 L 610.8730158730159 378.97335600907036 Z" stroke-opacity="1" stroke-linecap="round" stroke-miterlimit="10" stroke-width="0.002834467120181406" stroke-dasharray=""/></g><g><path fill="#FFFFFF" stroke="rgb(0,0,0)" paint-order="fill stroke markers" d=" M 614.5008492365982 343.80708763694804 L 608.30294218647 344.4585139176995 L 602.9058312925785 347.57453734513405 L 599.2427260596907 352.61636916046405 L 597.9470106608394 358.7122308392149 L 599.2427260596907 364.80809251796575 L 602.9058312925785 369.84992433329575 L 608.30294218647 372.9659477607303 L 614.5008492365982 373.61737404148175 L 620.4278780077782 371.6915656535863 L 625.0591913801068 367.5215123627309 L 627.5939931973473 361.8282542666494 L 627.5939931973473 355.59620741178037 L 625.0591913801068 349.9029493156989 L 620.4278780077782 345.7328960248435 L 614.5008492365982 343.80708763694804 L 614.5008492365982 343.80708763694804 L 614.5008492365982 343.80708763694804 Z" stroke-opacity="1" stroke-linecap="round" stroke-miterlimit="10" stroke-width="0.002834467120181406" stroke-dasharray=""/></g><g><path fill="#FFFFFF" stroke="rgb(0,0,0)" paint-order="fill stroke markers" d=" M 629.3462483329807 310.1924203953955 L 622.472079473836 310.2952653934202 L 616.3232901113348 313.3705156227911 L 612.1177233886733 318.80908006011236 L 610.6883433731656 325.5337843189568 L 612.3182563070784 332.2127182477749 L 616.6846379442801 337.52303707021497 L 622.9226728513662 340.4129670167064 L 629.796841710511 340.3101220186817 L 635.9456310730121 337.2348717893108 L 640.1511977956736 331.7963073519895 L 641.5805778111813 325.0716030931451 L 639.9506648772685 318.392669164327 L 635.5842832400668 313.0823503418869 L 629.3462483329807 310.1924203953955 L 629.3462483329807 310.1924203953955 Z" stroke-opacity="1" stroke-linecap="round" stroke-miterlimit="10" stroke-width="0.002834467120181406" stroke-dasharray=""/></g><g><path fill="#FFFFFF" stroke="rgb(0,0,0)" paint-order="fill stroke markers" d=" M 654.6916368956962 281.7146513304688 L 647.640213751334 281.08001176069564 L 641.0117412343319 283.56771910596694 L 636.1190696195628 288.68505241682345 L 633.9312525250112 295.4184610710755 L 634.8816139580689 302.4343109049107 L 638.7819231815007 308.3430268149864 L 644.8596761194525 311.974315149667 L 651.9110992638147 312.6089547194402 L 658.5395717808168 310.1212473741689 L 663.4322433955859 305.0039140633124 L 665.6200604901375 298.2705054090603 L 664.6696990570798 291.2546555752251 L 660.769389833648 285.34593966514944 L 654.6916368956962 281.7146513304688 L 654.6916368956962 281.7146513304688 Z" stroke-opacity="1" stroke-linecap="round" stroke-miterlimit="10" stroke-width="0.002834467120181406" stroke-dasharray=""/></g><g><path fill="#FFFFFF" stroke="rgb(0,0,0)" paint-order="fill stroke markers" d=" M 688.6730927561485 261.6409412096962 L 681.5255135869562 260.23308894622903 L 674.474923070448 262.0658762618071 L 668.9177771282361 266.77629715091877 L 665.9547366680983 273.43139498695444 L 666.1726681924712 280.71304602406855 L 669.528407690198 287.17902997077124 L 675.3573097983098 291.548679406329 L 682.5048889675021 292.95653166979616 L 689.5554794840103 291.1237443542181 L 695.1126254262222 286.41332346510643 L 698.07566588636 279.75822562907075 L 697.8577343619871 272.47657459195665 L 694.5019948642603 266.01059064525396 L 688.6730927561485 261.6409412096962 L 688.6730927561485 261.6409412096962 Z" stroke-opacity="1" stroke-linecap="round" stroke-miterlimit="10" stroke-width="0.002834467120181406" stroke-dasharray=""/></g><g><path fill="#FFFFFF" stroke="rgb(0,0,0)" paint-order="fill stroke markers" d=" M 728.4148242630386 252.55510439823288 L 720.6776616196136 250.31400790822838 L 712.7852548658428 251.92525428335466 L 706.5456592752033 257.01972639669407 L 703.3882910022319 264.43034208212504 L 704.0364650678538 272.4594185937157 L 708.3416926049795 279.26759126352204 L 715.3176978684695 283.2951897802663 L 723.3663621224356 283.61953986158625 L 730.6438333832131 280.16633681269377 L 735.482930687994 273.7266678364821 L 736.7750751616975 265.7757834889771 L 734.2242520774271 258.1351355556487 L 728.4148242630386 252.5551043982329 L 728.4148242630386 252.55510439823288 L 728.4148242630386 252.55510439823288 Z" stroke-opacity="1" stroke-linecap="round" stroke-miterlimit="10" stroke-width="0.002834467120181406" stroke-dasharray=""/></g><g><path fill="#FFFFFF" stroke="rgb(0,0,0)" paint-order="fill stroke markers" d=" M 770.2791053893329 256.0470745124569 L 762.6144034714989 252.92636767865807 L 754.3773821946954 253.7250835963995 L 747.4550438665708 258.26024607449693 L 743.4332127748779 265.4929040438509 L 743.2332419544049 273.76614272665984 L 746.9009423102124 281.18466284402666 L 753.5960878913658 286.0489708399218 L 761.7849015304737 287.2447123737518 L 769.591424708719 284.4979574703638 L 775.2272770447686 278.4379545761391 L 777.4013526878168 270.4529773231927 L 775.6155971084931 262.37228777076706 L 770.279105389333 256.0470745124569 L 770.2791053893329 256.0470745124569 L 770.2791053893329 256.0470745124569 Z" stroke-opacity="1" stroke-linecap="round" stroke-miterlimit="10" stroke-width="0.002834467120181406" stroke-dasharray=""/></g><g><path fill="#FFFFFF" stroke="rgb(0,0,0)" paint-order="fill stroke markers" d=" M 810.2101295378121 272.49312125354976 L 802.7192440752204 268.4843093993588 L 794.2234066438843 268.41587084094755 L 786.6689112133827 272.30348402727395 L 781.7864016453042 279.25654362816846 L 780.6944020410766 287.68218748251786 L 783.6430763500068 295.65020212330666 L 789.9569188232964 301.3352114213161 L 798.1895042403652 303.4348482581613 L 806.4548464955719 301.46811113788783 L 812.8594552864213 295.88555583299876 L 815.9361119228325 287.96607848675956 L 814.9799914471357 279.5239359191454 L 810.2101295378121 272.4931212535498 L 810.2101295378121 272.49312125354976 L 810.2101295378121 272.49312125354976 Z" stroke-opacity="1" stroke-linecap="round" stroke-miterlimit="10" stroke-width="0.002834467120181406" stroke-dasharray=""/></g><g><path fill="#FFFFFF" stroke="rgb(0,0,0)" paint-order="fill stroke markers" d=" M 844.1391492792249 300.9546310995012 L 836.2330514480649 295.82035113538365 L 826.8190298994166 295.32698317189625 L 818.4195641047693 299.606724756427 L 813.2852841406517 307.5128225875869 L 812.7919161771644 316.9268441362353 L 817.0716577616951 325.3263099308826 L 824.9777555928549 330.46058989500017 L 834.3917771415033 330.95395785848757 L 842.7912429361506 326.6742162739568 L 847.9255229002682 318.7681184427969 L 848.4188908637556 309.35409689414854 L 844.1391492792249 300.9546310995012 L 844.1391492792249 300.9546310995012 Z" stroke-opacity="1" stroke-linecap="round" stroke-miterlimit="10" stroke-width="0.002834467120181406" stroke-dasharray=""/></g><g><path fill="#FFFFFF" stroke="rgb(0,0,0)" paint-order="fill stroke markers" d=" M 868.4102726225632 339.2116617876478 L 860.8988729224976 333.12905024358895 L 851.3525041922326 331.6170539751143 L 842.3291082236923 335.08081116132047 L 836.2464966796334 342.59221086138604 L 834.7345004111587 352.138579591651 L 838.1982575973649 361.1619755601913 L 845.7096572974305 367.2445871042502 L 855.2560260276955 368.75658337272483 L 864.2794219962358 365.29282618651865 L 870.3620335402946 357.7814264864531 L 871.8740298087694 348.23505775618804 L 868.4102726225632 339.2116617876478 L 868.4102726225632 339.2116617876478 Z" stroke-opacity="1" stroke-linecap="round" stroke-miterlimit="10" stroke-width="0.002834467120181406" stroke-dasharray=""/></g><g><path fill="#FFFFFF" stroke="rgb(0,0,0)" paint-order="fill stroke markers" d=" M 880.1823643486724 383.9336734693877 L 873.1793272864702 376.93063640718543 L 863.6130007558579 374.3673469387754 L 854.0466742252456 376.93063640718543 L 847.0436371630434 383.9336734693877 L 844.4803476946335 393.49999999999994 L 847.0436371630434 403.0663265306122 L 854.0466742252456 410.06936359281445 L 863.6130007558579 412.63265306122446 L 873.1793272864702 410.06936359281445 L 880.1823643486724 403.0663265306122 L 882.7456538170824 393.49999999999994 L 880.1823643486724 383.9336734693877 L 880.1823643486724 383.9336734693877 Z" stroke-opacity="1" stroke-linecap="round" stroke-miterlimit="10" stroke-width="0.002834467120181406" stroke-dasharray=""/></g><g><path fill="#FFFFFF" stroke="rgb(0,0,0)" paint-order="fill stroke markers" d=" M 877.7632234402911 430.9752400214249 L 871.3805210041155 423.0932589319823 L 861.9119480048693 419.4586142944642 L 851.8946009311757 421.04520620426786 L 844.012619841733 427.42790864044343 L 840.377975204215 436.8964816396897 L 841.9645671140186 446.91382871338334 L 848.3472695501941 454.79580980282594 L 857.8158425494404 458.43045444034396 L 867.833189623134 456.8438625305404 L 875.7151707125767 450.4611600943648 L 879.3498153500947 440.99258709511855 L 877.7632234402911 430.9752400214249 L 877.7632234402911 430.9752400214249 Z" stroke-opacity="1" stroke-linecap="round" stroke-miterlimit="10" stroke-width="0.002834467120181406" stroke-dasharray=""/></g><g><path fill="#FFFFFF" stroke="rgb(0,0,0)" paint-order="fill stroke markers" d=" M 860.8376622848581 475.77069631952253 L 854.4596528118126 466.44315476603964 L 844.0512801198563 462.04453973678943 L 832.9171289966381 463.9713804244301 L 824.5922137536273 471.6119185250415 L 821.7196361594396 482.540337177142 L 825.211419303566 493.28694067520604 L 833.9589467095072 500.4397583404701 L 845.1849402329522 501.7278211036075 L 855.3252262492869 496.7421781383386 L 861.1603355961623 487.0657358592665 L 860.8376622848581 475.77069631952253 L 860.8376622848581 475.77069631952253 L 860.8376622848581 475.77069631952253 Z" stroke-opacity="1" stroke-linecap="round" stroke-miterlimit="10" stroke-width="0.002834467120181406" stroke-dasharray=""/></g><g><path fill="#FFFFFF" stroke="rgb(0,0,0)" paint-order="fill stroke markers" d=" M 830.5608811810198 513.790095093081 L 825.0695096529151 503.6185915316291 L 814.9507439545927 498.03063781825955 L 803.4172206994876 498.80036977437305 L 794.130752029115 505.6834029425696 L 790.0397261312656 516.4944229251354 L 792.4430148226992 527.8010072646225 L 800.5775909247118 536.0133953217514 L 811.8607840010828 538.5242119143447 L 822.7102599732971 534.5362905148365 L 829.6813868789104 525.3157679902645 L 830.5608811810198 513.7900950930812 L 830.5608811810198 513.790095093081 L 830.5608811810198 513.790095093081 Z" stroke-opacity="1" stroke-linecap="round" stroke-miterlimit="10" stroke-width="0.002834467120181406" stroke-dasharray=""/></g><g><path fill="#FFFFFF" stroke="rgb(0,0,0)" paint-order="fill stroke markers" d=" M 789.5017170635317 541.010850085252 L 785.0048916236872 530.0810499546388 L 775.312825258652 523.3174843633744 L 763.5026805584561 522.8675375976145 L 753.3240950189169 528.8740645763157 L 748.0086976303893 539.4300354238322 L 749.2440895069276 551.1840039810032 L 756.6380424565928 560.4041682805004 L 767.8430286610411 564.163191303801 L 779.3015441710096 561.2676098009948 L 787.3755912740851 552.6367504400215 L 789.5017170635317 541.010850085252 L 789.5017170635317 541.010850085252 L 789.5017170635317 541.010850085252 Z" stroke-opacity="1" stroke-linecap="round" stroke-miterlimit="10" stroke-width="0.002834467120181406" stroke-dasharray=""/></g><g><path fill="#FFFFFF" stroke="rgb(0,0,0)" paint-order="fill stroke markers" d=" M 741.435657596372 554.3560090702947 L 737.3418112810674 541.7564456619561 L 726.6239824828815 533.9694872321935 L 713.3760175171187 533.9694872321935 L 702.6581887189328 541.7564456619561 L 698.5643424036282 554.3560090702947 L 702.6581887189328 566.9555724786333 L 713.3760175171187 574.7425309083959 L 726.6239824828815 574.7425309083959 L 737.3418112810674 566.9555724786333 L 741.435657596372 554.3560090702947 L 741.435657596372 554.3560090702947 Z" stroke-opacity="1" stroke-linecap="round" stroke-miterlimit="10" stroke-width="0.002834467120181406" stroke-dasharray=""/></g><g><path fill="#FFFFFF" stroke="rgb(0,0,0)" paint-order="fill stroke markers" d=" M 691.0033915375628 552.0517529478034 L 688.1897991410631 538.8148414434309 L 678.1330937088799 529.7597431999811 L 664.6745949012615 528.3451979749823 L 652.9549918251683 535.1115139657603 L 647.45077452101 547.4741884424598 L 650.2643669175097 560.7110999468323 L 660.3210723496929 569.766198190282 L 673.7795711573114 571.1807434152809 L 685.4991742334045 564.4144274245028 L 691.0033915375628 552.0517529478034 L 691.0033915375628 552.0517529478034 Z" stroke-opacity="1" stroke-linecap="round" stroke-miterlimit="10" stroke-width="0.002834467120181406" stroke-dasharray=""/></g><g><path fill="#FFFFFF" stroke="rgb(0,0,0)" paint-order="fill stroke markers" d=" M 643.2654441211595 533.863452130808 L 641.8211430904569 520.1218457430941 L 632.575565434119 509.8535914911401 L 619.0602075712402 506.9808134940667 L 606.4374768353222 512.6008153046231 L 599.5288273366476 524.5669472480128 L 600.9731283673502 538.3085536357266 L 610.2187060236881 548.5768078876806 L 623.7340638865669 551.4495858847541 L 636.3567946224849 545.8295840741977 L 643.2654441211595 533.863452130808 L 643.2654441211595 533.863452130808 Z" stroke-opacity="1" stroke-linecap="round" stroke-miterlimit="10" stroke-width="0.002834467120181406" stroke-dasharray=""/></g><g><path fill="#FFFFFF" stroke="rgb(0,0,0)" paint-order="fill stroke markers" d=" M 603.1955172787109 501.1808844761444 L 602.6508037670518 485.5823303896466 L 592.2069717125273 473.98327980711747 L 576.7508062037139 471.81105740521053 L 563.5144188583308 480.0820701873409 L 558.6912624213421 494.92621935068183 L 564.5381453930278 509.39776252736453 L 578.31924625007 516.725303831732 L 593.5862347415831 513.4802052509202 L 603.1955172787109 501.1808844761444 L 603.1955172787109 501.1808844761444 Z" stroke-opacity="1" stroke-linecap="round" stroke-miterlimit="10" stroke-width="0.002834467120181406" stroke-dasharray=""/></g><g><path fill="#FFFFFF" stroke="rgb(0,0,0)" paint-order="fill stroke markers" d=" M 575.1631511484414 456.9379870124614 L 576.2738926648916 441.0536432882349 L 566.9145106973747 428.17155916136085 L 551.4643640864361 424.3194049632212 L 537.152748140587 431.29964645505066 L 530.6762270167843 445.84615106607924 L 535.0652369273697 461.1524476224159 L 548.2661113567688 470.05654985481294 L 564.1020144480884 468.39212937065844 L 575.1631511484414 456.9379870124614 L 575.1631511484414 456.9379870124614 Z" stroke-opacity="1" stroke-linecap="round" stroke-miterlimit="10" stroke-width="0.002834467120181406" stroke-dasharray=""/></g><g><path fill="#FFFFFF" stroke="rgb(0,0,0)" paint-order="fill stroke markers" d=" M 562.4592670730196 405.36933106575975 L 565.2790011285258 389.3778245806108 L 557.159900503944 375.3151297870709 L 541.9009826152683 369.76133786848084 L 526.6420647265926 375.3151297870709 L 518.5229641020107 389.3778245806108 L 521.3426981575169 405.36933106575975 L 533.7818819906864 415.80704563231865 L 550.0200832398501 415.80704563231865 L 562.4592670730196 405.36933106575975 L 562.4592670730196 405.36933106575975 Z" stroke-opacity="1" stroke-linecap="round" stroke-miterlimit="10" stroke-width="0.002834467120181406" stroke-dasharray=""/></g><g><path fill="#FFFFFF" stroke="rgb(0,0,0)" paint-order="fill stroke markers" d=" M 566.9155689364271 351.6226703563825 L 571.2392838410611 333.61310165817406 L 561.5619238172969 317.8210853764418 L 543.5523551190885 313.4973704718078 L 527.7603388373562 323.17473049557196 L 523.4366239327222 341.1842991937805 L 533.1139839564864 356.97631547551276 L 551.1235526546949 361.3000303801467 L 566.9155689364271 351.6226703563825 L 566.9155689364271 351.6226703563825 Z" stroke-opacity="1" stroke-linecap="round" stroke-miterlimit="10" stroke-width="0.002834467120181406" stroke-dasharray=""/></g><g><path fill="#FFFFFF" stroke="rgb(0,0,0)" paint-order="fill stroke markers" d=" M 588.6607638381946 301.2626194511528 L 594.9609820091455 283.4713521761083 L 586.8355832646934 266.436099448388 L 569.0443159896489 260.1358812774372 L 552.0090632619286 268.2612800218893 L 545.7088450909778 286.05254729693377 L 553.8342438354299 303.08780002465403 L 571.6255111104743 309.3880181956049 L 588.6607638381946 301.2626194511528 L 588.6607638381946 301.2626194511528 Z" stroke-opacity="1" stroke-linecap="round" stroke-miterlimit="10" stroke-width="0.002834467120181406" stroke-dasharray=""/></g><g><path fill="#FFFFFF" stroke="rgb(0,0,0)" paint-order="fill stroke markers" d=" M 626.0437844168863 259.7130796667581 L 634.3209506666228 242.35963974728446 L 627.9030560068468 224.23606431911418 L 610.549616087373 215.9588980693777 L 592.4260406592028 222.37679272915378 L 584.1488744094663 239.73023264862746 L 590.5667690692424 257.85380807679775 L 607.9202089887161 266.1309743265342 L 626.0437844168863 259.7130796667581 L 626.0437844168863 259.7130796667581 Z" stroke-opacity="1" stroke-linecap="round" stroke-miterlimit="10" stroke-width="0.002834467120181406" stroke-dasharray=""/></g><g><path fill="#FFFFFF" stroke="rgb(0,0,0)" paint-order="fill stroke markers" d=" M 675.7378440554303 231.69402556987515 L 686.2569781926065 212.1461988115971 L 677.5324446780673 191.73413794256084 L 656.133995196311 185.82854112731127 L 638.1750986559217 198.87644321995248 L 637.1791704465402 221.05250781602808 L 653.896164823064 235.65770596541418 L 675.7378440554303 231.69402556987515 L 675.7378440554303 231.69402556987515 Z" stroke-opacity="1" stroke-linecap="round" stroke-miterlimit="10" stroke-width="0.002834467120181406" stroke-dasharray=""/></g><g><path fill="#FFFFFF" stroke="rgb(0,0,0)" paint-order="fill stroke markers" d=" M 733.0208333333342 220.71071919105117 L 745.7508027662803 202.03928331583597 L 739.0898924955693 180.44514258804708 L 718.0539038128545 172.1891254159048 L 698.4833652521886 183.48818112209122 L 695.1152915159868 205.83389030111533 L 710.4859108237927 222.3994781717742 L 733.0208333333342 220.71071919105117 L 733.0208333333342 220.71071919105117 Z" stroke-opacity="1" stroke-linecap="round" stroke-miterlimit="10" stroke-width="0.002834467120181406" stroke-dasharray=""/></g><g><path fill="#FFFFFF" stroke="rgb(0,0,0)" paint-order="fill stroke markers" d=" M 792.2091255241556 228.6499046280943 L 807.0794976478944 211.10649819967267 L 802.6350355614178 188.5422381193349 L 782.2225098663472 177.94847245459914 L 761.2129687507121 187.30252282444897 L 755.4270251911221 209.5605985125333 L 769.2216126996882 227.96191454372425 L 792.2091255241556 228.6499046280943 L 792.2091255241556 228.6499046280943 Z" stroke-opacity="1" stroke-linecap="round" stroke-miterlimit="10" stroke-width="0.002834467120181406" stroke-dasharray=""/></g><g><path fill="#FFFFFF" stroke="rgb(0,0,0)" paint-order="fill stroke markers" d=" M 847.2052208335037 255.52823855613798 L 865.2469013691858 235.49092236465927 L 856.9149167915451 209.84771059805593 L 830.5412516782222 204.2418150229313 L 812.49957114254 224.27913121441 L 820.8315557201807 249.92234298101334 L 847.2052208335036 255.528238556138 L 847.2052208335037 255.52823855613798 L 847.2052208335037 255.52823855613798 Z" stroke-opacity="1" stroke-linecap="round" stroke-miterlimit="10" stroke-width="0.002834467120181406" stroke-dasharray=""/></g><g><path fill="#FFFFFF" stroke="rgb(0,0,0)" paint-order="fill stroke markers" d=" M 892.1066104510703 299.4239273310932 L 912.4862198232183 281.0740446312011 L 906.7845599347212 254.24984384577144 L 880.703290674076 245.7755257602339 L 860.323681301928 264.125408460126 L 866.0253411904251 290.9496092455556 L 892.1066104510703 299.4239273310932 L 892.1066104510703 299.4239273310932 L 892.1066104510703 299.4239273310932 Z" stroke-opacity="1" stroke-linecap="round" stroke-miterlimit="10" stroke-width="0.002834467120181406" stroke-dasharray=""/></g><g><path fill="#FFFFFF" stroke="rgb(0,0,0)" paint-order="fill stroke markers" d=" M 921.8152457994328 356.60460670083523 L 944.3739325402593 340.2147614076743 L 941.4592535226983 312.48344296752293 L 915.9858877643109 301.1419698205325 L 893.4272010234844 317.5318151136934 L 896.3418800410453 345.2631335538448 L 921.8152457994328 356.60460670083523 L 921.8152457994328 356.60460670083523 L 921.8152457994328 356.60460670083523 Z" stroke-opacity="1" stroke-linecap="round" stroke-miterlimit="10" stroke-width="0.002834467120181406" stroke-dasharray=""/></g><path fill="none" stroke="rgb(0,0,0)" paint-order="fill stroke markers" d=" M 450.72562358276645 393.5 C 450.72562358276645 244.78386839285716 571.2838683928571 124.22562358276645 720 124.22562358276645 C 868.7161316071429 124.22562358276645 989.2743764172335 244.78386839285716 989.2743764172335 393.5 C 989.2743764172335 542.2161316071429 868.7161316071429 662.7743764172335 720 662.7743764172335 C 571.2838683928571 662.7743764172335 450.72562358276645 542.2161316071429 450.72562358276645 393.5" stroke-opacity="1" stroke-linecap="round" stroke-miterlimit="10" stroke-width="0.002834467120181406" stroke-dasharray=""/><path fill="none" stroke="rgb(0,0,0)" paint-order="fill stroke markers" d=" M 972.9761904761905 393.5 C 972.9761904761905 391.9345670357143 974.2452246320861 390.6655328798186 975.8106575963718 390.6655328798186 C 977.3760905606575 390.6655328798186 978.6451247165533 391.9345670357143 978.6451247165533 393.5 C 978.6451247165533 395.0654329642857 977.3760905606575 396.3344671201814 975.8106575963718 396.3344671201814 C 974.2452246320861 396.3344671201814 972.9761904761905 395.0654329642857 972.9761904761905 393.5" stroke-opacity="1" stroke-linecap="round" stroke-miterlimit="10" stroke-width="0.002834467120181406" stroke-dasharray=""/><path fill="none" stroke="rgb(0,0,0)" paint-order="fill stroke markers" d=" M 957.54892014152 480.99239777534467 C 957.54892014152 479.42696481105895 958.8179542974156 478.1579306551633 960.3833872617013 478.1579306551633 C 961.948820225987 478.1579306551633 963.2178543818827 479.42696481105895 963.2178543818827 480.99239777534467 C 963.2178543818827 482.5578307396304 961.948820225987 483.8268648955261 960.3833872617013 483.8268648955261 C 958.8179542974156 483.8268648955261 957.54892014152 482.5578307396304 957.54892014152 480.99239777534467" stroke-opacity="1" stroke-linecap="round" stroke-miterlimit="10" stroke-width="0.002834467120181406" stroke-dasharray=""/><path fill="none" stroke="rgb(0,0,0)" paint-order="fill stroke markers" d=" M 913.1278656221309 557.9319211287136 C 913.1278656221309 556.3664881644279 914.3968997780265 555.0974540085322 915.9623327423122 555.0974540085322 C 917.527765706598 555.0974540085322 918.7967998624937 556.3664881644279 918.7967998624937 557.9319211287136 C 918.7967998624937 559.4973540929993 917.527765706598 560.766388248895 915.9623327423122 560.766388248895 C 914.3968997780265 560.766388248895 913.1278656221309 559.4973540929993 913.1278656221309 557.9319211287136" stroke-opacity="1" stroke-linecap="round" stroke-miterlimit="10" stroke-width="0.002834467120181406" stroke-dasharray=""/><path fill="none" stroke="rgb(0,0,0)" paint-order="fill stroke markers" d=" M 845.0708616780046 615.0385280372607 C 845.0708616780046 613.473095072975 846.3398958339003 612.2040609170792 847.905328798186 612.2040609170792 C 849.4707617624717 612.2040609170792 850.7397959183673 613.473095072975 850.7397959183673 615.0385280372607 C 850.7397959183673 616.6039610015464 849.4707617624717 617.8729951574421 847.905328798186 617.8729951574421 C 846.3398958339003 617.8729951574421 845.0708616780046 616.6039610015464 845.0708616780046 615.0385280372607" stroke-opacity="1" stroke-linecap="round" stroke-miterlimit="10" stroke-width="0.002834467120181406" stroke-dasharray=""/><path fill="none" stroke="rgb(0,0,0)" paint-order="fill stroke markers" d=" M 761.5865873992077 645.4243189040583 C 761.5865873992077 643.8588859397726 762.8556215551034 642.5898517838768 764.4210545193891 642.5898517838768 C 765.9864874836748 642.5898517838768 767.2555216395705 643.8588859397726 767.2555216395705 645.4243189040583 C 767.2555216395705 646.989751868344 765.9864874836748 648.2587860242397 764.4210545193891 648.2587860242397 C 762.8556215551034 648.2587860242397 761.5865873992077 646.989751868344 761.5865873992077 645.4243189040583" stroke-opacity="1" stroke-linecap="round" stroke-miterlimit="10" stroke-width="0.002834467120181406" stroke-dasharray=""/><path fill="none" stroke="rgb(0,0,0)" paint-order="fill stroke markers" d=" M 672.7444783604295 645.4243189040583 C 672.7444783604295 643.8588859397726 674.0135125163252 642.5898517838768 675.578945480611 642.5898517838768 C 677.1443784448967 642.5898517838768 678.4134126007923 643.8588859397726 678.4134126007923 645.4243189040583 C 678.4134126007923 646.989751868344 677.1443784448967 648.2587860242397 675.578945480611 648.2587860242397 C 674.0135125163252 648.2587860242397 672.7444783604295 646.989751868344 672.7444783604295 645.4243189040583" stroke-opacity="1" stroke-linecap="round" stroke-miterlimit="10" stroke-width="0.002834467120181406" stroke-dasharray=""/><path fill="none" stroke="rgb(0,0,0)" paint-order="fill stroke markers" d=" M 589.2602040816328 615.0385280372608 C 589.2602040816328 613.4730950729751 590.5292382375284 612.2040609170793 592.0946712018141 612.2040609170793 C 593.6601041660998 612.2040609170793 594.9291383219955 613.4730950729751 594.9291383219955 615.0385280372608 C 594.9291383219955 616.6039610015465 593.6601041660998 617.8729951574421 592.0946712018141 617.8729951574421 C 590.5292382375284 617.8729951574421 589.2602040816328 616.6039610015465 589.2602040816328 615.0385280372608" stroke-opacity="1" stroke-linecap="round" stroke-miterlimit="10" stroke-width="0.002834467120181406" stroke-dasharray=""/><path fill="none" stroke="rgb(0,0,0)" paint-order="fill stroke markers" d=" M 521.2032001375064 557.9319211287136 C 521.2032001375064 556.3664881644279 522.472234293402 555.0974540085323 524.0376672576878 555.0974540085323 C 525.6031002219735 555.0974540085323 526.8721343778692 556.3664881644279 526.8721343778692 557.9319211287136 C 526.8721343778692 559.4973540929993 525.6031002219735 560.766388248895 524.0376672576878 560.766388248895 C 522.472234293402 560.766388248895 521.2032001375064 559.4973540929993 521.2032001375064 557.9319211287136" stroke-opacity="1" stroke-linecap="round" stroke-miterlimit="10" stroke-width="0.002834467120181406" stroke-dasharray=""/><path fill="none" stroke="rgb(0,0,0)" paint-order="fill stroke markers" d=" M 476.7821456181173 480.9923977753447 C 476.7821456181173 479.426964811059 478.051179774013 478.15793065516334 479.6166127382987 478.15793065516334 C 481.18204570258445 478.15793065516334 482.45107985848006 479.426964811059 482.45107985848006 480.9923977753447 C 482.45107985848006 482.55783073963045 481.18204570258445 483.8268648955261 479.6166127382987 483.8268648955261 C 478.051179774013 483.8268648955261 476.7821456181173 482.55783073963045 476.7821456181173 480.9923977753447" stroke-opacity="1" stroke-linecap="round" stroke-miterlimit="10" stroke-width="0.002834467120181406" stroke-dasharray=""/><path fill="none" stroke="rgb(0,0,0)" paint-order="fill stroke markers" d=" M 461.35487528344675 393.50000000000006 C 461.35487528344675 391.93456703571434 462.62390943934247 390.6655328798186 464.1893424036282 390.6655328798186 C 465.7547753679139 390.6655328798186 467.0238095238095 391.93456703571434 467.0238095238095 393.50000000000006 C 467.0238095238095 395.0654329642857 465.7547753679139 396.33446712018144 464.1893424036282 396.33446712018144 C 462.62390943934247 396.33446712018144 461.35487528344675 395.0654329642857 461.35487528344675 393.50000000000006" stroke-opacity="1" stroke-linecap="round" stroke-miterlimit="10" stroke-width="0.002834467120181406" stroke-dasharray=""/><path fill="none" stroke="rgb(0,0,0)" paint-order="fill stroke markers" d=" M 476.7821456181173 306.00760222465533 C 476.7821456181173 304.4421692603696 478.05117977401295 303.17313510447394 479.61661273829867 303.17313510447394 C 481.1820457025844 303.17313510447394 482.45107985848006 304.4421692603696 482.45107985848006 306.00760222465533 C 482.45107985848006 307.57303518894105 481.1820457025844 308.8420693448368 479.61661273829867 308.8420693448368 C 478.05117977401295 308.8420693448368 476.7821456181173 307.57303518894105 476.7821456181173 306.00760222465533" stroke-opacity="1" stroke-linecap="round" stroke-miterlimit="10" stroke-width="0.002834467120181406" stroke-dasharray=""/><path fill="none" stroke="rgb(0,0,0)" paint-order="fill stroke markers" d=" M 521.2032001375063 229.0680788712864 C 521.2032001375063 227.50264590700067 522.472234293402 226.23361175110497 524.0376672576878 226.23361175110497 C 525.6031002219735 226.23361175110497 526.8721343778691 227.50264590700067 526.8721343778691 229.0680788712864 C 526.8721343778691 230.6335118355721 525.6031002219735 231.90254599146778 524.0376672576878 231.90254599146778 C 522.472234293402 231.90254599146778 521.2032001375063 230.6335118355721 521.2032001375063 229.0680788712864" stroke-opacity="1" stroke-linecap="round" stroke-miterlimit="10" stroke-width="0.002834467120181406" stroke-dasharray=""/><path fill="none" stroke="rgb(0,0,0)" paint-order="fill stroke markers" d=" M 589.2602040816325 171.96147196273935 C 589.2602040816325 170.39603899845363 590.5292382375283 169.12700484255794 592.094671201814 169.12700484255794 C 593.6601041660997 169.12700484255794 594.9291383219953 170.39603899845363 594.9291383219953 171.96147196273935 C 594.9291383219953 173.52690492702507 593.6601041660997 174.79593908292074 592.094671201814 174.79593908292074 C 590.5292382375283 174.79593908292074 589.2602040816325 173.52690492702507 589.2602040816325 171.96147196273935" stroke-opacity="1" stroke-linecap="round" stroke-miterlimit="10" stroke-width="0.002834467120181406" stroke-dasharray=""/><path fill="none" stroke="rgb(0,0,0)" paint-order="fill stroke markers" d=" M 672.7444783604293 141.57568109594172 C 672.7444783604293 140.010248131656 674.013512516325 138.7412139757603 675.5789454806107 138.7412139757603 C 677.1443784448965 138.7412139757603 678.4134126007921 140.010248131656 678.4134126007921 141.57568109594172 C 678.4134126007921 143.14111406022744 677.1443784448965 144.4101482161231 675.5789454806107 144.4101482161231 C 674.013512516325 144.4101482161231 672.7444783604293 143.14111406022744 672.7444783604293 141.57568109594172" stroke-opacity="1" stroke-linecap="round" stroke-miterlimit="10" stroke-width="0.002834467120181406" stroke-dasharray=""/><path fill="none" stroke="rgb(0,0,0)" paint-order="fill stroke markers" d=" M 761.5865873992074 141.57568109594163 C 761.5865873992074 140.0102481316559 762.8556215551031 138.74121397576022 764.4210545193887 138.74121397576022 C 765.9864874836744 138.74121397576022 767.2555216395701 140.0102481316559 767.2555216395701 141.57568109594163 C 767.2555216395701 143.14111406022735 765.9864874836744 144.41014821612302 764.4210545193887 144.41014821612302 C 762.8556215551031 144.41014821612302 761.5865873992074 143.14111406022735 761.5865873992074 141.57568109594163" stroke-opacity="1" stroke-linecap="round" stroke-miterlimit="10" stroke-width="0.002834467120181406" stroke-dasharray=""/><path fill="none" stroke="rgb(0,0,0)" paint-order="fill stroke markers" d=" M 845.0708616780041 171.96147196273907 C 845.0708616780041 170.39603899845335 846.3398958338998 169.12700484255765 847.9053287981856 169.12700484255765 C 849.4707617624713 169.12700484255765 850.739795918367 170.39603899845335 850.739795918367 171.96147196273907 C 850.739795918367 173.5269049270248 849.4707617624713 174.79593908292046 847.9053287981856 174.79593908292046 C 846.3398958338998 174.79593908292046 845.0708616780041 173.5269049270248 845.0708616780041 171.96147196273907" stroke-opacity="1" stroke-linecap="round" stroke-miterlimit="10" stroke-width="0.002834467120181406" stroke-dasharray=""/><path fill="none" stroke="rgb(0,0,0)" paint-order="fill stroke markers" d=" M 913.1278656221305 229.06807887128596 C 913.1278656221305 227.50264590700024 914.3968997780262 226.23361175110455 915.9623327423119 226.23361175110455 C 917.5277657065976 226.23361175110455 918.7967998624933 227.50264590700024 918.7967998624933 229.06807887128596 C 918.7967998624933 230.63351183557168 917.5277657065976 231.90254599146735 915.9623327423119 231.90254599146735 C 914.3968997780262 231.90254599146735 913.1278656221305 230.63351183557168 913.1278656221305 229.06807887128596" stroke-opacity="1" stroke-linecap="round" stroke-miterlimit="10" stroke-width="0.002834467120181406" stroke-dasharray=""/><path fill="none" stroke="rgb(0,0,0)" paint-order="fill stroke markers" d=" M 957.5489201415197 306.00760222465476 C 957.5489201415197 304.44216926036904 958.8179542974153 303.1731351044733 960.383387261701 303.1731351044733 C 961.9488202259868 303.1731351044733 963.2178543818825 304.44216926036904 963.2178543818825 306.00760222465476 C 963.2178543818825 307.5730351889405 961.9488202259868 308.84206934483615 960.383387261701 308.84206934483615 C 958.8179542974153 308.84206934483615 957.5489201415197 307.5730351889405 957.5489201415197 306.00760222465476" stroke-opacity="1" stroke-linecap="round" stroke-miterlimit="10" stroke-width="0.002834467120181406" stroke-dasharray=""/><path fill="none" stroke="rgb(0,0,0)" paint-order="fill stroke markers" d=" M 972.9761904761905 393.49999999999926 C 972.9761904761905 391.93456703571354 974.2452246320861 390.6655328798179 975.8106575963718 390.6655328798179 C 977.3760905606575 390.6655328798179 978.6451247165533 391.93456703571354 978.6451247165533 393.49999999999926 C 978.6451247165533 395.065432964285 977.3760905606575 396.33446712018065 975.8106575963718 396.33446712018065 C 974.2452246320861 396.33446712018065 972.9761904761905 395.065432964285 972.9761904761905 393.49999999999926" stroke-opacity="1" stroke-linecap="round" stroke-miterlimit="10" stroke-width="0.002834467120181406" stroke-dasharray=""/></g></g></svg>