%TF.GenerationSoftware,KiCad,Pcbnew,(5.1.9-0-10_14)*%
%TF.CreationDate,2021-11-21T14:59:00-08:00*%
%TF.ProjectId,clock,636c6f63-6b2e-46b6-9963-61645f706362,rev?*%
%TF.SameCoordinates,Original*%
%TF.FileFunction,Copper,L1,Top*%
%TF.FilePolarity,Positive*%
%FSLAX46Y46*%
G04 Gerber Fmt 4.6, Leading zero omitted, Abs format (unit mm)*
G04 Created by KiCad (PCBNEW (5.1.9-0-10_14)) date 2021-11-21 14:59:00*
%MOMM*%
%LPD*%
G01*
G04 APERTURE LIST*
%TA.AperFunction,ComponentPad*%
%ADD10R,1.600000X1.600000*%
%TD*%
%TA.AperFunction,ComponentPad*%
%ADD11O,1.600000X1.600000*%
%TD*%
%TA.AperFunction,ComponentPad*%
%ADD12R,1.700000X1.700000*%
%TD*%
%TA.AperFunction,ComponentPad*%
%ADD13O,1.700000X1.700000*%
%TD*%
%TA.AperFunction,SMDPad,CuDef*%
%ADD14R,1.000000X3.150000*%
%TD*%
%TA.AperFunction,SMDPad,CuDef*%
%ADD15R,2.000000X3.800000*%
%TD*%
%TA.AperFunction,SMDPad,CuDef*%
%ADD16R,2.000000X1.500000*%
%TD*%
%TA.AperFunction,Conductor*%
%ADD17C,0.400000*%
%TD*%
G04 APERTURE END LIST*
D10*
%TO.P,A1,1*%
%TO.N,GND*%
X110700000Y-61600000D03*
D11*
%TO.P,A1,9*%
%TO.N,Net-(A1-Pad9)*%
X98000000Y-43820000D03*
%TO.P,A1,2*%
%TO.N,VCC*%
X110700000Y-59060000D03*
%TO.P,A1,10*%
%TO.N,Net-(A1-Pad10)*%
X98000000Y-46360000D03*
%TO.P,A1,3*%
%TO.N,Net-(A1-Pad3)*%
X110700000Y-56520000D03*
%TO.P,A1,11*%
%TO.N,Net-(A1-Pad11)*%
X98000000Y-48900000D03*
%TO.P,A1,4*%
%TO.N,Net-(A1-Pad4)*%
X110700000Y-53980000D03*
%TO.P,A1,12*%
%TO.N,Net-(A1-Pad12)*%
X98000000Y-51440000D03*
%TO.P,A1,5*%
%TO.N,Net-(A1-Pad5)*%
X110700000Y-51440000D03*
%TO.P,A1,13*%
%TO.N,Net-(A1-Pad13)*%
X98000000Y-53980000D03*
%TO.P,A1,6*%
%TO.N,Net-(A1-Pad6)*%
X110700000Y-48900000D03*
%TO.P,A1,14*%
%TO.N,Net-(A1-Pad13)*%
X98000000Y-56520000D03*
%TO.P,A1,7*%
%TO.N,GND*%
X110700000Y-46360000D03*
%TO.P,A1,15*%
%TO.N,Net-(A1-Pad15)*%
X98000000Y-59060000D03*
%TO.P,A1,8*%
%TO.N,+9V*%
X110700000Y-43820000D03*
%TO.P,A1,16*%
%TO.N,Net-(A1-Pad16)*%
X98000000Y-61600000D03*
%TD*%
%TO.P,C1,1*%
%TO.N,VCC*%
%TA.AperFunction,SMDPad,CuDef*%
G36*
G01*
X117849998Y-16475000D02*
X119150002Y-16475000D01*
G75*
G02*
X119400000Y-16724998I0J-249998D01*
G01*
X119400000Y-17550002D01*
G75*
G02*
X119150002Y-17800000I-249998J0D01*
G01*
X117849998Y-17800000D01*
G75*
G02*
X117600000Y-17550002I0J249998D01*
G01*
X117600000Y-16724998D01*
G75*
G02*
X117849998Y-16475000I249998J0D01*
G01*
G37*
%TD.AperFunction*%
%TO.P,C1,2*%
%TO.N,GND*%
%TA.AperFunction,SMDPad,CuDef*%
G36*
G01*
X117849998Y-19600000D02*
X119150002Y-19600000D01*
G75*
G02*
X119400000Y-19849998I0J-249998D01*
G01*
X119400000Y-20675002D01*
G75*
G02*
X119150002Y-20925000I-249998J0D01*
G01*
X117849998Y-20925000D01*
G75*
G02*
X117600000Y-20675002I0J249998D01*
G01*
X117600000Y-19849998D01*
G75*
G02*
X117849998Y-19600000I249998J0D01*
G01*
G37*
%TD.AperFunction*%
%TD*%
D12*
%TO.P,J1,1*%
%TO.N,+9V*%
X96900000Y-19500000D03*
D13*
%TO.P,J1,2*%
%TO.N,GND*%
X96900000Y-16960000D03*
%TD*%
D14*
%TO.P,J2,1*%
%TO.N,/MISO*%
X96460000Y-33125000D03*
%TO.P,J2,2*%
%TO.N,VCC*%
X96460000Y-28075000D03*
%TO.P,J2,3*%
%TO.N,/SCK*%
X99000000Y-33125000D03*
%TO.P,J2,4*%
%TO.N,/MOSI*%
X99000000Y-28075000D03*
%TO.P,J2,5*%
%TO.N,/RESET*%
X101540000Y-33125000D03*
%TO.P,J2,6*%
%TO.N,GND*%
X101540000Y-28075000D03*
%TD*%
%TO.P,R1,1*%
%TO.N,VCC*%
%TA.AperFunction,SMDPad,CuDef*%
G36*
G01*
X114474999Y-16600000D02*
X115725001Y-16600000D01*
G75*
G02*
X115975000Y-16849999I0J-249999D01*
G01*
X115975000Y-17650001D01*
G75*
G02*
X115725001Y-17900000I-249999J0D01*
G01*
X114474999Y-17900000D01*
G75*
G02*
X114225000Y-17650001I0J249999D01*
G01*
X114225000Y-16849999D01*
G75*
G02*
X114474999Y-16600000I249999J0D01*
G01*
G37*
%TD.AperFunction*%
%TO.P,R1,2*%
%TO.N,/RESET*%
%TA.AperFunction,SMDPad,CuDef*%
G36*
G01*
X114474999Y-19700000D02*
X115725001Y-19700000D01*
G75*
G02*
X115975000Y-19949999I0J-249999D01*
G01*
X115975000Y-20750001D01*
G75*
G02*
X115725001Y-21000000I-249999J0D01*
G01*
X114474999Y-21000000D01*
G75*
G02*
X114225000Y-20750001I0J249999D01*
G01*
X114225000Y-19949999D01*
G75*
G02*
X114474999Y-19700000I249999J0D01*
G01*
G37*
%TD.AperFunction*%
%TD*%
D15*
%TO.P,U1,2*%
%TO.N,VCC*%
X111250000Y-18800000D03*
D16*
X104950000Y-18800000D03*
%TO.P,U1,3*%
%TO.N,+9V*%
X104950000Y-21100000D03*
%TO.P,U1,1*%
%TO.N,GND*%
X104950000Y-16500000D03*
%TD*%
%TO.P,U2,1*%
%TO.N,VCC*%
%TA.AperFunction,SMDPad,CuDef*%
G36*
G01*
X108050000Y-27240000D02*
X108050000Y-26940000D01*
G75*
G02*
X108200000Y-26790000I150000J0D01*
G01*
X109850000Y-26790000D01*
G75*
G02*
X110000000Y-26940000I0J-150000D01*
G01*
X110000000Y-27240000D01*
G75*
G02*
X109850000Y-27390000I-150000J0D01*
G01*
X108200000Y-27390000D01*
G75*
G02*
X108050000Y-27240000I0J150000D01*
G01*
G37*
%TD.AperFunction*%
%TO.P,U2,2*%
%TO.N,Net-(U2-Pad2)*%
%TA.AperFunction,SMDPad,CuDef*%
G36*
G01*
X108050000Y-28510000D02*
X108050000Y-28210000D01*
G75*
G02*
X108200000Y-28060000I150000J0D01*
G01*
X109850000Y-28060000D01*
G75*
G02*
X110000000Y-28210000I0J-150000D01*
G01*
X110000000Y-28510000D01*
G75*
G02*
X109850000Y-28660000I-150000J0D01*
G01*
X108200000Y-28660000D01*
G75*
G02*
X108050000Y-28510000I0J150000D01*
G01*
G37*
%TD.AperFunction*%
%TO.P,U2,3*%
%TO.N,Net-(U2-Pad3)*%
%TA.AperFunction,SMDPad,CuDef*%
G36*
G01*
X108050000Y-29780000D02*
X108050000Y-29480000D01*
G75*
G02*
X108200000Y-29330000I150000J0D01*
G01*
X109850000Y-29330000D01*
G75*
G02*
X110000000Y-29480000I0J-150000D01*
G01*
X110000000Y-29780000D01*
G75*
G02*
X109850000Y-29930000I-150000J0D01*
G01*
X108200000Y-29930000D01*
G75*
G02*
X108050000Y-29780000I0J150000D01*
G01*
G37*
%TD.AperFunction*%
%TO.P,U2,4*%
%TO.N,/RESET*%
%TA.AperFunction,SMDPad,CuDef*%
G36*
G01*
X108050000Y-31050000D02*
X108050000Y-30750000D01*
G75*
G02*
X108200000Y-30600000I150000J0D01*
G01*
X109850000Y-30600000D01*
G75*
G02*
X110000000Y-30750000I0J-150000D01*
G01*
X110000000Y-31050000D01*
G75*
G02*
X109850000Y-31200000I-150000J0D01*
G01*
X108200000Y-31200000D01*
G75*
G02*
X108050000Y-31050000I0J150000D01*
G01*
G37*
%TD.AperFunction*%
%TO.P,U2,5*%
%TO.N,Net-(U2-Pad5)*%
%TA.AperFunction,SMDPad,CuDef*%
G36*
G01*
X108050000Y-32320000D02*
X108050000Y-32020000D01*
G75*
G02*
X108200000Y-31870000I150000J0D01*
G01*
X109850000Y-31870000D01*
G75*
G02*
X110000000Y-32020000I0J-150000D01*
G01*
X110000000Y-32320000D01*
G75*
G02*
X109850000Y-32470000I-150000J0D01*
G01*
X108200000Y-32470000D01*
G75*
G02*
X108050000Y-32320000I0J150000D01*
G01*
G37*
%TD.AperFunction*%
%TO.P,U2,6*%
%TO.N,Net-(U2-Pad6)*%
%TA.AperFunction,SMDPad,CuDef*%
G36*
G01*
X108050000Y-33590000D02*
X108050000Y-33290000D01*
G75*
G02*
X108200000Y-33140000I150000J0D01*
G01*
X109850000Y-33140000D01*
G75*
G02*
X110000000Y-33290000I0J-150000D01*
G01*
X110000000Y-33590000D01*
G75*
G02*
X109850000Y-33740000I-150000J0D01*
G01*
X108200000Y-33740000D01*
G75*
G02*
X108050000Y-33590000I0J150000D01*
G01*
G37*
%TD.AperFunction*%
%TO.P,U2,7*%
%TO.N,/MOSI*%
%TA.AperFunction,SMDPad,CuDef*%
G36*
G01*
X108050000Y-34860000D02*
X108050000Y-34560000D01*
G75*
G02*
X108200000Y-34410000I150000J0D01*
G01*
X109850000Y-34410000D01*
G75*
G02*
X110000000Y-34560000I0J-150000D01*
G01*
X110000000Y-34860000D01*
G75*
G02*
X109850000Y-35010000I-150000J0D01*
G01*
X108200000Y-35010000D01*
G75*
G02*
X108050000Y-34860000I0J150000D01*
G01*
G37*
%TD.AperFunction*%
%TO.P,U2,8*%
%TO.N,/MISO*%
%TA.AperFunction,SMDPad,CuDef*%
G36*
G01*
X113000000Y-34860000D02*
X113000000Y-34560000D01*
G75*
G02*
X113150000Y-34410000I150000J0D01*
G01*
X114800000Y-34410000D01*
G75*
G02*
X114950000Y-34560000I0J-150000D01*
G01*
X114950000Y-34860000D01*
G75*
G02*
X114800000Y-35010000I-150000J0D01*
G01*
X113150000Y-35010000D01*
G75*
G02*
X113000000Y-34860000I0J150000D01*
G01*
G37*
%TD.AperFunction*%
%TO.P,U2,9*%
%TO.N,/SCK*%
%TA.AperFunction,SMDPad,CuDef*%
G36*
G01*
X113000000Y-33590000D02*
X113000000Y-33290000D01*
G75*
G02*
X113150000Y-33140000I150000J0D01*
G01*
X114800000Y-33140000D01*
G75*
G02*
X114950000Y-33290000I0J-150000D01*
G01*
X114950000Y-33590000D01*
G75*
G02*
X114800000Y-33740000I-150000J0D01*
G01*
X113150000Y-33740000D01*
G75*
G02*
X113000000Y-33590000I0J150000D01*
G01*
G37*
%TD.AperFunction*%
%TO.P,U2,10*%
%TO.N,Net-(A1-Pad16)*%
%TA.AperFunction,SMDPad,CuDef*%
G36*
G01*
X113000000Y-32320000D02*
X113000000Y-32020000D01*
G75*
G02*
X113150000Y-31870000I150000J0D01*
G01*
X114800000Y-31870000D01*
G75*
G02*
X114950000Y-32020000I0J-150000D01*
G01*
X114950000Y-32320000D01*
G75*
G02*
X114800000Y-32470000I-150000J0D01*
G01*
X113150000Y-32470000D01*
G75*
G02*
X113000000Y-32320000I0J150000D01*
G01*
G37*
%TD.AperFunction*%
%TO.P,U2,11*%
%TO.N,Net-(A1-Pad15)*%
%TA.AperFunction,SMDPad,CuDef*%
G36*
G01*
X113000000Y-31050000D02*
X113000000Y-30750000D01*
G75*
G02*
X113150000Y-30600000I150000J0D01*
G01*
X114800000Y-30600000D01*
G75*
G02*
X114950000Y-30750000I0J-150000D01*
G01*
X114950000Y-31050000D01*
G75*
G02*
X114800000Y-31200000I-150000J0D01*
G01*
X113150000Y-31200000D01*
G75*
G02*
X113000000Y-31050000I0J150000D01*
G01*
G37*
%TD.AperFunction*%
%TO.P,U2,12*%
%TO.N,Net-(U2-Pad12)*%
%TA.AperFunction,SMDPad,CuDef*%
G36*
G01*
X113000000Y-29780000D02*
X113000000Y-29480000D01*
G75*
G02*
X113150000Y-29330000I150000J0D01*
G01*
X114800000Y-29330000D01*
G75*
G02*
X114950000Y-29480000I0J-150000D01*
G01*
X114950000Y-29780000D01*
G75*
G02*
X114800000Y-29930000I-150000J0D01*
G01*
X113150000Y-29930000D01*
G75*
G02*
X113000000Y-29780000I0J150000D01*
G01*
G37*
%TD.AperFunction*%
%TO.P,U2,13*%
%TO.N,Net-(U2-Pad13)*%
%TA.AperFunction,SMDPad,CuDef*%
G36*
G01*
X113000000Y-28510000D02*
X113000000Y-28210000D01*
G75*
G02*
X113150000Y-28060000I150000J0D01*
G01*
X114800000Y-28060000D01*
G75*
G02*
X114950000Y-28210000I0J-150000D01*
G01*
X114950000Y-28510000D01*
G75*
G02*
X114800000Y-28660000I-150000J0D01*
G01*
X113150000Y-28660000D01*
G75*
G02*
X113000000Y-28510000I0J150000D01*
G01*
G37*
%TD.AperFunction*%
%TO.P,U2,14*%
%TO.N,GND*%
%TA.AperFunction,SMDPad,CuDef*%
G36*
G01*
X113000000Y-27240000D02*
X113000000Y-26940000D01*
G75*
G02*
X113150000Y-26790000I150000J0D01*
G01*
X114800000Y-26790000D01*
G75*
G02*
X114950000Y-26940000I0J-150000D01*
G01*
X114950000Y-27240000D01*
G75*
G02*
X114800000Y-27390000I-150000J0D01*
G01*
X113150000Y-27390000D01*
G75*
G02*
X113000000Y-27240000I0J150000D01*
G01*
G37*
%TD.AperFunction*%
%TD*%
D12*
%TO.P,J3,1*%
%TO.N,Net-(A1-Pad3)*%
X120400000Y-56700000D03*
%TD*%
%TO.P,J4,1*%
%TO.N,Net-(A1-Pad4)*%
X115800000Y-53900000D03*
%TD*%
%TO.P,J5,1*%
%TO.N,Net-(A1-Pad5)*%
X120500000Y-51400000D03*
%TD*%
%TO.P,J6,1*%
%TO.N,Net-(A1-Pad6)*%
X115700000Y-49100000D03*
%TD*%
D17*
%TO.N,GND*%
X104490000Y-16960000D02*
X104950000Y-16500000D01*
X96900000Y-16960000D02*
X104490000Y-16960000D01*
X118500000Y-22565000D02*
X113975000Y-27090000D01*
X118500000Y-20262500D02*
X118500000Y-22565000D01*
X101540000Y-28075000D02*
X101425000Y-28075000D01*
X105480002Y-16500000D02*
X104950000Y-16500000D01*
X117150030Y-44049972D02*
X117150030Y-29499354D01*
X114740676Y-27090000D02*
X113975000Y-27090000D01*
X117150030Y-29499354D02*
X114740676Y-27090000D01*
X114840002Y-46360000D02*
X117150030Y-44049972D01*
X110700000Y-46360000D02*
X114840002Y-46360000D01*
X107200010Y-58100010D02*
X110700000Y-61600000D01*
X107200010Y-49859990D02*
X107200010Y-58100010D01*
X110700000Y-46360000D02*
X107200010Y-49859990D01*
X97440001Y-30949999D02*
X92650001Y-30949999D01*
X97899999Y-30490001D02*
X97440001Y-30949999D01*
X97899999Y-26359997D02*
X97899999Y-30490001D01*
X95449999Y-18169999D02*
X95449999Y-23909997D01*
X95809999Y-17809999D02*
X95449999Y-18169999D01*
X96050001Y-17809999D02*
X95809999Y-17809999D01*
X96900000Y-16960000D02*
X96050001Y-17809999D01*
X100919999Y-25479999D02*
X97020001Y-25479999D01*
X101540000Y-26100000D02*
X100919999Y-25479999D01*
X101540000Y-28075000D02*
X101540000Y-26100000D01*
X97020001Y-25479999D02*
X97899999Y-26359997D01*
X95449999Y-23909997D02*
X97020001Y-25479999D01*
X96996625Y-63800011D02*
X108499989Y-63800011D01*
X108499989Y-63800011D02*
X110700000Y-61600000D01*
X92650001Y-59453387D02*
X96996625Y-63800011D01*
X92650001Y-30949999D02*
X92650001Y-59453387D01*
%TO.N,VCC*%
X116837500Y-18800000D02*
X118500000Y-17137500D01*
X115100000Y-18700000D02*
X115000000Y-18800000D01*
X115100000Y-17250000D02*
X115100000Y-18700000D01*
X115000000Y-18800000D02*
X116837500Y-18800000D01*
X111250000Y-24865000D02*
X109025000Y-27090000D01*
X111250000Y-18800000D02*
X111250000Y-24865000D01*
X96376536Y-15149999D02*
X107599999Y-15149999D01*
X94559989Y-16966546D02*
X96376536Y-15149999D01*
X94625000Y-28075000D02*
X94559989Y-28140011D01*
X96460000Y-28075000D02*
X94625000Y-28075000D01*
X94559989Y-28140011D02*
X94559989Y-16966546D01*
X107599999Y-15149999D02*
X111250000Y-18800000D01*
X104950000Y-18800000D02*
X111250000Y-18800000D01*
X119302098Y-18800000D02*
X111250000Y-18800000D01*
X117950040Y-42850040D02*
X117950040Y-29167980D01*
X120000010Y-19497912D02*
X119302098Y-18800000D01*
X118000000Y-42900000D02*
X117950040Y-42850040D01*
X120000010Y-27118010D02*
X120000010Y-19497912D01*
X117950040Y-29167980D02*
X120000010Y-27118010D01*
X118000000Y-44200000D02*
X118000000Y-42900000D01*
X120820002Y-59060000D02*
X124600000Y-55280002D01*
X110700000Y-59060000D02*
X120820002Y-59060000D01*
X124600000Y-50800000D02*
X118000000Y-44200000D01*
X124600000Y-55280002D02*
X124600000Y-50800000D01*
%TO.N,Net-(A1-Pad3)*%
X120220000Y-56520000D02*
X120400000Y-56700000D01*
X110700000Y-56520000D02*
X120220000Y-56520000D01*
%TO.N,Net-(A1-Pad4)*%
X110740000Y-53940000D02*
X110700000Y-53980000D01*
X115720000Y-53980000D02*
X115800000Y-53900000D01*
X110700000Y-53980000D02*
X115720000Y-53980000D01*
%TO.N,Net-(A1-Pad5)*%
X120460000Y-51440000D02*
X120500000Y-51400000D01*
X110700000Y-51440000D02*
X120460000Y-51440000D01*
%TO.N,Net-(A1-Pad13)*%
X98000000Y-56520000D02*
X98000000Y-53980000D01*
%TO.N,Net-(A1-Pad6)*%
X110700000Y-48900000D02*
X115300000Y-48900000D01*
%TO.N,Net-(A1-Pad15)*%
X114950000Y-30900000D02*
X113975000Y-30900000D01*
X106400000Y-53000000D02*
X102626030Y-49226030D01*
X106400000Y-55272002D02*
X106400000Y-53000000D01*
X98672001Y-63000001D02*
X106400000Y-55272002D01*
X102626030Y-49226030D02*
X116350020Y-35502040D01*
X97327999Y-63000001D02*
X98672001Y-63000001D01*
X96599999Y-62272001D02*
X97327999Y-63000001D01*
X115480656Y-30900000D02*
X113975000Y-30900000D01*
X116350020Y-31769364D02*
X115480656Y-30900000D01*
X116350020Y-35502040D02*
X116350020Y-31769364D01*
X96599999Y-60460001D02*
X96599999Y-62272001D01*
X98000000Y-59060000D02*
X96599999Y-60460001D01*
%TO.N,+9V*%
X98500000Y-21100000D02*
X104950000Y-21100000D01*
X96900000Y-19500000D02*
X98500000Y-21100000D01*
X97560001Y-20160001D02*
X96900000Y-19500000D01*
X96550000Y-19850000D02*
X96900000Y-19500000D01*
%TO.N,Net-(A1-Pad16)*%
X114740676Y-32170000D02*
X113975000Y-32170000D01*
X114950000Y-32170000D02*
X113975000Y-32170000D01*
X115550010Y-32770010D02*
X114950000Y-32170000D01*
X115550010Y-35170666D02*
X115550010Y-32770010D01*
X99400001Y-60199999D02*
X99400001Y-51320675D01*
X99400001Y-51320675D02*
X115550010Y-35170666D01*
X98000000Y-61600000D02*
X99400001Y-60199999D01*
%TO.N,/MISO*%
X96460000Y-33125000D02*
X96460000Y-33691384D01*
X96460000Y-35100000D02*
X98860000Y-37500000D01*
X96460000Y-33125000D02*
X96460000Y-35100000D01*
X111185000Y-37500000D02*
X113975000Y-34710000D01*
X98860000Y-37500000D02*
X111185000Y-37500000D01*
%TO.N,/SCK*%
X110249324Y-36400000D02*
X113209324Y-33440000D01*
X99639989Y-35511375D02*
X100528614Y-36400000D01*
X99639989Y-33439989D02*
X99639989Y-35511375D01*
X113209324Y-33440000D02*
X113975000Y-33440000D01*
X99325000Y-33125000D02*
X99639989Y-33439989D01*
X100528614Y-36400000D02*
X110249324Y-36400000D01*
X99000000Y-33125000D02*
X99325000Y-33125000D01*
%TO.N,/MOSI*%
X99000000Y-28075000D02*
X99000000Y-28800000D01*
X108434999Y-35300001D02*
X109025000Y-34710000D01*
X100439999Y-35180001D02*
X100559999Y-35300001D01*
X100439999Y-29514999D02*
X100439999Y-35180001D01*
X100559999Y-35300001D02*
X108434999Y-35300001D01*
X99000000Y-28075000D02*
X100439999Y-29514999D01*
%TO.N,/RESET*%
X110000000Y-30900000D02*
X109025000Y-30900000D01*
X112399990Y-28500010D02*
X110000000Y-30900000D01*
X112399990Y-23050010D02*
X112399990Y-28500010D01*
X115100000Y-20350000D02*
X112399990Y-23050010D01*
X103765000Y-30900000D02*
X109025000Y-30900000D01*
X101540000Y-33125000D02*
X103765000Y-30900000D01*
%TD*%
M02*
