M48
; DRILL file {KiCad (5.1.9-0-10_14)} date Sunday, November 21, 2021 at 02:59:04 PM
; FORMAT={-:-/ absolute / inch / decimal}
; #@! TF.CreationDate,2021-11-21T14:59:04-08:00
; #@! TF.GenerationSoftware,Kicad,Pcbnew,(5.1.9-0-10_14)
; #@! TF.FileFunction,Plated,1,2,PTH
FMAT,2
INCH
T1C0.0315
T2C0.0394
%
G90
G05
T1
X3.8583Y-1.7252
X3.8583Y-1.8252
X3.8583Y-1.9252
X3.8583Y-2.0252
X3.8583Y-2.1252
X3.8583Y-2.2252
X3.8583Y-2.3252
X3.8583Y-2.4252
X4.3583Y-1.7252
X4.3583Y-1.8252
X4.3583Y-1.9252
X4.3583Y-2.0252
X4.3583Y-2.1252
X4.3583Y-2.2252
X4.3583Y-2.3252
X4.3583Y-2.4252
T2
X3.815Y-0.6677
X3.815Y-0.7677
X4.5551Y-1.9331
X4.5591Y-2.122
X4.7402Y-2.2323
X4.7441Y-2.0236
T0
M30
