G04 #@! TF.GenerationSoftware,KiCad,Pcbnew,(5.1.9-0-10_14)*
G04 #@! TF.CreationDate,2021-11-30T17:14:19-08:00*
G04 #@! TF.ProjectId,t44-serial,7434342d-7365-4726-9961-6c2e6b696361,rev?*
G04 #@! TF.SameCoordinates,Original*
G04 #@! TF.FileFunction,Copper,L1,Top*
G04 #@! TF.FilePolarity,Positive*
%FSLAX46Y46*%
G04 Gerber Fmt 4.6, Leading zero omitted, Abs format (unit mm)*
G04 Created by KiCad (PCBNEW (5.1.9-0-10_14)) date 2021-11-30 17:14:19*
%MOMM*%
%LPD*%
G01*
G04 APERTURE LIST*
G04 #@! TA.AperFunction,ComponentPad*
%ADD10R,1.700000X1.700000*%
G04 #@! TD*
G04 #@! TA.AperFunction,ComponentPad*
%ADD11O,1.700000X1.700000*%
G04 #@! TD*
G04 #@! TA.AperFunction,SMDPad,CuDef*
%ADD12R,1.000000X3.150000*%
G04 #@! TD*
G04 #@! TA.AperFunction,SMDPad,CuDef*
%ADD13R,1.500000X0.600000*%
G04 #@! TD*
G04 #@! TA.AperFunction,SMDPad,CuDef*
%ADD14R,3.200000X0.400000*%
G04 #@! TD*
G04 #@! TA.AperFunction,ViaPad*
%ADD15C,1.600000*%
G04 #@! TD*
G04 #@! TA.AperFunction,Conductor*
%ADD16C,0.400000*%
G04 #@! TD*
G04 APERTURE END LIST*
G04 #@! TA.AperFunction,SMDPad,CuDef*
G36*
G01*
X141916807Y-114690018D02*
X141916807Y-115940018D01*
G75*
G02*
X141666807Y-116190018I-250000J0D01*
G01*
X140916807Y-116190018D01*
G75*
G02*
X140666807Y-115940018I0J250000D01*
G01*
X140666807Y-114690018D01*
G75*
G02*
X140916807Y-114440018I250000J0D01*
G01*
X141666807Y-114440018D01*
G75*
G02*
X141916807Y-114690018I0J-250000D01*
G01*
G37*
G04 #@! TD.AperFunction*
G04 #@! TA.AperFunction,SMDPad,CuDef*
G36*
G01*
X139116807Y-114690018D02*
X139116807Y-115940018D01*
G75*
G02*
X138866807Y-116190018I-250000J0D01*
G01*
X138116807Y-116190018D01*
G75*
G02*
X137866807Y-115940018I0J250000D01*
G01*
X137866807Y-114690018D01*
G75*
G02*
X138116807Y-114440018I250000J0D01*
G01*
X138866807Y-114440018D01*
G75*
G02*
X139116807Y-114690018I0J-250000D01*
G01*
G37*
G04 #@! TD.AperFunction*
D10*
X158508700Y-115189000D03*
D11*
X158508700Y-117729000D03*
X158508700Y-120269000D03*
X158508700Y-122809000D03*
X158508700Y-125349000D03*
X158508700Y-127889000D03*
D12*
X149618700Y-131726700D03*
X149618700Y-136776700D03*
X147078700Y-131726700D03*
X147078700Y-136776700D03*
X144538700Y-131726700D03*
X144538700Y-136776700D03*
G04 #@! TA.AperFunction,SMDPad,CuDef*
G36*
G01*
X143145700Y-115890200D02*
X143145700Y-114640200D01*
G75*
G02*
X143395700Y-114390200I250000J0D01*
G01*
X144145700Y-114390200D01*
G75*
G02*
X144395700Y-114640200I0J-250000D01*
G01*
X144395700Y-115890200D01*
G75*
G02*
X144145700Y-116140200I-250000J0D01*
G01*
X143395700Y-116140200D01*
G75*
G02*
X143145700Y-115890200I0J250000D01*
G01*
G37*
G04 #@! TD.AperFunction*
G04 #@! TA.AperFunction,SMDPad,CuDef*
G36*
G01*
X145945700Y-115890200D02*
X145945700Y-114640200D01*
G75*
G02*
X146195700Y-114390200I250000J0D01*
G01*
X146945700Y-114390200D01*
G75*
G02*
X147195700Y-114640200I0J-250000D01*
G01*
X147195700Y-115890200D01*
G75*
G02*
X146945700Y-116140200I-250000J0D01*
G01*
X146195700Y-116140200D01*
G75*
G02*
X145945700Y-115890200I0J250000D01*
G01*
G37*
G04 #@! TD.AperFunction*
D13*
X144679501Y-118212701D03*
X144679501Y-119482701D03*
X144679501Y-120752701D03*
X144679501Y-122022701D03*
X144679501Y-123292701D03*
X144679501Y-124562701D03*
X144679501Y-125832701D03*
X150079501Y-125832701D03*
X150079501Y-124562701D03*
X150079501Y-123292701D03*
X150079501Y-122022701D03*
X150079501Y-120752701D03*
X150079501Y-119482701D03*
X150079501Y-118212701D03*
D14*
X139725400Y-121532500D03*
X139725400Y-120332500D03*
X139725400Y-119132500D03*
G04 #@! TA.AperFunction,SMDPad,CuDef*
G36*
G01*
X139125000Y-128025000D02*
X137875000Y-128025000D01*
G75*
G02*
X137625000Y-127775000I0J250000D01*
G01*
X137625000Y-127025000D01*
G75*
G02*
X137875000Y-126775000I250000J0D01*
G01*
X139125000Y-126775000D01*
G75*
G02*
X139375000Y-127025000I0J-250000D01*
G01*
X139375000Y-127775000D01*
G75*
G02*
X139125000Y-128025000I-250000J0D01*
G01*
G37*
G04 #@! TD.AperFunction*
G04 #@! TA.AperFunction,SMDPad,CuDef*
G36*
G01*
X139125000Y-125225000D02*
X137875000Y-125225000D01*
G75*
G02*
X137625000Y-124975000I0J250000D01*
G01*
X137625000Y-124225000D01*
G75*
G02*
X137875000Y-123975000I250000J0D01*
G01*
X139125000Y-123975000D01*
G75*
G02*
X139375000Y-124225000I0J-250000D01*
G01*
X139375000Y-124975000D01*
G75*
G02*
X139125000Y-125225000I-250000J0D01*
G01*
G37*
G04 #@! TD.AperFunction*
G04 #@! TA.AperFunction,SMDPad,CuDef*
G36*
G01*
X139125002Y-137225000D02*
X137874998Y-137225000D01*
G75*
G02*
X137625000Y-136975002I0J249998D01*
G01*
X137625000Y-136349998D01*
G75*
G02*
X137874998Y-136100000I249998J0D01*
G01*
X139125002Y-136100000D01*
G75*
G02*
X139375000Y-136349998I0J-249998D01*
G01*
X139375000Y-136975002D01*
G75*
G02*
X139125002Y-137225000I-249998J0D01*
G01*
G37*
G04 #@! TD.AperFunction*
G04 #@! TA.AperFunction,SMDPad,CuDef*
G36*
G01*
X139125002Y-134300000D02*
X137874998Y-134300000D01*
G75*
G02*
X137625000Y-134050002I0J249998D01*
G01*
X137625000Y-133424998D01*
G75*
G02*
X137874998Y-133175000I249998J0D01*
G01*
X139125002Y-133175000D01*
G75*
G02*
X139375000Y-133424998I0J-249998D01*
G01*
X139375000Y-134050002D01*
G75*
G02*
X139125002Y-134300000I-249998J0D01*
G01*
G37*
G04 #@! TD.AperFunction*
D15*
X150075900Y-115519200D03*
X136372600Y-120256300D03*
X141693900Y-136728200D03*
D16*
X143720882Y-115315018D02*
X143770700Y-115265200D01*
X141291807Y-115315018D02*
X143720882Y-115315018D01*
X143770700Y-117303900D02*
X144679501Y-118212701D01*
X143770700Y-115265200D02*
X143770700Y-117303900D01*
X151307800Y-113068100D02*
X143865600Y-113068100D01*
X158508700Y-120269000D02*
X151307800Y-113068100D01*
X143770700Y-113163000D02*
X143770700Y-115265200D01*
X143865600Y-113068100D02*
X143770700Y-113163000D01*
X149618700Y-136776700D02*
X161076400Y-136776700D01*
X161076400Y-136776700D02*
X161340800Y-136512300D01*
X161340800Y-123101100D02*
X161366200Y-123075700D01*
X161340800Y-136512300D02*
X161340800Y-123101100D01*
X161366200Y-123075700D02*
X161366200Y-120992900D01*
X160642300Y-120269000D02*
X158508700Y-120269000D01*
X161366200Y-120992900D02*
X160642300Y-120269000D01*
X150079501Y-118212701D02*
X150079501Y-115522801D01*
X150079501Y-115522801D02*
X150075900Y-115519200D01*
X137725400Y-120332500D02*
X139725400Y-120332500D01*
X136779000Y-116302825D02*
X136779000Y-119386100D01*
X136779000Y-119386100D02*
X137725400Y-120332500D01*
X137766807Y-115315018D02*
X136779000Y-116302825D01*
X138491807Y-115315018D02*
X137766807Y-115315018D01*
X139725400Y-120332500D02*
X136448800Y-120332500D01*
X136448800Y-120332500D02*
X136372600Y-120256300D01*
X144538700Y-136776700D02*
X141742400Y-136776700D01*
X141742400Y-136776700D02*
X141693900Y-136728200D01*
X141628200Y-136662500D02*
X141693900Y-136728200D01*
X138500000Y-136662500D02*
X141628200Y-136662500D01*
X158508700Y-122809000D02*
X156324300Y-122809000D01*
X152998001Y-119482701D02*
X150079501Y-119482701D01*
X156324300Y-122809000D02*
X152998001Y-119482701D01*
X151229501Y-120752701D02*
X151230602Y-120751600D01*
X150079501Y-120752701D02*
X151229501Y-120752701D01*
X151230602Y-120751600D02*
X152057100Y-120751600D01*
X156654500Y-125349000D02*
X158508700Y-125349000D01*
X152057100Y-120751600D02*
X156654500Y-125349000D01*
X149618700Y-129751700D02*
X151485600Y-127884800D01*
X149618700Y-131726700D02*
X149618700Y-129751700D01*
X151485600Y-127884800D02*
X151485600Y-126034800D01*
X151283501Y-125832701D02*
X150079501Y-125832701D01*
X151485600Y-126034800D02*
X151283501Y-125832701D01*
X147078700Y-129751700D02*
X147078700Y-131726700D01*
X147078700Y-126413502D02*
X147078700Y-129751700D01*
X148929501Y-124562701D02*
X147078700Y-126413502D01*
X150079501Y-124562701D02*
X148929501Y-124562701D01*
X143529501Y-125832701D02*
X144679501Y-125832701D01*
X143052800Y-133395802D02*
X143052800Y-126309402D01*
X147078700Y-134801700D02*
X146643000Y-134366000D01*
X143052800Y-126309402D02*
X143529501Y-125832701D01*
X146643000Y-134366000D02*
X144022998Y-134366000D01*
X147078700Y-136776700D02*
X147078700Y-134801700D01*
X144022998Y-134366000D02*
X143052800Y-133395802D01*
X146570700Y-116240200D02*
X146570700Y-115265200D01*
X146570700Y-121281502D02*
X146570700Y-116240200D01*
X145829501Y-122022701D02*
X146570700Y-121281502D01*
X144679501Y-122022701D02*
X145829501Y-122022701D01*
X145829501Y-122022701D02*
X146215100Y-122408300D01*
X144538700Y-130651700D02*
X144538700Y-131726700D01*
X146215100Y-128975300D02*
X144538700Y-130651700D01*
X146215100Y-122408300D02*
X146215100Y-128975300D01*
X144679501Y-119482701D02*
X142533201Y-119482701D01*
X142183000Y-119132500D02*
X139725400Y-119132500D01*
X142533201Y-119482701D02*
X142183000Y-119132500D01*
X143529501Y-120752701D02*
X143515700Y-120738900D01*
X144679501Y-120752701D02*
X143529501Y-120752701D01*
X143515700Y-120738900D02*
X142570200Y-120738900D01*
X141776600Y-121532500D02*
X139725400Y-121532500D01*
X142570200Y-120738900D02*
X141776600Y-121532500D01*
X138500000Y-127400000D02*
X138500000Y-133737500D01*
X138537299Y-124562701D02*
X138500000Y-124600000D01*
X144679501Y-124562701D02*
X138537299Y-124562701D01*
M02*
