G04 #@! TF.GenerationSoftware,KiCad,Pcbnew,(5.1.9-0-10_14)*
G04 #@! TF.CreationDate,2021-11-30T17:14:19-08:00*
G04 #@! TF.ProjectId,t44-serial,7434342d-7365-4726-9961-6c2e6b696361,rev?*
G04 #@! TF.SameCoordinates,Original*
G04 #@! TF.FileFunction,Copper,L2,Bot*
G04 #@! TF.FilePolarity,Positive*
%FSLAX46Y46*%
G04 Gerber Fmt 4.6, Leading zero omitted, Abs format (unit mm)*
G04 Created by KiCad (PCBNEW (5.1.9-0-10_14)) date 2021-11-30 17:14:19*
%MOMM*%
%LPD*%
G01*
G04 APERTURE LIST*
G04 #@! TA.AperFunction,ComponentPad*
%ADD10R,1.700000X1.700000*%
G04 #@! TD*
G04 #@! TA.AperFunction,ComponentPad*
%ADD11O,1.700000X1.700000*%
G04 #@! TD*
G04 #@! TA.AperFunction,ViaPad*
%ADD12C,1.600000*%
G04 #@! TD*
G04 #@! TA.AperFunction,Conductor*
%ADD13C,0.400000*%
G04 #@! TD*
G04 #@! TA.AperFunction,Conductor*
%ADD14C,0.254000*%
G04 #@! TD*
G04 #@! TA.AperFunction,Conductor*
%ADD15C,0.100000*%
G04 #@! TD*
G04 APERTURE END LIST*
D10*
X158508700Y-115189000D03*
D11*
X158508700Y-117729000D03*
X158508700Y-120269000D03*
X158508700Y-122809000D03*
X158508700Y-125349000D03*
X158508700Y-127889000D03*
D12*
X150075900Y-115519200D03*
X136372600Y-120256300D03*
X141693900Y-136728200D03*
D13*
X158178500Y-115519200D02*
X158508700Y-115189000D01*
X150075900Y-115519200D02*
X158178500Y-115519200D01*
X141109700Y-115519200D02*
X150075900Y-115519200D01*
X136372600Y-120256300D02*
X141109700Y-115519200D01*
X136372600Y-121387670D02*
X136372600Y-120256300D01*
X140562530Y-136728200D02*
X136372600Y-132538270D01*
X141693900Y-136728200D02*
X140562530Y-136728200D01*
X136372600Y-132538270D02*
X136372600Y-121387670D01*
D14*
X161825001Y-138965000D02*
X135355000Y-138965000D01*
X135355000Y-116039000D01*
X157020628Y-116039000D01*
X157032888Y-116163482D01*
X157069198Y-116283180D01*
X157128163Y-116393494D01*
X157207515Y-116490185D01*
X157304206Y-116569537D01*
X157414520Y-116628502D01*
X157487080Y-116650513D01*
X157355225Y-116782368D01*
X157192710Y-117025589D01*
X157080768Y-117295842D01*
X157023700Y-117582740D01*
X157023700Y-117875260D01*
X157080768Y-118162158D01*
X157192710Y-118432411D01*
X157355225Y-118675632D01*
X157562068Y-118882475D01*
X157736460Y-118999000D01*
X157562068Y-119115525D01*
X157355225Y-119322368D01*
X157192710Y-119565589D01*
X157080768Y-119835842D01*
X157023700Y-120122740D01*
X157023700Y-120415260D01*
X157080768Y-120702158D01*
X157192710Y-120972411D01*
X157355225Y-121215632D01*
X157562068Y-121422475D01*
X157736460Y-121539000D01*
X157562068Y-121655525D01*
X157355225Y-121862368D01*
X157192710Y-122105589D01*
X157080768Y-122375842D01*
X157023700Y-122662740D01*
X157023700Y-122955260D01*
X157080768Y-123242158D01*
X157192710Y-123512411D01*
X157355225Y-123755632D01*
X157562068Y-123962475D01*
X157736460Y-124079000D01*
X157562068Y-124195525D01*
X157355225Y-124402368D01*
X157192710Y-124645589D01*
X157080768Y-124915842D01*
X157023700Y-125202740D01*
X157023700Y-125495260D01*
X157080768Y-125782158D01*
X157192710Y-126052411D01*
X157355225Y-126295632D01*
X157562068Y-126502475D01*
X157736460Y-126619000D01*
X157562068Y-126735525D01*
X157355225Y-126942368D01*
X157192710Y-127185589D01*
X157080768Y-127455842D01*
X157023700Y-127742740D01*
X157023700Y-128035260D01*
X157080768Y-128322158D01*
X157192710Y-128592411D01*
X157355225Y-128835632D01*
X157562068Y-129042475D01*
X157805289Y-129204990D01*
X158075542Y-129316932D01*
X158362440Y-129374000D01*
X158654960Y-129374000D01*
X158941858Y-129316932D01*
X159212111Y-129204990D01*
X159455332Y-129042475D01*
X159662175Y-128835632D01*
X159824690Y-128592411D01*
X159936632Y-128322158D01*
X159993700Y-128035260D01*
X159993700Y-127742740D01*
X159936632Y-127455842D01*
X159824690Y-127185589D01*
X159662175Y-126942368D01*
X159455332Y-126735525D01*
X159280940Y-126619000D01*
X159455332Y-126502475D01*
X159662175Y-126295632D01*
X159824690Y-126052411D01*
X159936632Y-125782158D01*
X159993700Y-125495260D01*
X159993700Y-125202740D01*
X159936632Y-124915842D01*
X159824690Y-124645589D01*
X159662175Y-124402368D01*
X159455332Y-124195525D01*
X159280940Y-124079000D01*
X159455332Y-123962475D01*
X159662175Y-123755632D01*
X159824690Y-123512411D01*
X159936632Y-123242158D01*
X159993700Y-122955260D01*
X159993700Y-122662740D01*
X159936632Y-122375842D01*
X159824690Y-122105589D01*
X159662175Y-121862368D01*
X159455332Y-121655525D01*
X159280940Y-121539000D01*
X159455332Y-121422475D01*
X159662175Y-121215632D01*
X159824690Y-120972411D01*
X159936632Y-120702158D01*
X159993700Y-120415260D01*
X159993700Y-120122740D01*
X159936632Y-119835842D01*
X159824690Y-119565589D01*
X159662175Y-119322368D01*
X159455332Y-119115525D01*
X159280940Y-118999000D01*
X159455332Y-118882475D01*
X159662175Y-118675632D01*
X159824690Y-118432411D01*
X159936632Y-118162158D01*
X159993700Y-117875260D01*
X159993700Y-117582740D01*
X159936632Y-117295842D01*
X159824690Y-117025589D01*
X159662175Y-116782368D01*
X159530320Y-116650513D01*
X159602880Y-116628502D01*
X159713194Y-116569537D01*
X159809885Y-116490185D01*
X159889237Y-116393494D01*
X159948202Y-116283180D01*
X159984512Y-116163482D01*
X159996772Y-116039000D01*
X159993700Y-115474750D01*
X159834950Y-115316000D01*
X158635700Y-115316000D01*
X158635700Y-115336000D01*
X158381700Y-115336000D01*
X158381700Y-115316000D01*
X157182450Y-115316000D01*
X157023700Y-115474750D01*
X157020628Y-116039000D01*
X135355000Y-116039000D01*
X135355000Y-114339000D01*
X157020628Y-114339000D01*
X157023700Y-114903250D01*
X157182450Y-115062000D01*
X158381700Y-115062000D01*
X158381700Y-113862750D01*
X158635700Y-113862750D01*
X158635700Y-115062000D01*
X159834950Y-115062000D01*
X159993700Y-114903250D01*
X159996772Y-114339000D01*
X159984512Y-114214518D01*
X159948202Y-114094820D01*
X159889237Y-113984506D01*
X159809885Y-113887815D01*
X159713194Y-113808463D01*
X159602880Y-113749498D01*
X159483182Y-113713188D01*
X159358700Y-113700928D01*
X158794450Y-113704000D01*
X158635700Y-113862750D01*
X158381700Y-113862750D01*
X158222950Y-113704000D01*
X157658700Y-113700928D01*
X157534218Y-113713188D01*
X157414520Y-113749498D01*
X157304206Y-113808463D01*
X157207515Y-113887815D01*
X157128163Y-113984506D01*
X157069198Y-114094820D01*
X157032888Y-114214518D01*
X157020628Y-114339000D01*
X135355000Y-114339000D01*
X135355000Y-112495000D01*
X161825000Y-112495000D01*
X161825001Y-138965000D01*
G04 #@! TA.AperFunction,Conductor*
D15*
G36*
X161825001Y-138965000D02*
G01*
X135355000Y-138965000D01*
X135355000Y-116039000D01*
X157020628Y-116039000D01*
X157032888Y-116163482D01*
X157069198Y-116283180D01*
X157128163Y-116393494D01*
X157207515Y-116490185D01*
X157304206Y-116569537D01*
X157414520Y-116628502D01*
X157487080Y-116650513D01*
X157355225Y-116782368D01*
X157192710Y-117025589D01*
X157080768Y-117295842D01*
X157023700Y-117582740D01*
X157023700Y-117875260D01*
X157080768Y-118162158D01*
X157192710Y-118432411D01*
X157355225Y-118675632D01*
X157562068Y-118882475D01*
X157736460Y-118999000D01*
X157562068Y-119115525D01*
X157355225Y-119322368D01*
X157192710Y-119565589D01*
X157080768Y-119835842D01*
X157023700Y-120122740D01*
X157023700Y-120415260D01*
X157080768Y-120702158D01*
X157192710Y-120972411D01*
X157355225Y-121215632D01*
X157562068Y-121422475D01*
X157736460Y-121539000D01*
X157562068Y-121655525D01*
X157355225Y-121862368D01*
X157192710Y-122105589D01*
X157080768Y-122375842D01*
X157023700Y-122662740D01*
X157023700Y-122955260D01*
X157080768Y-123242158D01*
X157192710Y-123512411D01*
X157355225Y-123755632D01*
X157562068Y-123962475D01*
X157736460Y-124079000D01*
X157562068Y-124195525D01*
X157355225Y-124402368D01*
X157192710Y-124645589D01*
X157080768Y-124915842D01*
X157023700Y-125202740D01*
X157023700Y-125495260D01*
X157080768Y-125782158D01*
X157192710Y-126052411D01*
X157355225Y-126295632D01*
X157562068Y-126502475D01*
X157736460Y-126619000D01*
X157562068Y-126735525D01*
X157355225Y-126942368D01*
X157192710Y-127185589D01*
X157080768Y-127455842D01*
X157023700Y-127742740D01*
X157023700Y-128035260D01*
X157080768Y-128322158D01*
X157192710Y-128592411D01*
X157355225Y-128835632D01*
X157562068Y-129042475D01*
X157805289Y-129204990D01*
X158075542Y-129316932D01*
X158362440Y-129374000D01*
X158654960Y-129374000D01*
X158941858Y-129316932D01*
X159212111Y-129204990D01*
X159455332Y-129042475D01*
X159662175Y-128835632D01*
X159824690Y-128592411D01*
X159936632Y-128322158D01*
X159993700Y-128035260D01*
X159993700Y-127742740D01*
X159936632Y-127455842D01*
X159824690Y-127185589D01*
X159662175Y-126942368D01*
X159455332Y-126735525D01*
X159280940Y-126619000D01*
X159455332Y-126502475D01*
X159662175Y-126295632D01*
X159824690Y-126052411D01*
X159936632Y-125782158D01*
X159993700Y-125495260D01*
X159993700Y-125202740D01*
X159936632Y-124915842D01*
X159824690Y-124645589D01*
X159662175Y-124402368D01*
X159455332Y-124195525D01*
X159280940Y-124079000D01*
X159455332Y-123962475D01*
X159662175Y-123755632D01*
X159824690Y-123512411D01*
X159936632Y-123242158D01*
X159993700Y-122955260D01*
X159993700Y-122662740D01*
X159936632Y-122375842D01*
X159824690Y-122105589D01*
X159662175Y-121862368D01*
X159455332Y-121655525D01*
X159280940Y-121539000D01*
X159455332Y-121422475D01*
X159662175Y-121215632D01*
X159824690Y-120972411D01*
X159936632Y-120702158D01*
X159993700Y-120415260D01*
X159993700Y-120122740D01*
X159936632Y-119835842D01*
X159824690Y-119565589D01*
X159662175Y-119322368D01*
X159455332Y-119115525D01*
X159280940Y-118999000D01*
X159455332Y-118882475D01*
X159662175Y-118675632D01*
X159824690Y-118432411D01*
X159936632Y-118162158D01*
X159993700Y-117875260D01*
X159993700Y-117582740D01*
X159936632Y-117295842D01*
X159824690Y-117025589D01*
X159662175Y-116782368D01*
X159530320Y-116650513D01*
X159602880Y-116628502D01*
X159713194Y-116569537D01*
X159809885Y-116490185D01*
X159889237Y-116393494D01*
X159948202Y-116283180D01*
X159984512Y-116163482D01*
X159996772Y-116039000D01*
X159993700Y-115474750D01*
X159834950Y-115316000D01*
X158635700Y-115316000D01*
X158635700Y-115336000D01*
X158381700Y-115336000D01*
X158381700Y-115316000D01*
X157182450Y-115316000D01*
X157023700Y-115474750D01*
X157020628Y-116039000D01*
X135355000Y-116039000D01*
X135355000Y-114339000D01*
X157020628Y-114339000D01*
X157023700Y-114903250D01*
X157182450Y-115062000D01*
X158381700Y-115062000D01*
X158381700Y-113862750D01*
X158635700Y-113862750D01*
X158635700Y-115062000D01*
X159834950Y-115062000D01*
X159993700Y-114903250D01*
X159996772Y-114339000D01*
X159984512Y-114214518D01*
X159948202Y-114094820D01*
X159889237Y-113984506D01*
X159809885Y-113887815D01*
X159713194Y-113808463D01*
X159602880Y-113749498D01*
X159483182Y-113713188D01*
X159358700Y-113700928D01*
X158794450Y-113704000D01*
X158635700Y-113862750D01*
X158381700Y-113862750D01*
X158222950Y-113704000D01*
X157658700Y-113700928D01*
X157534218Y-113713188D01*
X157414520Y-113749498D01*
X157304206Y-113808463D01*
X157207515Y-113887815D01*
X157128163Y-113984506D01*
X157069198Y-114094820D01*
X157032888Y-114214518D01*
X157020628Y-114339000D01*
X135355000Y-114339000D01*
X135355000Y-112495000D01*
X161825000Y-112495000D01*
X161825001Y-138965000D01*
G37*
G04 #@! TD.AperFunction*
M02*
