M48
; DRILL file {KiCad (5.1.9-0-10_14)} date Friday, December 03, 2021 at 02:52:37 PM
; FORMAT={-:-/ absolute / inch / decimal}
; #@! TF.CreationDate,2021-12-03T14:52:37-08:00
; #@! TF.GenerationSoftware,Kicad,Pcbnew,(5.1.9-0-10_14)
; #@! TF.FileFunction,Plated,1,2,PTH
FMAT,2
INCH
T1C0.0315
T2C0.0394
%
G90
G05
T1
X4.3622Y-1.674
X4.3622Y-1.774
X4.3622Y-1.874
X4.3622Y-1.974
X4.3622Y-2.074
X4.3622Y-2.174
X4.3622Y-2.274
X4.3622Y-2.374
X4.8622Y-1.674
X4.8622Y-1.774
X4.8622Y-1.874
X4.8622Y-1.974
X4.8622Y-2.074
X4.8622Y-2.174
X4.8622Y-2.274
X4.8622Y-2.374
T2
X3.4449Y-1.8504
X3.5413Y-1.1713
X3.624Y-2.6043
X3.6413Y-1.1713
X3.7413Y-1.1713
X3.8413Y-1.1713
X3.9413Y-1.1713
X4.0413Y-1.1713
X4.061Y-1.6654
X4.5969Y-0.6299
X4.6969Y-0.6299
X5.2047Y-1.9783
X5.2146Y-2.1693
X5.4311Y-1.8681
X5.4311Y-2.0689
T0
M30
