<svg xmlns="http://www.w3.org/2000/svg" id="viewer" style="" width="25.4mm" height="25.4mm" viewBox="0 0 1 1" xmlns:xlink="http://www.w3.org/1999/xlink">
      <g class="transform-group" style="" transform="scale(1, -1) translate(0, -1)">
            <!--?lit$3200782943$-->
          <g class="shapes"><!--?lit$3200782943$--><!---->
    <g id="interior">
      <!--?lit$3200782943$--><!---->
    <path fill-rule="nonzero" d="M 0.62 0.7L 0.6224 0.7L 0.6249 0.6998L 0.6273 0.6996L 0.6297 0.6993L 0.6322 0.6989L 0.6346 0.6985L 0.6369 0.6979L 0.6393 0.6973L 0.6416 0.6966L 0.6439 0.6958L 0.6462 0.6949L 0.6485 0.6939L 0.6507 0.6929L 0.6529 0.6918L 0.655 0.6906L 0.6571 0.6894L 0.6591 0.688L 0.6611 0.6866L 0.6631 0.6852L 0.665 0.6836L 0.6668 0.682L 0.6686 0.6804L 0.6704 0.6786L 0.672 0.6768L 0.6736 0.675L 0.6752 0.6731L 0.6766 0.6711L 0.678 0.6691L 0.6794 0.6671L 0.6806 0.665L 0.6818 0.6629L 0.6829 0.6607L 0.6839 0.6585L 0.6849 0.6562L 0.6858 0.6539L 0.6866 0.6516L 0.6873 0.6493L 0.6879 0.6469L 0.6885 0.6446L 0.6889 0.6422L 0.6893 0.6397L 0.6896 0.6373L 0.6898 0.6349L 0.69 0.6324L 0.69 0.63L 0.69 0.45L 0.69 0.4476L 0.6898 0.4451L 0.6896 0.4427L 0.6893 0.4403L 0.6889 0.4378L 0.6885 0.4354L 0.6879 0.4331L 0.6873 0.4307L 0.6866 0.4284L 0.6858 0.4261L 0.6849 0.4238L 0.6839 0.4215L 0.6829 0.4193L 0.6818 0.4171L 0.6806 0.415L 0.6794 0.4129L 0.678 0.4109L 0.6766 0.4089L 0.6752 0.4069L 0.6736 0.405L 0.672 0.4032L 0.6704 0.4014L 0.6686 0.3996L 0.6668 0.398L 0.665 0.3964L 0.6631 0.3948L 0.6611 0.3934L 0.6591 0.392L 0.6571 0.3906L 0.655 0.3894L 0.6529 0.3882L 0.6507 0.3871L 0.6485 0.3861L 0.6462 0.3851L 0.6439 0.3842L 0.6416 0.3834L 0.6393 0.3827L 0.6369 0.3821L 0.6346 0.3815L 0.6322 0.3811L 0.6297 0.3807L 0.6273 0.3804L 0.6249 0.3802L 0.6224 0.38L 0.62 0.38L 0.2 0.38L 0.1976 0.38L 0.1951 0.3802L 0.1927 0.3804L 0.1903 0.3807L 0.1878 0.3811L 0.1854 0.3815L 0.1831 0.3821L 0.1807 0.3827L 0.1784 0.3834L 0.1761 0.3842L 0.1738 0.3851L 0.1715 0.3861L 0.1693 0.3871L 0.1671 0.3882L 0.165 0.3894L 0.1629 0.3906L 0.1609 0.392L 0.1589 0.3934L 0.1569 0.3948L 0.155 0.3964L 0.1532 0.398L 0.1514 0.3996L 0.1496 0.4014L 0.148 0.4032L 0.1464 0.405L 0.1448 0.4069L 0.1434 0.4089L 0.142 0.4109L 0.1406 0.4129L 0.1394 0.415L 0.1382 0.4171L 0.1371 0.4193L 0.1361 0.4215L 0.1351 0.4238L 0.1342 0.4261L 0.1334 0.4284L 0.1327 0.4307L 0.1321 0.4331L 0.1315 0.4354L 0.1311 0.4378L 0.1307 0.4403L 0.1304 0.4427L 0.1302 0.4451L 0.13 0.4476L 0.13 0.45L 0.13 0.63L 0.13 0.6324L 0.1302 0.6349L 0.1304 0.6373L 0.1307 0.6397L 0.1311 0.6422L 0.1315 0.6446L 0.1321 0.6469L 0.1327 0.6493L 0.1334 0.6516L 0.1342 0.6539L 0.1351 0.6562L 0.1361 0.6585L 0.1371 0.6607L 0.1382 0.6629L 0.1394 0.665L 0.1406 0.6671L 0.142 0.6691L 0.1434 0.6711L 0.1448 0.6731L 0.1464 0.675L 0.148 0.6768L 0.1496 0.6786L 0.1514 0.6804L 0.1532 0.682L 0.155 0.6836L 0.1569 0.6852L 0.1589 0.6866L 0.1609 0.688L 0.1629 0.6894L 0.165 0.6906L 0.1671 0.6918L 0.1693 0.6929L 0.1715 0.6939L 0.1738 0.6949L 0.1761 0.6958L 0.1784 0.6966L 0.1807 0.6973L 0.1831 0.6979L 0.1854 0.6985L 0.1878 0.6989L 0.1903 0.6993L 0.1927 0.6996L 0.1951 0.6998L 0.1976 0.7L 0.2 0.7L 0.62 0.7L 0.62 0.7" fill="#002d00" fill-opacity="1"/>
  <!---->
    </g>
  <!----><!---->
    <g id="B.Cu">
      <!--?lit$3200782943$--><!---->
    <path fill-rule="nonzero" d="M 0.2547 0.4332L 0.257 0.4334L 0.2593 0.4337L 0.2639 0.4345L 0.2662 0.4351L 0.2684 0.4357L 0.2707 0.4363L 0.2751 0.4379L 0.2772 0.4389L 0.2793 0.4398L 0.2835 0.442L 0.2855 0.4432L 0.2874 0.4445L 0.2912 0.4473L 0.293 0.4487L 0.2948 0.4503L 0.2965 0.4519L 0.2981 0.4535L 0.2997 0.4552L 0.3013 0.457L 0.3027 0.4588L 0.3055 0.4626L 0.3068 0.4645L 0.308 0.4665L 0.3102 0.4707L 0.3111 0.4728L 0.3121 0.4749L 0.3137 0.4793L 0.3143 0.4816L 0.3149 0.4838L 0.3155 0.4861L 0.3163 0.4907L 0.3165 0.4925L 0.408 0.4925L 0.408 0.466L 0.472 0.466L 0.472 0.534L 0.408 0.534L 0.408 0.5075L 0.3165 0.5075L 0.3163 0.5093L 0.3155 0.5139L 0.3149 0.5162L 0.3143 0.5184L 0.3137 0.5207L 0.3121 0.5251L 0.3111 0.5272L 0.3102 0.5293L 0.308 0.5335L 0.3068 0.5355L 0.3055 0.5374L 0.3027 0.5412L 0.3013 0.543L 0.2997 0.5448L 0.2981 0.5465L 0.2965 0.5481L 0.2948 0.5497L 0.293 0.5513L 0.2912 0.5527L 0.2874 0.5555L 0.2855 0.5568L 0.2835 0.558L 0.2793 0.5602L 0.2772 0.5611L 0.2751 0.5621L 0.2707 0.5637L 0.2684 0.5643L 0.2662 0.5649L 0.2639 0.5655L 0.2593 0.5663L 0.2578 0.5665L 0.2835 0.5665L 0.2835 0.5925L 0.408 0.5925L 0.408 0.566L 0.472 0.566L 0.472 0.634L 0.408 0.634L 0.408 0.6075L 0.2835 0.6075L 0.2835 0.6335L 0.2165 0.6335L 0.2165 0.5665L 0.2422 0.5665L 0.2407 0.5663L 0.2361 0.5655L 0.2338 0.5649L 0.2316 0.5643L 0.2293 0.5637L 0.2249 0.5621L 0.2228 0.5611L 0.2207 0.5602L 0.2165 0.558L 0.2145 0.5568L 0.2126 0.5555L 0.2088 0.5527L 0.207 0.5513L 0.2052 0.5497L 0.2035 0.5481L 0.2019 0.5465L 0.2003 0.5448L 0.1987 0.543L 0.1973 0.5412L 0.1945 0.5374L 0.1932 0.5355L 0.192 0.5335L 0.1898 0.5293L 0.1889 0.5272L 0.1879 0.5251L 0.1863 0.5207L 0.1857 0.5184L 0.1851 0.5162L 0.1845 0.5139L 0.1837 0.5093L 0.1834 0.507L 0.1832 0.5047L 0.1831 0.5023L 0.1831 0.4977L 0.1832 0.4953L 0.1834 0.493L 0.1837 0.4907L 0.1845 0.4861L 0.1851 0.4838L 0.1857 0.4816L 0.1863 0.4793L 0.1879 0.4749L 0.1889 0.4728L 0.1898 0.4707L 0.192 0.4665L 0.1932 0.4645L 0.1945 0.4626L 0.1973 0.4588L 0.1987 0.457L 0.2003 0.4552L 0.2019 0.4535L 0.2035 0.4519L 0.2052 0.4503L 0.207 0.4487L 0.2088 0.4473L 0.2126 0.4445L 0.2145 0.4432L 0.2165 0.442L 0.2207 0.4398L 0.2228 0.4389L 0.2249 0.4379L 0.2293 0.4363L 0.2316 0.4357L 0.2338 0.4351L 0.2361 0.4345L 0.2407 0.4337L 0.243 0.4334L 0.2453 0.4332L 0.2477 0.4331L 0.2523 0.4331L 0.2547 0.4332 " fill="#ff4c00" fill-opacity="0.4980392156862745"/>
  <!----><!---->
    <path fill-rule="nonzero" d="M 0.592 0.534L 0.5642 0.534L 0.5658 0.566L 0.592 0.566L 0.592 0.634L 0.528 0.634L 0.528 0.566L 0.5508 0.566L 0.5492 0.534L 0.528 0.534L 0.528 0.466L 0.592 0.466L 0.592 0.534" fill="#ff4c00" fill-opacity="0.4980392156862745"/>
  <!---->
    </g>
  <!----><!---->
    <g id="F.Cu">
      <!--?lit$3200782943$--><!---->
    <path fill-rule="nonzero" d="M 0.592 0.534L 0.5642 0.534L 0.5658 0.566L 0.592 0.566L 0.592 0.634L 0.528 0.634L 0.528 0.566L 0.5508 0.566L 0.5492 0.534L 0.528 0.534L 0.528 0.466L 0.592 0.466L 0.592 0.534 " fill="#ff8c00" fill-opacity="0.8"/>
  <!----><!---->
    <path fill-rule="nonzero" d="M 0.2547 0.4332L 0.257 0.4334L 0.2593 0.4337L 0.2639 0.4345L 0.2662 0.4351L 0.2684 0.4357L 0.2707 0.4363L 0.2751 0.4379L 0.2772 0.4389L 0.2793 0.4398L 0.2835 0.442L 0.2855 0.4432L 0.2874 0.4445L 0.2912 0.4473L 0.293 0.4487L 0.2948 0.4503L 0.2965 0.4519L 0.2981 0.4535L 0.2997 0.4552L 0.3013 0.457L 0.3027 0.4588L 0.3055 0.4626L 0.3068 0.4645L 0.308 0.4665L 0.3102 0.4707L 0.3111 0.4728L 0.3121 0.4749L 0.3137 0.4793L 0.3143 0.4816L 0.3149 0.4838L 0.3155 0.4861L 0.3163 0.4907L 0.3165 0.4925L 0.408 0.4925L 0.408 0.466L 0.472 0.466L 0.472 0.534L 0.408 0.534L 0.408 0.5075L 0.3165 0.5075L 0.3163 0.5093L 0.3155 0.5139L 0.3149 0.5162L 0.3143 0.5184L 0.3137 0.5207L 0.3121 0.5251L 0.3111 0.5272L 0.3102 0.5293L 0.308 0.5335L 0.3068 0.5355L 0.3055 0.5374L 0.3027 0.5412L 0.3013 0.543L 0.2997 0.5448L 0.2981 0.5465L 0.2965 0.5481L 0.2948 0.5497L 0.293 0.5513L 0.2912 0.5527L 0.2874 0.5555L 0.2855 0.5568L 0.2835 0.558L 0.2793 0.5602L 0.2772 0.5611L 0.2751 0.5621L 0.2707 0.5637L 0.2684 0.5643L 0.2662 0.5649L 0.2639 0.5655L 0.2593 0.5663L 0.2578 0.5665L 0.2835 0.5665L 0.2835 0.5925L 0.408 0.5925L 0.408 0.566L 0.472 0.566L 0.472 0.634L 0.408 0.634L 0.408 0.6075L 0.2835 0.6075L 0.2835 0.6335L 0.2165 0.6335L 0.2165 0.5665L 0.2422 0.5665L 0.2407 0.5663L 0.2361 0.5655L 0.2338 0.5649L 0.2316 0.5643L 0.2293 0.5637L 0.2249 0.5621L 0.2228 0.5611L 0.2207 0.5602L 0.2165 0.558L 0.2145 0.5568L 0.2126 0.5555L 0.2088 0.5527L 0.207 0.5513L 0.2052 0.5497L 0.2035 0.5481L 0.2019 0.5465L 0.2003 0.5448L 0.1987 0.543L 0.1973 0.5412L 0.1945 0.5374L 0.1932 0.5355L 0.192 0.5335L 0.1898 0.5293L 0.1889 0.5272L 0.1879 0.5251L 0.1863 0.5207L 0.1857 0.5184L 0.1851 0.5162L 0.1845 0.5139L 0.1837 0.5093L 0.1834 0.507L 0.1832 0.5047L 0.1831 0.5023L 0.1831 0.4977L 0.1832 0.4953L 0.1834 0.493L 0.1837 0.4907L 0.1845 0.4861L 0.1851 0.4838L 0.1857 0.4816L 0.1863 0.4793L 0.1879 0.4749L 0.1889 0.4728L 0.1898 0.4707L 0.192 0.4665L 0.1932 0.4645L 0.1945 0.4626L 0.1973 0.4588L 0.1987 0.457L 0.2003 0.4552L 0.2019 0.4535L 0.2035 0.4519L 0.2052 0.4503L 0.207 0.4487L 0.2088 0.4473L 0.2126 0.4445L 0.2145 0.4432L 0.2165 0.442L 0.2207 0.4398L 0.2228 0.4389L 0.2249 0.4379L 0.2293 0.4363L 0.2316 0.4357L 0.2338 0.4351L 0.2361 0.4345L 0.2407 0.4337L 0.243 0.4334L 0.2453 0.4332L 0.2477 0.4331L 0.2523 0.4331L 0.2547 0.4332" fill="#ff8c00" fill-opacity="0.8"/>
  <!---->
    </g>
  <!----><!---->
    <g id="drill">
      <!--?lit$3200782943$--><!---->
    <path fill-rule="nonzero" d="M 0.2514 0.5607L 0.2527 0.5607L 0.2541 0.5608L 0.2555 0.561L 0.2568 0.5612L 0.2582 0.5615L 0.2595 0.5618L 0.2609 0.5622L 0.2635 0.563L 0.2647 0.5635L 0.266 0.564L 0.2673 0.5646L 0.2685 0.5652L 0.2709 0.5666L 0.272 0.5674L 0.2731 0.5681L 0.2742 0.569L 0.2753 0.5698L 0.2763 0.5707L 0.2793 0.5737L 0.2802 0.5747L 0.281 0.5758L 0.2819 0.5769L 0.2826 0.578L 0.2834 0.5791L 0.2848 0.5815L 0.2854 0.5827L 0.286 0.584L 0.2865 0.5853L 0.287 0.5865L 0.2878 0.5891L 0.2882 0.5905L 0.2885 0.5918L 0.2888 0.5932L 0.289 0.5945L 0.2892 0.5959L 0.2893 0.5973L 0.2893 0.5986L 0.2894 0.6L 0.2893 0.6014L 0.2893 0.6027L 0.2892 0.6041L 0.289 0.6055L 0.2888 0.6068L 0.2885 0.6082L 0.2882 0.6095L 0.2878 0.6109L 0.287 0.6135L 0.2865 0.6147L 0.286 0.616L 0.2854 0.6173L 0.2848 0.6185L 0.2834 0.6209L 0.2826 0.622L 0.2819 0.6231L 0.281 0.6242L 0.2802 0.6253L 0.2793 0.6263L 0.2763 0.6293L 0.2753 0.6302L 0.2742 0.631L 0.2731 0.6319L 0.272 0.6326L 0.2709 0.6334L 0.2685 0.6348L 0.2673 0.6354L 0.266 0.636L 0.2647 0.6365L 0.2635 0.637L 0.2609 0.6378L 0.2595 0.6382L 0.2582 0.6385L 0.2568 0.6388L 0.2555 0.639L 0.2541 0.6392L 0.2527 0.6393L 0.2514 0.6393L 0.25 0.6394L 0.2486 0.6393L 0.2473 0.6393L 0.2459 0.6392L 0.2445 0.639L 0.2432 0.6388L 0.2418 0.6385L 0.2405 0.6382L 0.2391 0.6378L 0.2365 0.637L 0.2353 0.6365L 0.234 0.636L 0.2327 0.6354L 0.2315 0.6348L 0.2291 0.6334L 0.228 0.6326L 0.2269 0.6319L 0.2258 0.631L 0.2247 0.6302L 0.2237 0.6293L 0.2207 0.6263L 0.2198 0.6253L 0.219 0.6242L 0.2181 0.6231L 0.2174 0.622L 0.2166 0.6209L 0.2152 0.6185L 0.2146 0.6173L 0.214 0.616L 0.2135 0.6147L 0.213 0.6135L 0.2122 0.6109L 0.2118 0.6095L 0.2115 0.6082L 0.2112 0.6068L 0.211 0.6055L 0.2108 0.6041L 0.2107 0.6027L 0.2107 0.6014L 0.2106 0.6L 0.2107 0.5986L 0.2107 0.5973L 0.2108 0.5959L 0.211 0.5945L 0.2112 0.5932L 0.2115 0.5918L 0.2118 0.5905L 0.2122 0.5891L 0.213 0.5865L 0.2135 0.5853L 0.214 0.584L 0.2146 0.5827L 0.2152 0.5815L 0.2166 0.5791L 0.2174 0.578L 0.2181 0.5769L 0.219 0.5758L 0.2198 0.5747L 0.2207 0.5737L 0.2237 0.5707L 0.2247 0.5698L 0.2258 0.569L 0.2269 0.5681L 0.228 0.5674L 0.2291 0.5666L 0.2315 0.5652L 0.2327 0.5646L 0.234 0.564L 0.2353 0.5635L 0.2365 0.563L 0.2391 0.5622L 0.2405 0.5618L 0.2418 0.5615L 0.2432 0.5612L 0.2445 0.561L 0.2459 0.5608L 0.2473 0.5607L 0.2486 0.5607L 0.25 0.5606L 0.2514 0.5607 " fill="#ff3300" fill-opacity="0.8980392156862745"/>
  <!----><!---->
    <path fill-rule="nonzero" d="M 0.2514 0.4607L 0.2527 0.4607L 0.2541 0.4608L 0.2555 0.461L 0.2568 0.4612L 0.2582 0.4615L 0.2595 0.4618L 0.2609 0.4622L 0.2635 0.463L 0.2647 0.4635L 0.266 0.464L 0.2673 0.4646L 0.2685 0.4652L 0.2709 0.4666L 0.272 0.4674L 0.2731 0.4681L 0.2742 0.469L 0.2753 0.4698L 0.2763 0.4707L 0.2793 0.4737L 0.2802 0.4747L 0.281 0.4758L 0.2819 0.4769L 0.2826 0.478L 0.2834 0.4791L 0.2848 0.4815L 0.2854 0.4827L 0.286 0.484L 0.2865 0.4853L 0.287 0.4865L 0.2878 0.4891L 0.2882 0.4905L 0.2885 0.4918L 0.2888 0.4932L 0.289 0.4945L 0.2892 0.4959L 0.2893 0.4973L 0.2893 0.4986L 0.2894 0.5L 0.2893 0.5014L 0.2893 0.5027L 0.2892 0.5041L 0.289 0.5055L 0.2888 0.5068L 0.2885 0.5082L 0.2882 0.5095L 0.2878 0.5109L 0.287 0.5135L 0.2865 0.5147L 0.286 0.516L 0.2854 0.5173L 0.2848 0.5185L 0.2834 0.5209L 0.2826 0.522L 0.2819 0.5231L 0.281 0.5242L 0.2802 0.5253L 0.2793 0.5263L 0.2763 0.5293L 0.2753 0.5302L 0.2742 0.531L 0.2731 0.5319L 0.272 0.5326L 0.2709 0.5334L 0.2685 0.5348L 0.2673 0.5354L 0.266 0.536L 0.2647 0.5365L 0.2635 0.537L 0.2609 0.5378L 0.2595 0.5382L 0.2582 0.5385L 0.2568 0.5388L 0.2555 0.539L 0.2541 0.5392L 0.2527 0.5393L 0.2514 0.5393L 0.25 0.5394L 0.2486 0.5393L 0.2473 0.5393L 0.2459 0.5392L 0.2445 0.539L 0.2432 0.5388L 0.2418 0.5385L 0.2405 0.5382L 0.2391 0.5378L 0.2365 0.537L 0.2353 0.5365L 0.234 0.536L 0.2327 0.5354L 0.2315 0.5348L 0.2291 0.5334L 0.228 0.5326L 0.2269 0.5319L 0.2258 0.531L 0.2247 0.5302L 0.2237 0.5293L 0.2207 0.5263L 0.2198 0.5253L 0.219 0.5242L 0.2181 0.5231L 0.2174 0.522L 0.2166 0.5209L 0.2152 0.5185L 0.2146 0.5173L 0.214 0.516L 0.2135 0.5147L 0.213 0.5135L 0.2122 0.5109L 0.2118 0.5095L 0.2115 0.5082L 0.2112 0.5068L 0.211 0.5055L 0.2108 0.5041L 0.2107 0.5027L 0.2107 0.5014L 0.2106 0.5L 0.2107 0.4986L 0.2107 0.4973L 0.2108 0.4959L 0.211 0.4945L 0.2112 0.4932L 0.2115 0.4918L 0.2118 0.4905L 0.2122 0.4891L 0.213 0.4865L 0.2135 0.4853L 0.214 0.484L 0.2146 0.4827L 0.2152 0.4815L 0.2166 0.4791L 0.2174 0.478L 0.2181 0.4769L 0.219 0.4758L 0.2198 0.4747L 0.2207 0.4737L 0.2237 0.4707L 0.2247 0.4698L 0.2258 0.469L 0.2269 0.4681L 0.228 0.4674L 0.2291 0.4666L 0.2315 0.4652L 0.2327 0.4646L 0.234 0.464L 0.2353 0.4635L 0.2365 0.463L 0.2391 0.4622L 0.2405 0.4618L 0.2418 0.4615L 0.2432 0.4612L 0.2445 0.461L 0.2459 0.4608L 0.2473 0.4607L 0.2486 0.4607L 0.25 0.4606L 0.2514 0.4607" fill="#ff3300" fill-opacity="0.8980392156862745"/>
  <!---->
    </g>
  <!----><!----><g id="padLabels"><!--?lit$3200782943$-->
    <path fill-rule="nonzero" d="M 0.2480431162587422 0.6050999999999987L 0.2480431162587422 0.6050999999999987L 0.2480431162587422 0.5945999999999984L 0.2519568837412578 0.5945999999999984L 0.2519568837412578 0.6054000000000016L 0.2480431162587422 0.6054000000000016L 0.2480431162587422 0.6050999999999987 M 0.2537593572918304 0.5051000000000005L 0.2537593572918304 0.5051000000000005L 0.25298215948962977 0.5044249999999995L 0.2520821594896354 0.5037981865284973L 0.2496821594896339 0.5023420886075929L 0.24938215948963105 0.5022150990099004L 0.2490821594896353 0.501995153061225L 0.24878215948963245 0.50186818181818L 0.24758215948963525 0.501125L 0.2472821594896324 0.5010033678756454L 0.24698215948962954 0.500785679611651L 0.2466821594896338 0.5006397959183655L 0.2460821594896352 0.5002101648351651L 0.24578215948963233 0.5000638888888869L 0.24458215948963513 0.4992029729729719L 0.24368215948963368 0.49840675675675605L 0.24239465948963002 0.4969999999999981L 0.24226233190342228 0.4966999999999988L 0.2420382958532663 0.4963999999999995L 0.24170507615629688 0.49579999999999735L 0.2414247520822279 0.49519999999999875L 0.241335385296086 0.49489999999999945L 0.24116517384370084 0.49460000000000015L 0.2451112014058019 0.49460000000000015L 0.2460821594896352 0.4957732142857143L 0.2467266422482517 0.4963999999999995L 0.24758215948963525 0.49709545454545356L 0.2484821594896296 0.49770778894472123L 0.2496821594896339 0.49838490099009825L 0.24998215948962965 0.4986038461538467L 0.2502821594896325 0.49871982758620526L 0.2520821594896354 0.49977095808383076L 0.25238215948963116 0.4998882499999997L 0.252682159489634 0.5001058375634511L 0.25298215948962977 0.5002361111111089L 0.2544821594896298 0.5011346625766873L 0.25508215948963553 0.5015695783132532L 0.2553821594896313 0.5017124999999982L 0.2559821594896299 0.5021976190476192L 0.2565821594896356 0.5026058333333321L 0.2573329170653871 0.5032999999999976L 0.25785805234677284 0.5038999999999998L 0.2585234541324901 0.5047999999999977L 0.25883482615629916 0.5053999999999998L 0.25406806374494906 0.5053999999999998L 0.2537593572918304 0.5051000000000005 M 0.4380431162587422 0.6050999999999987L 0.4380431162587422 0.6050999999999987L 0.4380431162587422 0.5945999999999984L 0.4419568837412578 0.5945999999999984L 0.4419568837412578 0.6054000000000016L 0.4380431162587422 0.6054000000000016L 0.4380431162587422 0.6050999999999987 M 0.5637593572918305 0.6051000000000005L 0.5637593572918305 0.6051000000000005L 0.5629821594896298 0.6044249999999994L 0.5620821594896355 0.6037981865284973L 0.559682159489634 0.6023420886075929L 0.5593821594896311 0.6022150990099003L 0.5590821594896354 0.601995153061225L 0.5587821594896325 0.60186818181818L 0.5575821594896353 0.601125L 0.5572821594896324 0.6010033678756453L 0.5569821594896296 0.600785679611651L 0.5566821594896338 0.6006397959183655L 0.5560821594896352 0.6002101648351651L 0.5557821594896324 0.6000638888888868L 0.5545821594896352 0.5992029729729719L 0.5536821594896337 0.598406756756756L 0.5523946594896301 0.5969999999999981L 0.5522623319034223 0.5966999999999988L 0.5520382958532664 0.5963999999999995L 0.5517050761562969 0.5957999999999973L 0.551424752082228 0.5951999999999987L 0.5513353852960861 0.5948999999999994L 0.5511651738437009 0.5946000000000001L 0.555111201405802 0.5946000000000001L 0.5560821594896352 0.5957732142857143L 0.5567266422482517 0.5963999999999995L 0.5575821594896353 0.5970954545454535L 0.5584821594896296 0.5977077889447212L 0.559682159489634 0.5983849009900982L 0.5599821594896297 0.5986038461538467L 0.5602821594896326 0.5987198275862052L 0.5620821594896355 0.5997709580838307L 0.5623821594896312 0.5998882499999997L 0.5626821594896341 0.600105837563451L 0.5629821594896298 0.6002361111111089L 0.5644821594896299 0.6011346625766872L 0.5650821594896356 0.6015695783132532L 0.5653821594896313 0.6017124999999982L 0.5659821594896299 0.6021976190476191L 0.5665821594896356 0.6026058333333321L 0.5673329170653871 0.6032999999999976L 0.5678580523467729 0.6038999999999998L 0.5685234541324902 0.6047999999999977L 0.5688348261562992 0.6053999999999998L 0.5640680637449491 0.6053999999999998L 0.5637593572918305 0.6051000000000005 M 0.43939367003246205 0.5088500000000007L 0.43939367003246205 0.5088500000000007L 0.4393273341849057 0.5085500000000014L 0.43916654221613854 0.5082499999999985L 0.4389866873317591 0.5076499999999999L 0.43882409069472644 0.5073500000000006L 0.4384251228826945 0.5061499999999999L 0.43826369782126634 0.5058500000000006L 0.43808187963945117 0.5052499999999984L 0.43792123607509453 0.5049499999999991L 0.43752171480428687 0.5037499999999984L 0.437358211000397 0.5034499999999991L 0.43717856838116703 0.5028500000000005L 0.4370184650053052 0.5025500000000012L 0.43694798540868235 0.5022500000000019L 0.4366863287919888 0.5016499999999997L 0.4366193796394488 0.5013500000000004L 0.43645687963944696 0.5010500000000011L 0.43627343369350385 0.500449999999999L 0.4361148939935153 0.5001499999999997L 0.43604886528538217 0.49985000000000035L 0.4357857094266852 0.49925000000000175L 0.43571699199899755 0.4989499999999989L 0.43555170722565223 0.4986499999999996L 0.4353716755578138 0.498050000000001L 0.4352148939935138 0.4977500000000017L 0.4351462000277981 0.49744999999999884L 0.4348850847676535 0.49685000000000024L 0.43481330821087355 0.49655000000000094L 0.4346492091849005 0.49625000000000163L 0.4344643971219672 0.4956499999999995L 0.43431145710423963 0.4953500000000002L 0.4342443796394481 0.4950500000000009L 0.43398445474674546 0.4944499999999987L 0.4339107813735514 0.4941499999999994L 0.43374437963944573 0.4938500000000001L 0.4335606030437053 0.4932500000000015L 0.43340757408389025 0.49294999999999867L 0.4333415811319871 0.49264999999999937L 0.4331920837210778 0.49235000000000007L 0.4330068796394461 0.49175000000000146L 0.4328420444746148 0.4914499999999986L 0.4326547057264027 0.49085L 0.4368318796394452 0.4908608247422688L 0.43727743048690443 0.49205000000000076L 0.43734556679028785 0.49235000000000007L 0.4375055482785048 0.49264999999999937L 0.43767244567718294 0.4932500000000015L 0.43783161785934127 0.4935500000000008L 0.4379026385680224 0.4938500000000001L 0.43815561235833983 0.4944499999999987L 0.4382184650053024 0.4947500000000016L 0.43847008924643277 0.4953500000000002L 0.438538636396206 0.4956499999999995L 0.43869576852833675 0.4959499999999988L 0.4388651113467678 0.49655000000000094L 0.4390239992046678 0.49685000000000024L 0.43919750463944823 0.49744999999999884L 0.43953187963944956 0.49782890173410443L 0.4503318796394457 0.49782890173410443L 0.45065062963945096 0.49744999999999884L 0.4508184650053015 0.49685000000000024L 0.4510595823421501 0.49625000000000163L 0.4511212360750922 0.4959499999999988L 0.45126625463944564 0.4956499999999995L 0.4514270327006746 0.4950500000000009L 0.45157516823005367 0.4947500000000016L 0.45173214141955115 0.4941499999999994L 0.4518818796394474 0.4938500000000001L 0.45203752480074016 0.4932500000000015L 0.45218824906619987 0.49294999999999867L 0.4523420444746155 0.49235000000000007L 0.4524943019996958 0.49205000000000076L 0.45264676727989767 0.4914499999999986L 0.45279864793213037 0.4911499999999993L 0.4528718377984437 0.49085L 0.4573452942735973 0.49085L 0.4571920837210787 0.4911499999999993L 0.457019379639451 0.49175000000000146L 0.45685955821087604 0.49205000000000076L 0.45668668733175694 0.49264999999999937L 0.4565342605918265 0.49294999999999867L 0.45646948833509854 0.4932500000000015L 0.456214022496592 0.4938500000000001L 0.4561488652853815 0.4941499999999994L 0.4559975046394517 0.4944499999999987L 0.4558217148042833 0.4950500000000009L 0.45566230132619595 0.4953500000000002L 0.4554913136017153 0.4959499999999988L 0.4553364250939926 0.49625000000000163L 0.45527008924643625 0.49655000000000094L 0.4550148939935174 0.49714999999999954L 0.45495230217465704 0.49744999999999884L 0.4548031562351899 0.4977500000000017L 0.4546262344781586 0.4983500000000003L 0.45446654221613486 0.4986499999999996L 0.4542957685283359 0.49925000000000175L 0.45413863639620516 0.49955000000000105L 0.45407008924643194 0.49985000000000035L 0.45381755925109574 0.500449999999999L 0.45375230217465984 0.5007500000000018L 0.4536070594955636 0.5010500000000011L 0.4534294986870681 0.5016499999999997L 0.4532679907505572 0.501949999999999L 0.453100061457629 0.5025500000000012L 0.4529420444746141 0.5028500000000005L 0.4528768163483112 0.5031499999999998L 0.45261937963944704 0.5037499999999984L 0.4525556123583418 0.5040500000000012L 0.4523026385680173 0.5046499999999998L 0.45223161785934324 0.5049499999999991L 0.4520724456771849 0.5052499999999984L 0.4519028377232776 0.5058500000000006L 0.4517443796394464 0.5061499999999999L 0.4516774304869064 0.5064499999999992L 0.45142123607509504 0.5070500000000013L 0.45103471469099404 0.5082499999999985L 0.45087551021269306 0.5085500000000014L 0.45070554827850245 0.50915L 0.44648023490260486 0.50915L 0.4466397600742302 0.5085500000000014L 0.4467913136017107 0.5082499999999985L 0.44694920918490383 0.5076499999999999L 0.4471028377232817 0.5073500000000006L 0.4472582110003917 0.5067499999999985L 0.4474133082108797 0.5064499999999992L 0.44757244567718474 0.5058500000000006L 0.4477217148042844 0.5055500000000013L 0.4478851908977252 0.5049499999999991L 0.4480294986870665 0.5046499999999998L 0.4480875519083544 0.5043500000000005L 0.4483377172028999 0.5037499999999984L 0.4483948666524317 0.5034499999999991L 0.4486443796394501 0.5028500000000005L 0.4487043796394478 0.5025500000000012L 0.4491318796394485 0.5013741935483882L 0.4491318796394485 0.501331557377048L 0.44883187963944565 0.5011548469387765L 0.44073187963944677 0.5011667613636366L 0.44059464559689204 0.5013500000000004L 0.4406851908977278 0.5016499999999997L 0.44084252320380174 0.501949999999999L 0.44090896297278065 0.5022500000000019L 0.4411645463061153 0.5028500000000005L 0.44122904458790274 0.5031499999999998L 0.44138187963944703 0.5034499999999991L 0.44155556384997724 0.5040500000000012L 0.4417169919989978 0.5043500000000005L 0.4418903255853938 0.5049499999999991L 0.4420452942735939 0.5052499999999984L 0.44211230416774655 0.5055500000000013L 0.4423694883350994 0.5061499999999999L 0.44243319542892195 0.5064499999999992L 0.4425866873317578 0.5067499999999985L 0.4427609215556136 0.5073500000000006L 0.4429217148042814 0.5076499999999999L 0.44309936215693185 0.5082499999999985L 0.4432488652853796 0.5085500000000014L 0.4433148939935127 0.5088500000000007L 0.4434506296394464 0.50915L 0.43952839126735527 0.50915L 0.43939367003246205 0.5088500000000007 M 0.5423492819939572 0.5067500000000003L 0.5423492819939572 0.5067500000000003L 0.5422131513647631 0.5037500000000001L 0.5423056916873467 0.5013500000000022L 0.5424312021540562 0.5001500000000014L 0.5427035561315637 0.49865000000000137L 0.5432989880583182 0.49654999999999916L 0.5434677145030381 0.49624999999999986L 0.5435465109241665 0.49595000000000056L 0.5437252629816246 0.49565000000000126L 0.5438125006656097 0.49535000000000196L 0.5441179973071971 0.4947499999999998L 0.5443322469868835 0.4944500000000005L 0.5444545409429299 0.4941500000000012L 0.5453092112726029 0.49295000000000044L 0.5514035425795928 0.49295000000000044L 0.5508599255583139 0.493306369426751L 0.5505599255583181 0.4934451530612236L 0.5499599255583124 0.4938624060150367L 0.5487599255583152 0.49511372549019583L 0.5483623065106972 0.49565000000000126L 0.5475115702951573 0.4971500000000013L 0.5473281073764941 0.4977499999999999L 0.5471644710128633 0.4980499999999992L 0.5470931844868833 0.49835000000000207L 0.5468502240657788 0.49895000000000067L 0.5467733401924594 0.4995499999999993L 0.5465456051699679 0.5004500000000007L 0.5463051178660056 0.5031500000000015L 0.5465370088916476 0.506450000000001L 0.5466786755583118 0.5070499999999996L 0.5423748131987626 0.5070499999999996L 0.5423492819939572 0.5067500000000003 M 0.5639228161833149 0.4998500000000021L 0.5639228161833149 0.4998500000000021L 0.563754156327548 0.4995499999999993L 0.5636550786195403 0.49924999999999997L 0.5635575446059352 0.49865000000000137L 0.5633217159513254 0.4980499999999992L 0.5632617390298197 0.4977499999999999L 0.5628924430408307 0.496850000000002L 0.5626238144472072 0.49624999999999986L 0.5620715019129964 0.49535000000000196L 0.5607135226806154 0.4938500000000019L 0.5594001216367491 0.49295000000000044L 0.5650869057563316 0.49295000000000044L 0.5659497607231504 0.4941500000000012L 0.566062306510695 0.4944500000000005L 0.5665956073764992 0.49535000000000196L 0.5668596637782105 0.49595000000000056L 0.5670219118596836 0.49654999999999916L 0.5671733401924616 0.496850000000002L 0.5672353842739145 0.4971500000000013L 0.5674575446059368 0.4977499999999999L 0.5675700903934814 0.49865000000000137L 0.567786848635237 0.4995499999999993L 0.5676599255583173 0.49986875000000097L 0.5673599255583145 0.4999443548387106L 0.5640599255583115 0.4999443548387106L 0.5639228161833149 0.4998500000000021" fill="#ffff99" fill-opacity="0.8980392156862745"/>
  </g><!----><!----><g id="componentLabels"><!--?lit$3200782943$-->
    <path fill-rule="nonzero" d="M 0.24436733272402478 0.6134000000000007L 0.24436733272402478 0.6134000000000007L 0.24436650683983885 0.5985999999999997L 0.24428072342971063 0.5954L 0.24392929485827608 0.5929999999999985L 0.24348723580001774 0.5917999999999978L 0.2425461978026533 0.5906000000000006L 0.24177215200113267 0.5900140186915891L 0.2413721520011336 0.5897893129770985L 0.24057215200113546 0.5895512195121938L 0.2401721520011364 0.5893642857142843L 0.23977215200113733 0.589278688524589L 0.23817215200112685 0.5892000000000003L 0.23697215200112964 0.589251231527092L 0.23577215200113244 0.5896124999999998L 0.2353506643978278 0.5897999999999989L 0.23470748134245412 0.590199999999998L 0.23417215200113617 0.5906749999999995L 0.2337721520011371 0.5911701863354025L 0.23337215200113803 0.5918062499999998L 0.232928795357779 0.5929999999999985L 0.2327846520011292 0.5938000000000002L 0.2327023107312982 0.5954L 0.23269497808809092 0.597799999999998L 0.2325721520011257 0.598017307692308L 0.23217215200112662 0.5981445945945921L 0.22777215200113687 0.5981445945945921L 0.22756896475013377 0.597799999999998L 0.22757215200113023 0.5949999999999974L 0.2277033208323047 0.5929999999999985L 0.22799682160466261 0.5913999999999987L 0.22834648828431625 0.590199999999998L 0.2289099003454993 0.5890000000000007L 0.22937215200113314 0.5882506849315078L 0.23057215200113035 0.5869695652173895L 0.2317511842591955 0.5862000000000002L 0.2449987145011363 0.5862000000000002L 0.2467159357849198 0.5874000000000009L 0.24824731123679555 0.5893999999999998L 0.24905733718631495 0.5913999999999987L 0.24941550864448914 0.5929999999999985L 0.24957533925213227 0.5941999999999993L 0.2496850354367126 0.5969999999999999L 0.2496850354367126 0.6137999999999998L 0.24436733272402478 0.6137999999999998L 0.24436733272402478 0.6134000000000007 M 0.25843235608276416 0.6134000000000007L 0.25843235608276416 0.6134000000000007L 0.25843916770793385 0.6122L 0.25857215200113615 0.6120670157068048L 0.2589721520011352 0.6120000000000004L 0.2669721520011308 0.6120000000000004L 0.26721158862085304 0.6118000000000009L 0.26721158862085304 0.5862000000000002L 0.2724310352498662 0.5862000000000002L 0.2724310352498662 0.6137999999999998L 0.25843235608276416 0.6137999999999998L 0.25843235608276416 0.6134000000000007 M 0.4735233695652141 0.6151000000000003L 0.4735233695652141 0.6151000000000003L 0.47355536684783317 0.5847000000000001L 0.4739538043478291 0.5845000000000006L 0.47835380434783303 0.5845000000000006L 0.4787538043478321 0.5845246696035197L 0.47892913474430543 0.5847000000000001L 0.47895380434782453 0.6006999999999983L 0.47915380434783117 0.6008999999999979L 0.4903538043478335 0.6008999999999979L 0.49195380434782976 0.6008811158798245L 0.49315380434782696 0.6007851851851832L 0.49475380434782323 0.600396428571424L 0.49555380434782137 0.5999772151898689L 0.4961774729868864 0.5995000000000011L 0.4968949210990985 0.5986999999999959L 0.4971674407114648 0.5982999999999968L 0.4974538043478276 0.5974999999999987L 0.49767358456760746 0.5970999999999996L 0.4979732073329046 0.5950999999999972L 0.4983007431233375 0.5878999999999998L 0.4985888273892982 0.5854999999999982L 0.49890978520906515 0.5847000000000001L 0.4991538043478272 0.5845000000000006L 0.5051538043478274 0.5845000000000006L 0.5054938043478217 0.5847000000000001L 0.5054666877834109 0.5854999999999982L 0.5046166909457668 0.5862999999999964L 0.5043538043478293 0.5867120689655131L 0.5038387205489414 0.5878999999999998L 0.5034610332634912 0.5910999999999994L 0.5032766304347831 0.5970999999999996L 0.5031788043478258 0.5978999999999978L 0.5028538043478221 0.5995000000000011L 0.5026469077961053 0.5999000000000002L 0.5025512181409368 0.6002999999999993L 0.5019538043478207 0.601241899441343L 0.5007538043478235 0.6023994011976036L 0.4999538043478253 0.6028731481481436L 0.49955380434782626 0.603033333333331L 0.499015342809372 0.6034999999999989L 0.5007104477044635 0.6046999999999961L 0.5011584555106197 0.6051000000000023L 0.5025479506892907 0.6066999999999986L 0.5032447134387326 0.6078999999999958L 0.5034666877834155 0.608700000000001L 0.5036704710144875 0.6091000000000001L 0.5040409209122458 0.6115000000000016L 0.504093600266188 0.6126999999999988L 0.5040520291998973 0.6134999999999969L 0.5037636808910406 0.6154999999999994L 0.4977437126047022 0.6154999999999994L 0.4981120981866951 0.6147000000000012L 0.4981978234865778 0.6143000000000022L 0.4983868978730044 0.613899999999996L 0.49846728749389513 0.6134999999999969L 0.49855142339544045 0.6119000000000007L 0.49844841512627625 0.6102999999999973L 0.49828072742475626 0.6098999999999982L 0.49811094720496385 0.6091000000000001L 0.4975538043478309 0.6080916083916058L 0.49715380434783185 0.6076059523809526L 0.4963538043478337 0.6068842592592553L 0.49595380434782044 0.6066072289156587L 0.49555380434782137 0.6064527093596034L 0.4951538043478223 0.606196511627909L 0.49435380434782417 0.605990909090908L 0.4939538043478251 0.6057965116279028L 0.4923538043478288 0.605575159235665L 0.4903538043478335 0.6054269230769215L 0.47915380434783117 0.6054269230769215L 0.47895380434782453 0.6059000000000004L 0.47895380434782453 0.6154999999999994L 0.4735233695652141 0.6154999999999994L 0.4735233695652141 0.6151000000000003 M 0.5152313553682291 0.6151000000000003L 0.5152313553682291 0.6151000000000003L 0.5147538043478335 0.6149802197802167L 0.5127538043478239 0.6147999999999975L 0.5126230351170591 0.6147000000000012L 0.5124825277520841 0.6143000000000022L 0.5124839630779832 0.6110999999999954L 0.5127538043478239 0.6108999999999959L 0.5207538043478337 0.6108999999999959L 0.5211538043478328 0.610806896551724L 0.5212607008995462 0.6106999999999964L 0.5212936002661905 0.5847000000000001L 0.5215538043478318 0.5845000000000006L 0.5259538043478216 0.5845000000000006L 0.5263538043478206 0.5846187499999992L 0.5264350543478287 0.5847000000000001L 0.5264766304347859 0.5850999999999992L 0.5264766304347859 0.6154999999999994L 0.517144980818415 0.6154999999999994L 0.5167538043478288 0.6153628865979378L 0.5159538043478307 0.6152692307692312L 0.5152313553682291 0.6151000000000003 M 0.4733303162798279 0.5151000000000003L 0.4733303162798279 0.5151000000000003L 0.4733633989866064 0.48470000000000013L 0.4737468576332162 0.4845000000000006L 0.48894685763322343 0.4845000000000006L 0.49134685763321784 0.48462075471698185L 0.492146857633216 0.4848243243243253L 0.4933468576332132 0.48498021978022265L 0.4957468576332218 0.48579310344827675L 0.49614685763322086 0.4860571428571454L 0.49734685763321806 0.486646938775511L 0.49854685763321527 0.4875709677419344L 0.49894685763321434 0.48781288343558415L 0.5002336500860451 0.4891000000000041L 0.501474031546266 0.49070000000000036L 0.5026377667241206 0.4927000000000028L 0.5030220168688828 0.49350000000000094L 0.5032823839489993 0.4942999999999991L 0.5035028384944553 0.49469999999999814L 0.5035993328807393 0.4951000000000043L 0.5038091092888521 0.4955000000000034L 0.5040005889764956 0.4963000000000015L 0.5042798419264045 0.49709999999999965L 0.5044225333088974 0.4978999999999978L 0.5046726640848362 0.49870000000000303L 0.5048451032472485 0.5002999999999993L 0.5050320428183994 0.5010999999999974L 0.5051361138315684 0.5030999999999999L 0.5051468576332212 0.5051000000000023L 0.5049851555055511 0.5075000000000038L 0.5046866535515875 0.5094999999999992L 0.5044468576332122 0.5103000000000044L 0.5042603407792825 0.5115000000000016L 0.5029825719189347 0.5147000000000013L 0.5024416553210784 0.5154999999999994L 0.49579021427656755 0.5154999999999994L 0.496946857633219 0.5141633802816905L 0.4978220168688807 0.5126999999999988L 0.49820685763322103 0.5119000000000007L 0.49842105118160873 0.5111000000000026L 0.49862407282309107 0.5107000000000035L 0.49883337448714826 0.5098999999999982L 0.49901133131743336 0.5094999999999992L 0.49923337448714733 0.5079000000000029L 0.49950283849446464 0.5066999999999986L 0.4996138733400244 0.503499999999999L 0.49954037990042366 0.5015000000000036L 0.49940226303861834 0.5002999999999993L 0.49901782537514805 0.49830000000000396L 0.49868123263321706 0.49709999999999965L 0.4982587220399921 0.49590000000000245L 0.4980138733400281 0.4955000000000034L 0.49790283849445416 0.4951000000000043L 0.49748260892855 0.4942999999999991L 0.49668260892855187 0.49310000000000187L 0.4957468576332218 0.49204891304347953L 0.4945468576332104 0.4909588832487337L 0.4933468576332132 0.4902072289156614L 0.492146857633216 0.4897207792207787L 0.4905468576332197 0.4893451923076917L 0.487746857633212 0.4891871165644197L 0.4793468576332174 0.48918518518518894L 0.4789468576332183 0.4892197530864202L 0.4787584758904728 0.48950000000000315L 0.4787584758904728 0.5154999999999994L 0.4733303162798279 0.5154999999999994L 0.4733303162798279 0.5151000000000003 M 0.5154244086536295 0.5151000000000003L 0.5154244086536295 0.5151000000000003L 0.5149468576332197 0.5149802197802238L 0.5129468576332101 0.5147999999999975L 0.5128160884024453 0.5147000000000013L 0.5126755810374704 0.5143000000000022L 0.5126770163633694 0.5111000000000026L 0.5129468576332101 0.510900000000003L 0.5209468576332199 0.510900000000003L 0.521346857633219 0.5108068965517241L 0.5214537541849467 0.5107000000000035L 0.521486653551591 0.48470000000000013L 0.521746857633218 0.4845000000000006L 0.526146857633222 0.4845000000000006L 0.5265468576332211 0.4846187499999992L 0.5266281076332149 0.48470000000000013L 0.5266696837201721 0.4850999999999992L 0.5266696837201721 0.5154999999999994L 0.5173380341038012 0.5154999999999994L 0.516946857633215 0.5153628865979378L 0.5161468576332169 0.5152692307692313L 0.5154244086536295 0.5151000000000003" fill="#00e5e5" fill-opacity="0.8980392156862745"/>
  </g><!----></g>
        <!--?lit$3200782943$-->
        
    

        
        <!--?lit$3200782943$--><!---->
  
<!----><!---->
  
<!----><!---->
  
<!---->
      </g>

    </svg>