<svg version="1.1" xmlns="http://www.w3.org/2000/svg" xmlns:xlink="http://www.w3.org/1999/xlink" width="708.6167800453514" height="708.6167800453514" viewBox="0 0 708.6167800453514 708.6167800453514"><defs/><g><rect fill="rgb(255,255,255)" stroke="none" x="0" y="0" width="708.6167800453514" height="708.6167800453514" transform="matrix(1 0 0 1 0 0)" fill-opacity="1"/><path fill="#FFFFFF" stroke="rgb(0,0,0)" paint-order="fill stroke markers" d=" M 351.47392290249434 354.3083900226757 C 351.47392290249434 352.74295705839 352.74295705839 351.47392290249434 354.3083900226757 351.47392290249434 C 355.87382298696144 351.47392290249434 357.14285714285717 352.74295705839 357.14285714285717 354.3083900226757 C 357.14285714285717 355.87382298696144 355.87382298696144 357.14285714285717 354.3083900226757 357.14285714285717 C 352.74295705839 357.14285714285717 351.47392290249434 355.87382298696144 351.47392290249434 354.3083900226757" stroke-opacity="1" stroke-linecap="round" stroke-miterlimit="10" stroke-width="0.002834467120181406" stroke-dasharray=""/><path fill="#FFFFFF" stroke="rgb(0,0,0)" paint-order="fill stroke markers" d=" M 378.40136054421765 354.3083900226757 C 378.40136054421765 351.96024057624714 380.3049117780612 350.0566893424036 382.65306122448976 350.0566893424036 C 385.00121067091834 350.0566893424036 386.90476190476187 351.96024057624714 386.90476190476187 354.3083900226757 C 386.90476190476187 356.6565394691043 385.00121067091834 358.56009070294783 382.65306122448976 358.56009070294783 C 380.3049117780612 358.56009070294783 378.40136054421765 356.6565394691043 378.40136054421765 354.3083900226757" stroke-opacity="1" stroke-linecap="round" stroke-miterlimit="10" stroke-width="0.002834467120181406" stroke-dasharray=""/><path fill="#FFFFFF" stroke="rgb(0,0,0)" paint-order="fill stroke markers" d=" M 382.4771607840579 365.0381467718058 C 382.4771607840579 362.35734282046656 384.6503817760293 360.18412182849517 387.33118572736856 360.18412182849517 C 390.01198967870783 360.18412182849517 392.1852106706792 362.35734282046656 392.1852106706792 365.0381467718058 C 392.1852106706792 367.7189507231451 390.01198967870783 369.8921717151165 387.33118572736856 369.8921717151165 C 384.6503817760293 369.8921717151165 382.4771607840579 367.7189507231451 382.4771607840579 365.0381467718058" stroke-opacity="1" stroke-linecap="round" stroke-miterlimit="10" stroke-width="0.002834467120181406" stroke-dasharray=""/><path fill="#FFFFFF" stroke="rgb(0,0,0)" paint-order="fill stroke markers" d=" M 382.10245583457123 378.46623060725864 C 382.10245583457123 375.4527721510086 384.5453465846704 373.0098814009094 387.55880504092045 373.0098814009094 C 390.57226349717047 373.0098814009094 393.01515424726966 375.4527721510086 393.01515424726966 378.46623060725864 C 393.01515424726966 381.47968906350866 390.57226349717047 383.92257981360785 387.55880504092045 383.92257981360785 C 384.5453465846704 383.92257981360785 382.10245583457123 381.47968906350866 382.10245583457123 378.46623060725864" stroke-opacity="1" stroke-linecap="round" stroke-miterlimit="10" stroke-width="0.002834467120181406" stroke-dasharray=""/><path fill="#FFFFFF" stroke="rgb(0,0,0)" paint-order="fill stroke markers" d=" M 376.1561875734096 392.7183521989239 C 376.1561875734096 389.3722392377632 378.8687480816367 386.65967872953615 382.2148610427974 386.65967872953615 C 385.5609740039581 386.65967872953615 388.2735345121851 389.3722392377632 388.2735345121851 392.7183521989239 C 388.2735345121851 396.06446516008464 385.5609740039581 398.77702566831164 382.2148610427974 398.77702566831164 C 378.8687480816367 398.77702566831164 376.1561875734096 396.06446516008464 376.1561875734096 392.7183521989239" stroke-opacity="1" stroke-linecap="round" stroke-miterlimit="10" stroke-width="0.002834467120181406" stroke-dasharray=""/><path fill="#FFFFFF" stroke="rgb(0,0,0)" paint-order="fill stroke markers" d=" M 364.28946398277776 405.52742009526054 C 364.28946398277776 401.84865262918913 367.2716942491327 398.8664223628342 370.9504617152041 398.8664223628342 C 374.6292291812755 398.8664223628342 377.61145944763035 401.84865262918913 377.61145944763035 405.52742009526054 C 377.61145944763035 409.20618756133194 374.6292291812755 412.1884178276868 370.9504617152041 412.1884178276868 C 367.2716942491327 412.1884178276868 364.28946398277776 409.20618756133194 364.28946398277776 405.52742009526054" stroke-opacity="1" stroke-linecap="round" stroke-miterlimit="10" stroke-width="0.002834467120181406" stroke-dasharray=""/><path fill="#FFFFFF" stroke="rgb(0,0,0)" paint-order="fill stroke markers" d=" M 347.04506802721085 414.5408163265306 C 347.04506802721085 410.52939435554845 350.29696805169357 407.2774943310657 354.3083900226757 407.2774943310657 C 358.3198119936579 407.2774943310657 361.57171201814054 410.52939435554845 361.57171201814054 414.5408163265306 C 361.57171201814054 418.55223829751276 358.3198119936579 421.8041383219954 354.3083900226757 421.8041383219954 C 350.29696805169357 421.8041383219954 347.04506802721085 418.55223829751276 347.04506802721085 414.5408163265306" stroke-opacity="1" stroke-linecap="round" stroke-miterlimit="10" stroke-width="0.002834467120181406" stroke-dasharray=""/><path fill="#FFFFFF" stroke="rgb(0,0,0)" paint-order="fill stroke markers" d=" M 325.85912877604517 417.6582430071885 C 325.85912877604517 413.31416653129565 329.3806985586557 409.7925967486851 333.72477503454854 409.7925967486851 C 338.0688515104414 409.7925967486851 341.590421293052 413.31416653129565 341.590421293052 417.6582430071885 C 341.590421293052 422.00231948308135 338.0688515104414 425.52388926569193 333.72477503454854 425.52388926569193 C 329.3806985586557 425.52388926569193 325.85912877604517 422.00231948308135 325.85912877604517 417.6582430071885" stroke-opacity="1" stroke-linecap="round" stroke-miterlimit="10" stroke-width="0.002834467120181406" stroke-dasharray=""/><path fill="#FFFFFF" stroke="rgb(0,0,0)" paint-order="fill stroke markers" d=" M 302.9394267388572 413.3565408309379 C 302.9394267388572 408.6798098501343 306.73066627959554 404.88857030939596 311.40739726039914 404.88857030939596 C 316.08412824120273 404.88857030939596 319.8753677819411 408.6798098501343 319.8753677819411 413.3565408309379 C 319.8753677819411 418.0332718117415 316.08412824120273 421.8245113524799 311.40739726039914 421.8245113524799 C 306.73066627959554 421.8245113524799 302.9394267388572 418.0332718117415 302.9394267388572 413.3565408309379" stroke-opacity="1" stroke-linecap="round" stroke-miterlimit="10" stroke-width="0.002834467120181406" stroke-dasharray=""/><path fill="#FFFFFF" stroke="rgb(0,0,0)" paint-order="fill stroke markers" d=" M 281.03039727182954 400.95801322049107 C 281.03039727182954 395.9486277347768 285.09130657069574 391.8877184359106 290.10069205641 391.8877184359106 C 295.1100775421243 391.8877184359106 299.17098684099057 395.9486277347768 299.17098684099057 400.95801322049107 C 299.17098684099057 405.96739870620536 295.1100775421243 410.0283080050716 290.10069205641 410.0283080050716 C 285.09130657069574 410.0283080050716 281.03039727182954 405.96739870620536 281.03039727182954 400.95801322049107" stroke-opacity="1" stroke-linecap="round" stroke-miterlimit="10" stroke-width="0.002834467120181406" stroke-dasharray=""/><path fill="#FFFFFF" stroke="rgb(0,0,0)" paint-order="fill stroke markers" d=" M 263.08968362265193 380.8043199542011 C 263.08968362265193 375.4622799635761 267.420262679646 371.13170090658207 272.76230267027097 371.13170090658207 C 278.10434266089595 371.13170090658207 282.43492171789 375.4622799635761 282.43492171789 380.8043199542011 C 282.43492171789 386.1463599448261 278.10434266089595 390.47693900182014 272.76230267027097 390.47693900182014 C 267.420262679646 390.47693900182014 263.08968362265193 386.1463599448261 263.08968362265193 380.8043199542011" stroke-opacity="1" stroke-linecap="round" stroke-miterlimit="10" stroke-width="0.002834467120181406" stroke-dasharray=""/><path fill="#FFFFFF" stroke="rgb(0,0,0)" paint-order="fill stroke markers" d=" M 251.9132653061224 354.3083900226757 C 251.9132653061224 348.63369552714 256.51351412124427 344.03344671201813 262.18820861678 344.03344671201813 C 267.86290311231573 344.03344671201813 272.4631519274376 348.63369552714 272.4631519274376 354.3083900226757 C 272.4631519274376 359.98308451821146 267.86290311231573 364.5833333333333 262.18820861678 364.5833333333333 C 256.51351412124427 364.5833333333333 251.9132653061224 359.98308451821146 251.9132653061224 354.3083900226757" stroke-opacity="1" stroke-linecap="round" stroke-miterlimit="10" stroke-width="0.002834467120181406" stroke-dasharray=""/><path fill="#FFFFFF" stroke="rgb(0,0,0)" paint-order="fill stroke markers" d=" M 249.75421218464686 323.8709167955515 C 249.75421218464686 317.8635677951051 254.62413075789658 312.9936492218554 260.631479758343 312.9936492218554 C 266.63882875878943 312.9936492218554 271.50874733203915 317.8635677951051 271.50874733203915 323.8709167955515 C 271.50874733203915 329.87826579599795 266.63882875878943 334.74818436924767 260.631479758343 334.74818436924767 C 254.62413075789658 334.74818436924767 249.75421218464686 329.87826579599795 249.75421218464686 323.8709167955515" stroke-opacity="1" stroke-linecap="round" stroke-miterlimit="10" stroke-width="0.002834467120181406" stroke-dasharray=""/><path fill="#FFFFFF" stroke="rgb(0,0,0)" paint-order="fill stroke markers" d=" M 257.9829115876614 292.66424508270546 C 257.9829115876614 286.32424157734835 263.122499919039 281.18465324597076 269.4625034243961 281.18465324597076 C 275.80250692975324 281.18465324597076 280.9420952611308 286.32424157734835 280.9420952611308 292.66424508270546 C 280.9420952611308 299.0042485880626 275.80250692975324 304.14383691944016 269.4625034243961 304.14383691944016 C 263.122499919039 304.14383691944016 257.9829115876614 299.0042485880626 257.9829115876614 292.66424508270546" stroke-opacity="1" stroke-linecap="round" stroke-miterlimit="10" stroke-width="0.002834467120181406" stroke-dasharray=""/><path fill="#FFFFFF" stroke="rgb(0,0,0)" paint-order="fill stroke markers" d=" M 276.83369854739345 264.3029562663926 C 276.83369854739345 257.6302982561247 282.24295663689884 252.22104016661933 288.9156146471667 252.22104016661933 C 295.5882726574346 252.22104016661933 300.99753074693996 257.6302982561247 300.99753074693996 264.3029562663926 C 300.99753074693996 270.97561427666045 295.5882726574346 276.38487236616584 288.9156146471667 276.38487236616584 C 282.24295663689884 276.38487236616584 276.83369854739345 270.97561427666045 276.83369854739345 264.3029562663926" stroke-opacity="1" stroke-linecap="round" stroke-miterlimit="10" stroke-width="0.002834467120181406" stroke-dasharray=""/><path fill="#FFFFFF" stroke="rgb(0,0,0)" paint-order="fill stroke markers" d=" M 305.27436148934146 242.43524539045103 C 305.27436148934146 235.42993287527247 310.9532893369747 229.75100502763925 317.95860185215327 229.75100502763925 C 324.9639143673318 229.75100502763925 330.642842214965 235.42993287527247 330.642842214965 242.43524539045103 C 330.642842214965 249.4405579056296 324.9639143673318 255.11948575326284 317.95860185215327 255.11948575326284 C 310.9532893369747 255.11948575326284 305.27436148934146 249.4405579056296 305.27436148934146 242.43524539045103" stroke-opacity="1" stroke-linecap="round" stroke-miterlimit="10" stroke-width="0.002834467120181406" stroke-dasharray=""/><path fill="#FFFFFF" stroke="rgb(0,0,0)" paint-order="fill stroke markers" d=" M 341.02182539682536 230.30045351473922 C 341.02182539682536 222.96248649464994 346.9704230025864 217.01388888888889 354.3083900226757 217.01388888888889 C 361.64635704276503 217.01388888888889 367.594954648526 222.96248649464994 367.594954648526 230.30045351473922 C 367.594954648526 237.6384205348285 361.64635704276503 243.58701814058958 354.3083900226757 243.58701814058958 C 346.9704230025864 243.58701814058958 341.02182539682536 237.6384205348285 341.02182539682536 230.30045351473922" stroke-opacity="1" stroke-linecap="round" stroke-miterlimit="10" stroke-width="0.002834467120181406" stroke-dasharray=""/><path fill="#FFFFFF" stroke="rgb(0,0,0)" paint-order="fill stroke markers" d=" M 380.71083259990803 230.30442247852304 C 380.71083259990803 222.63380095352304 386.92909996379694 216.41553358963415 394.59972148879694 216.41553358963415 C 402.27034301379695 216.41553358963415 408.4886103776858 222.63380095352304 408.4886103776858 230.30442247852304 C 408.4886103776858 237.97504400352304 402.27034301379695 244.19331136741192 394.59972148879694 244.19331136741192 C 386.92909996379694 244.19331136741192 380.71083259990803 237.97504400352304 380.71083259990803 230.30442247852304" stroke-opacity="1" stroke-linecap="round" stroke-miterlimit="10" stroke-width="0.002834467120181406" stroke-dasharray=""/><path fill="#FFFFFF" stroke="rgb(0,0,0)" paint-order="fill stroke markers" d=" M 420.2044739884122 243.66476763437862 C 420.2044739884122 235.6614916044679 426.6924111104289 229.17355448245118 434.6956871403396 229.17355448245118 C 442.6989631702503 229.17355448245118 449.18690029226707 235.6614916044679 449.18690029226707 243.66476763437862 C 449.18690029226707 251.66804366428934 442.6989631702503 258.15598078630603 434.6956871403396 258.15598078630603 C 426.6924111104289 258.15598078630603 420.2044739884122 251.66804366428934 420.2044739884122 243.66476763437862" stroke-opacity="1" stroke-linecap="round" stroke-miterlimit="10" stroke-width="0.002834467120181406" stroke-dasharray=""/><path fill="#FFFFFF" stroke="rgb(0,0,0)" paint-order="fill stroke markers" d=" M 455.01802215401034 270.1724624694731 C 455.01802215401034 261.83653193465165 461.77562903415486 255.0789250545071 470.1115595689763 255.0789250545071 C 478.44749010379775 255.0789250545071 485.2050969839423 261.83653193465165 485.2050969839423 270.1724624694731 C 485.2050969839423 278.50839300429453 478.44749010379775 285.26599988443905 470.1115595689763 285.26599988443905 C 461.77562903415486 285.26599988443905 455.01802215401034 278.50839300429453 455.01802215401034 270.1724624694731" stroke-opacity="1" stroke-linecap="round" stroke-miterlimit="10" stroke-width="0.002834467120181406" stroke-dasharray=""/><path fill="#FFFFFF" stroke="rgb(0,0,0)" paint-order="fill stroke markers" d=" M 480.81273025671584 308.1047436131562 C 480.81273025671584 299.43615857342405 487.8400068949882 292.40888193515167 496.50859193472036 292.40888193515167 C 505.1771769744525 292.40888193515167 512.2044536127249 299.43615857342405 512.2044536127249 308.1047436131562 C 512.2044536127249 316.7733286528883 505.1771769744525 323.80060529116076 496.50859193472036 323.80060529116076 C 487.8400068949882 323.80060529116076 480.81273025671584 316.7733286528883 480.81273025671584 308.1047436131562" stroke-opacity="1" stroke-linecap="round" stroke-miterlimit="10" stroke-width="0.002834467120181406" stroke-dasharray=""/><path fill="#FFFFFF" stroke="rgb(0,0,0)" paint-order="fill stroke markers" d=" M 493.90589569160994 354.30839002267567 C 493.90589569160994 345.3071504780328 501.20284208801013 338.0102040816326 510.204081632653 338.0102040816326 C 519.2053211772959 338.0102040816326 526.5022675736961 345.3071504780328 526.5022675736961 354.30839002267567 C 526.5022675736961 363.30962956731855 519.2053211772959 370.60657596371874 510.204081632653 370.60657596371874 C 501.20284208801013 370.60657596371874 493.90589569160994 363.30962956731855 493.90589569160994 354.30839002267567" stroke-opacity="1" stroke-linecap="round" stroke-miterlimit="10" stroke-width="0.002834467120181406" stroke-dasharray=""/><path fill="#FFFFFF" stroke="rgb(0,0,0)" paint-order="fill stroke markers" d=" M 491.73890464256675 404.453579727794 C 491.73890464256675 395.11968567824044 499.3055207970948 387.5530695237124 508.6394148466484 387.5530695237124 C 517.973308896202 387.5530695237124 525.5399250507301 395.11968567824044 525.5399250507301 404.453579727794 C 525.5399250507301 413.7874737773476 517.973308896202 421.35408993187565 508.6394148466484 421.35408993187565 C 499.3055207970948 421.35408993187565 491.73890464256675 413.7874737773476 491.73890464256675 404.453579727794" stroke-opacity="1" stroke-linecap="round" stroke-miterlimit="10" stroke-width="0.002834467120181406" stroke-dasharray=""/><path fill="#FFFFFF" stroke="rgb(0,0,0)" paint-order="fill stroke markers" d=" M 473.24691373387014 453.4388393180333 C 473.24691373387014 443.772290763569 481.08319964652605 435.9360048509131 490.7497482009903 435.9360048509131 C 500.4162967554546 435.9360048509131 508.2525826681105 443.772290763569 508.2525826681105 453.4388393180333 C 508.2525826681105 463.10538787249754 500.4162967554546 470.94167378515345 490.7497482009903 470.94167378515345 C 481.08319964652605 470.94167378515345 473.24691373387014 463.10538787249754 473.24691373387014 453.4388393180333" stroke-opacity="1" stroke-linecap="round" stroke-miterlimit="10" stroke-width="0.002834467120181406" stroke-dasharray=""/><path fill="#FFFFFF" stroke="rgb(0,0,0)" paint-order="fill stroke markers" d=" M 439.0823110234133 495.90929535899375 C 439.0823110234133 485.9100922996187 447.188266694197 477.804136628835 457.18746975357203 477.804136628835 C 467.18667281294705 477.804136628835 475.29262848373077 485.9100922996187 475.29262848373077 495.90929535899375 C 475.29262848373077 505.90849841836877 467.18667281294705 514.0144540891524 457.18746975357203 514.0144540891524 C 447.188266694197 514.0144540891524 439.0823110234133 505.90849841836877 439.0823110234133 495.90929535899375" stroke-opacity="1" stroke-linecap="round" stroke-miterlimit="10" stroke-width="0.002834467120181406" stroke-dasharray=""/><path fill="#FFFFFF" stroke="rgb(0,0,0)" paint-order="fill stroke markers" d=" M 391.65841167799505 526.8356492145404 C 391.65841167799505 516.5037916502547 400.0340371069066 508.12816622134306 410.36589467119234 508.12816622134306 C 420.69775223547805 508.12816622134306 429.0733776643896 516.5037916502547 429.0733776643896 526.8356492145404 C 429.0733776643896 537.167506778826 420.69775223547805 545.5431322077376 410.36589467119234 545.5431322077376 C 400.0340371069066 545.5431322077376 391.65841167799505 537.167506778826 391.65841167799505 526.8356492145404" stroke-opacity="1" stroke-linecap="round" stroke-miterlimit="10" stroke-width="0.002834467120181406" stroke-dasharray=""/><path fill="#FFFFFF" stroke="rgb(0,0,0)" paint-order="fill stroke markers" d=" M 334.99858276643994 542.0918367346939 C 334.99858276643994 531.4273246654974 343.6438779534794 522.7820294784581 354.3083900226758 522.7820294784581 C 364.9729020918722 522.7820294784581 373.61819727891157 531.4273246654974 373.61819727891157 542.0918367346939 C 373.61819727891157 552.7563488038903 364.9729020918722 561.4016439909298 354.3083900226758 561.4016439909298 C 343.6438779534794 561.4016439909298 334.99858276643994 552.7563488038903 334.99858276643994 542.0918367346939" stroke-opacity="1" stroke-linecap="round" stroke-miterlimit="10" stroke-width="0.002834467120181406" stroke-dasharray=""/><path fill="#FFFFFF" stroke="rgb(0,0,0)" paint-order="fill stroke markers" d=" M 274.397210559286 538.9664721264683 C 274.397210559286 527.9693055523611 283.31217550445325 519.0543406071939 294.3093420785604 519.0543406071939 C 305.30650865266756 519.0543406071939 314.22147359783474 527.9693055523611 314.22147359783474 538.9664721264683 C 314.22147359783474 549.9636387005754 305.30650865266756 558.8786036457427 294.3093420785604 558.8786036457427 C 283.31217550445325 558.8786036457427 274.397210559286 549.9636387005754 274.397210559286 538.9664721264683" stroke-opacity="1" stroke-linecap="round" stroke-miterlimit="10" stroke-width="0.002834467120181406" stroke-dasharray=""/><path fill="#FFFFFF" stroke="rgb(0,0,0)" paint-order="fill stroke markers" d=" M 215.92033276731163 516.5474839910078 C 215.92033276731163 505.2176629119899 225.1049674706067 496.0330282086948 236.43478854962456 496.0330282086948 C 247.7646096286424 496.0330282086948 256.9492443319375 505.2176629119899 256.9492443319375 516.5474839910078 C 256.9492443319375 527.8773050700256 247.7646096286424 537.0619397733207 236.43478854962456 537.0619397733207 C 225.1049674706067 537.0619397733207 215.92033276731163 527.8773050700256 215.92033276731163 516.5474839910078" stroke-opacity="1" stroke-linecap="round" stroke-miterlimit="10" stroke-width="0.002834467120181406" stroke-dasharray=""/><path fill="#FFFFFF" stroke="rgb(0,0,0)" paint-order="fill stroke markers" d=" M 165.7929688509888 475.9306219312657 C 165.7929688509888 464.2681463473371 175.24727331241172 454.81384188591426 186.9097488963403 454.81384188591426 C 198.57222448026886 454.81384188591426 208.02652894169177 464.2681463473371 208.02652894169177 475.9306219312657 C 208.02652894169177 487.5930975151943 198.57222448026886 497.0474019766172 186.9097488963403 497.0474019766172 C 175.24727331241172 497.0474019766172 165.7929688509888 487.5930975151943 165.7929688509888 475.9306219312657" stroke-opacity="1" stroke-linecap="round" stroke-miterlimit="10" stroke-width="0.002834467120181406" stroke-dasharray=""/><path fill="#FFFFFF" stroke="rgb(0,0,0)" paint-order="fill stroke markers" d=" M 129.73496924260115 420.2197529101894 C 129.73496924260115 408.2246228213501 139.4589434621519 398.5006486017994 151.45407355099118 398.5006486017994 C 163.44920363983047 398.5006486017994 173.1731778593812 408.2246228213501 173.1731778593812 420.2197529101894 C 173.1731778593812 432.2148829990287 163.44920363983047 441.93885721857947 151.45407355099118 441.93885721857947 C 139.4589434621519 441.93885721857947 129.73496924260115 432.2148829990287 129.73496924260115 420.2197529101894" stroke-opacity="1" stroke-linecap="round" stroke-miterlimit="10" stroke-width="0.002834467120181406" stroke-dasharray=""/><path fill="#FFFFFF" stroke="rgb(0,0,0)" paint-order="fill stroke markers" d=" M 112.31575963718818 354.3083900226758 C 112.31575963718818 341.9806054289258 122.30940361486675 331.9869614512472 134.63718820861675 331.9869614512472 C 146.96497280236676 331.9869614512472 156.9586167800453 341.9806054289258 156.9586167800453 354.3083900226758 C 156.9586167800453 366.63617461642576 146.96497280236676 376.62981859410434 134.63718820861675 376.62981859410434 C 122.30940361486675 376.62981859410434 112.31575963718818 366.63617461642576 112.31575963718818 354.3083900226758" stroke-opacity="1" stroke-linecap="round" stroke-miterlimit="10" stroke-width="0.002834467120181406" stroke-dasharray=""/><path fill="#FFFFFF" stroke="rgb(0,0,0)" paint-order="fill stroke markers" d=" M 116.39949780459604 284.4554838395634 C 116.39949780459604 271.79504474090265 126.66281154040244 261.5317310050963 139.32325063906316 261.5317310050963 C 151.98368973772386 261.5317310050963 162.24700347353027 271.79504474090265 162.24700347353027 284.4554838395634 C 162.24700347353027 297.1159229382241 151.98368973772386 307.3792366740305 139.32325063906316 307.3792366740305 C 126.66281154040244 307.3792366740305 116.39949780459604 297.1159229382241 116.39949780459604 284.4554838395634" stroke-opacity="1" stroke-linecap="round" stroke-miterlimit="10" stroke-width="0.002834467120181406" stroke-dasharray=""/><path fill="#FFFFFF" stroke="rgb(0,0,0)" paint-order="fill stroke markers" d=" M 142.74548316682052 217.6916363719309 C 142.74548316682052 204.6985427683595 153.27846666075476 194.16555927442525 166.27156026432618 194.16555927442525 C 179.2646538678976 194.16555927442525 189.79763736183185 204.6985427683595 189.79763736183185 217.6916363719309 C 189.79763736183185 230.68472997550234 179.2646538678976 241.2177134694366 166.27156026432618 241.2177134694366 C 153.27846666075476 241.2177134694366 142.74548316682052 230.68472997550234 142.74548316682052 217.6916363719309" stroke-opacity="1" stroke-linecap="round" stroke-miterlimit="10" stroke-width="0.002834467120181406" stroke-dasharray=""/><path fill="#FFFFFF" stroke="rgb(0,0,0)" paint-order="fill stroke markers" d=" M 189.81460457584782 161.11201310632282 C 189.81460457584782 147.78626499784068 200.6172578279099 136.9836117457786 213.94300593639204 136.9836117457786 C 227.26875404487419 136.9836117457786 238.07140729693626 147.78626499784068 238.07140729693626 161.11201310632282 C 238.07140729693626 174.43776121480496 227.26875404487419 185.24041446686704 213.94300593639204 185.24041446686704 C 200.6172578279099 185.24041446686704 189.81460457584782 174.43776121480496 189.81460457584782 161.11201310632282" stroke-opacity="1" stroke-linecap="round" stroke-miterlimit="10" stroke-width="0.002834467120181406" stroke-dasharray=""/><path fill="#FFFFFF" stroke="rgb(0,0,0)" paint-order="fill stroke markers" d=" M 253.8124432725822 121.12701627117124 C 253.8124432725822 107.46861365777839 264.8847662827721 96.39629064758847 278.54316889616496 96.39629064758847 C 292.2015715095578 96.39629064758847 303.2738945197477 107.46861365777839 303.2738945197477 121.12701627117124 C 303.2738945197477 134.7854188845641 292.2015715095578 145.857741894754 278.54316889616496 145.857741894754 C 264.8847662827721 145.857741894754 253.8124432725822 134.7854188845641 253.8124432725822 121.12701627117124" stroke-opacity="1" stroke-linecap="round" stroke-miterlimit="10" stroke-width="0.002834467120181406" stroke-dasharray=""/><path fill="#FFFFFF" stroke="rgb(0,0,0)" paint-order="fill stroke markers" d=" M 328.9753401360543 102.74943310657594 C 328.9753401360543 88.75837598827236 340.31733290437205 77.41638321995462 354.3083900226756 77.41638321995462 C 368.29944714097917 77.41638321995462 379.64143990929693 88.75837598827236 379.64143990929693 102.74943310657594 C 379.64143990929693 116.74049022487951 368.29944714097917 128.08248299319726 354.3083900226756 128.08248299319726 C 340.31733290437205 128.08248299319726 328.9753401360543 116.74049022487951 328.9753401360543 102.74943310657594" stroke-opacity="1" stroke-linecap="round" stroke-miterlimit="10" stroke-width="0.002834467120181406" stroke-dasharray=""/><path fill="#FFFFFF" stroke="rgb(0,0,0)" paint-order="fill stroke markers" d=" M 408.0797802951252 108.9961933592432 C 408.0797802951252 94.67248173602891 419.6914428215708 83.06081920958333 434.0151544447851 83.06081920958333 C 448.3388660679994 83.06081920958333 459.9505285944449 94.67248173602891 459.9505285944449 108.9961933592432 C 459.9505285944449 123.31990498245747 448.3388660679994 134.93156750890307 434.0151544447851 134.93156750890307 C 419.6914428215708 134.93156750890307 408.0797802951252 123.31990498245747 408.0797802951252 108.9961933592432" stroke-opacity="1" stroke-linecap="round" stroke-miterlimit="10" stroke-width="0.002834467120181406" stroke-dasharray=""/><path fill="#FFFFFF" stroke="rgb(0,0,0)" paint-order="fill stroke markers" d=" M 483.13059743841575 140.47382447430874 C 483.13059743841575 125.81745834618374 495.0119297229892 113.93612606161032 509.6682958511142 113.93612606161032 C 524.3246619792392 113.93612606161032 536.2059942638126 125.81745834618374 536.2059942638126 140.47382447430874 C 536.2059942638126 155.13019060243374 524.3246619792392 167.01152288700715 509.6682958511142 167.01152288700715 C 495.0119297229892 167.01152288700715 483.13059743841575 155.13019060243374 483.13059743841575 140.47382447430874" stroke-opacity="1" stroke-linecap="round" stroke-miterlimit="10" stroke-width="0.002834467120181406" stroke-dasharray=""/><path fill="#FFFFFF" stroke="rgb(0,0,0)" paint-order="fill stroke markers" d=" M 546.1624800533091 195.19985375869834 C 546.1624800533091 180.21083312566262 558.3134820960104 168.05983108296138 573.3025027290461 168.05983108296138 C 588.2915233620818 168.05983108296138 600.442525404783 180.21083312566262 600.442525404783 195.19985375869834 C 600.442525404783 210.18887439173406 588.2915233620818 222.3398764344353 573.3025027290461 222.3398764344353 C 558.3134820960104 222.3398764344353 546.1624800533091 210.18887439173406 546.1624800533091 195.19985375869834" stroke-opacity="1" stroke-linecap="round" stroke-miterlimit="10" stroke-width="0.002834467120181406" stroke-dasharray=""/><path fill="#FFFFFF" stroke="rgb(0,0,0)" paint-order="fill stroke markers" d=" M 590.0744741152246 268.6893106571679 C 590.0744741152246 253.36763551922147 602.4951459160537 240.94696371839237 617.8168210540001 240.94696371839237 C 633.1384961919465 240.94696371839237 645.5591679927755 253.36763551922147 645.5591679927755 268.6893106571679 C 645.5591679927755 284.0109857951143 633.1384961919465 296.43165759594336 617.8168210540001 296.43165759594336 C 602.4951459160537 296.43165759594336 590.0744741152246 284.0109857951143 590.0744741152246 268.6893106571679" stroke-opacity="1" stroke-linecap="round" stroke-miterlimit="10" stroke-width="0.002834467120181406" stroke-dasharray=""/></g></svg>