<?xml version="1.0" encoding="utf-8"?>
<!-- Generator: Adobe Illustrator 25.4.1, SVG Export Plug-In . SVG Version: 6.00 Build 0)  -->
<svg version="1.1" id="Layer_1" xmlns="http://www.w3.org/2000/svg" xmlns:xlink="http://www.w3.org/1999/xlink" x="0px" y="0px"
	 viewBox="0 0 1402.3 918" style="enable-background:new 0 0 1402.3 918;" xml:space="preserve">
<style type="text/css">
	.st0{fill:none;stroke:#CC3366;stroke-miterlimit:10;}
	
		.st1{fill-rule:evenodd;clip-rule:evenodd;fill:#FFFFFF;stroke:#010101;stroke-width:23.238;stroke-linecap:round;stroke-linejoin:round;}
	.st2{fill:#FFFFFF;stroke:#000000;stroke-miterlimit:10;}
	.st3{fill-rule:evenodd;clip-rule:evenodd;fill:#FFFFFF;stroke:#CC3366;stroke-miterlimit:10;}
</style>
<g>
	<path class="st0" d="M675.6,149.5c0-3.8-3.1-6.8-6.8-6.8c-3.8,0-6.8,3.1-6.8,6.8c0,3.8,3.1,6.8,6.8,6.8
		C672.5,156.3,675.6,153.3,675.6,149.5z"/>
	<polygon class="st0" points="678.1,140.2 675.7,117.1 661.8,117.1 659.5,140.2 636.4,142.5 636.4,156.5 659.5,158.8 661.8,181.9 
		675.7,181.9 678.1,158.8 701.2,156.5 701.2,142.5 	"/>
</g>
<g>
	<path class="st0" d="M816.4,66.8c0-1-0.8-1.8-1.8-1.8c-1,0-1.8,0.8-1.8,1.8s0.8,1.8,1.8,1.8C815.6,68.6,816.4,67.8,816.4,66.8z"/>
	<polygon class="st0" points="820.3,61.1 818.9,47.1 810.4,47.1 808.9,61.1 794.9,62.6 794.9,71.1 808.9,72.5 810.4,86.6 
		818.9,86.6 820.3,72.5 834.4,71.1 834.4,62.6 	"/>
</g>
<g>
	<polygon class="st0" points="838,98.3 849.6,97.1 849.6,90.1 838,88.9 836.8,77.2 829.7,77.2 828.6,88.9 816.9,90.1 816.9,97.1 
		828.6,98.3 829.7,110 836.8,110 	"/>
	<path class="st0" d="M835.2,93.6c0-1.1-0.9-1.9-1.9-1.9c-1.1,0-1.9,0.9-1.9,1.9c0,1.1,0.9,1.9,1.9,1.9
		C834.3,95.5,835.2,94.7,835.2,93.6z"/>
</g>
<g>
	<path class="st0" d="M801.4,192.5c0-3.8-3.1-6.8-6.8-6.8c-3.8,0-6.8,3.1-6.8,6.8c0,3.8,3.1,6.8,6.8,6.8
		C798.3,199.3,801.4,196.3,801.4,192.5z"/>
	<polygon class="st0" points="803.8,183.2 801.5,160.1 787.6,160.1 785.2,183.2 762.1,185.5 762.1,199.5 785.2,201.8 787.6,224.9 
		801.5,224.9 803.8,201.8 826.9,199.5 826.9,185.5 	"/>
</g>
<g>
	<path class="st0" d="M816.4,151.3c0-1-0.8-1.8-1.8-1.8c-1,0-1.8,0.8-1.8,1.8c0,1,0.8,1.8,1.8,1.8
		C815.6,153.1,816.4,152.3,816.4,151.3z"/>
	<polygon class="st0" points="820.3,145.6 818.9,131.6 810.4,131.6 808.9,145.6 794.9,147.1 794.9,155.6 808.9,157 810.4,171.1 
		818.9,171.1 820.3,157 834.4,155.6 834.4,147.1 	"/>
</g>
<g>
	<polygon class="st0" points="838,182.8 849.6,181.6 849.6,174.6 838,173.4 836.8,161.7 829.7,161.7 828.6,173.4 816.9,174.6 
		816.9,181.6 828.6,182.8 829.7,194.5 836.8,194.5 	"/>
	<path class="st0" d="M835.2,178.1c0-1.1-0.9-1.9-1.9-1.9c-1.1,0-1.9,0.9-1.9,1.9c0,1.1,0.9,1.9,1.9,1.9
		C834.3,180,835.2,179.1,835.2,178.1z"/>
</g>
<g>
	<g>
		<g>
			<path class="st0" d="M822,419c0-17-13.8-30.8-30.8-30.8c-17,0-30.8,13.8-30.8,30.8c0,17,13.8,30.8,30.8,30.8
				C808.2,449.8,822,436,822,419z"/>
		</g>
		<g>
			<path class="st0" d="M757.5,419.6c0-1-0.8-1.8-1.8-1.8c-1,0-1.8,0.8-1.8,1.8c0,1,0.8,1.8,1.8,1.8
				C756.7,421.4,757.5,420.6,757.5,419.6z"/>
			<path class="st0" d="M828.4,419.6c0-1-0.8-1.8-1.8-1.8c-1,0-1.8,0.8-1.8,1.8c0,1,0.8,1.8,1.8,1.8
				C827.6,421.4,828.4,420.6,828.4,419.6z"/>
		</g>
	</g>
	<path class="st0" d="M835.1,419c0,24-19.4,43.4-43.4,43.4c-24,0-43.4-19.4-43.4-43.4c0-24,19.4-43.4,43.4-43.4
		C815.7,375.6,835.1,395,835.1,419z"/>
</g>
<g>
	<g>
		<path class="st0" d="M1349.9,359.1c0-23.8-19.3-43.2-43.2-43.2c-23.9,0-43.2,19.3-43.2,43.2c0,7.8,2.6,14.8,5.6,21.3
			c3.5,7.4,8.8,14.1,8.2,23.4c-4.6,67.2-11.8,166.9-15.5,181.7c-6.5,26.1-14.8,40.5-14.5,58.7c0.4,23.6,15.6,53,38.4,58.7
			c22.8,5.6,53.8-4.2,71.2-40.8c17.4-36.6,1-92.6-7.2-160c-4.8-39.1-7.2-75.6-8.6-100.3C1339.9,381,1349.9,376.4,1349.9,359.1z"/>
	</g>
	<g>
		<polygon class="st0" points="1315.1,629.4 1312.8,606.6 1299.1,606.6 1296.8,629.4 1274,631.7 1274,645.5 1296.8,647.8 
			1299.1,670.5 1312.8,670.5 1315.1,647.8 1337.9,645.5 1337.9,631.7 		"/>
	</g>
	<g>
		<g>
			<path class="st0" d="M1336.7,359.1c0-17-13.8-30.8-30.8-30.8c-17,0-30.8,13.8-30.8,30.8c0,17,13.8,30.8,30.8,30.8
				C1322.9,389.8,1336.7,376.1,1336.7,359.1z"/>
		</g>
		<g>
			<path class="st0" d="M1272.3,359.6c0-1-0.8-1.8-1.8-1.8c-1,0-1.8,0.8-1.8,1.8c0,1,0.8,1.8,1.8,1.8
				C1271.5,361.4,1272.3,360.6,1272.3,359.6z"/>
			<path class="st0" d="M1343.2,359.6c0-1-0.8-1.8-1.8-1.8c-1,0-1.8,0.8-1.8,1.8c0,1,0.8,1.8,1.8,1.8
				C1342.4,361.4,1343.2,360.6,1343.2,359.6z"/>
		</g>
	</g>
</g>
<g>
	<path class="st0" d="M1238.9,682.8c-2.2-18,9.2-112.6,9.2-112.6c9.2-44.5,1.1-84.1,1.1-84.1c0-0.1,0-0.2,0-0.3
		c-0.1-0.9-0.2-1.8-0.4-2.9c-4.7-23.2-25.2-39-48.3-35.4c-23.1,3.6-39,25.2-35.4,48.3l1,3.1c11.4,21.9,33.8,153,38.9,176.1
		c5.1,23.1-1,28.3-1,38.4c0,12.4,10,22.4,22.4,22.4c12.4,0,22.4-10,22.4-22.4C1248.7,701.8,1241.1,700.8,1238.9,682.8z"/>
	<g>
		<polygon class="st0" points="1211.4,482.1 1208,468.9 1199.9,470.2 1200.6,483.8 1187.4,487.2 1188.6,495.3 1202.3,494.6 
			1205.7,507.9 1213.8,506.6 1213.1,493 1226.3,489.6 1225.1,481.5 		"/>
	</g>
	<path class="st0" d="M1236.4,711.9c-0.9-5.5-6-9.3-11.6-8.5c-5.5,0.9-9.3,6-8.5,11.6c0.9,5.5,6,9.3,11.6,8.5
		C1233.4,722.6,1237.2,717.4,1236.4,711.9z"/>
</g>
<g>
	<path class="st0" d="M195.1,288.6c-8.1-22.4-32.8-34.1-55.3-26c-22.5,8.1-34.1,32.8-26,55.3c2.6,7.3,7.4,13.1,12.5,18.2
		c5.7,5.8,13.1,10.3,15.6,19.2c18.4,64.8,45.4,161,46.9,176.2c2.7,26.7-0.2,43.1,6.2,60.1c8.3,22.1,32.6,44.6,56,42.2
		c23.4-2.4,49.2-22.2,53.2-62.5c4-40.3-30.4-87.5-60.9-148.1c-17.7-35.2-32.4-68.7-42.1-91.5C193.2,312.7,201,305,195.1,288.6z"/>
</g>
<path class="st0" d="M442.5,498c-8.1-16.2-29.4-109.1-29.4-109.1c-6.4-45-27.4-79.5-27.4-79.5c-0.1-0.1-0.1-0.2-0.1-0.3
	c-0.4-0.8-0.8-1.6-1.4-2.5c-12.3-20.2-36.9-28.1-57.4-17c-20.5,11.2-28.1,36.9-17,57.4l1.9,2.6c18.2,16.8,83.6,132.6,96.2,152.6
	c12.6,20,8.6,27,12,36.5c4.2,11.6,17,17.7,28.6,13.5c11.6-4.2,17.7-17,13.5-28.6C458.2,512.5,450.7,514.2,442.5,498z"/>
<path class="st0" d="M450,526.2c-2.7-4.9-8.8-6.7-13.8-4.1c-4.9,2.7-6.7,8.8-4.1,13.8c2.7,4.9,8.8,6.7,13.8,4.1
	C450.8,537.3,452.6,531.2,450,526.2z"/>
<path class="st0" d="M259.1,586.6c-2.7-4.9-8.8-6.7-13.8-4.1c-4.9,2.7-6.7,8.8-4.1,13.8c2.7,4.9,8.8,6.7,13.8,4.1
	C259.9,597.7,261.8,591.5,259.1,586.6z"/>
<path class="st0" d="M162,296.5c-2.7-4.9-8.8-6.7-13.8-4.1c-4.9,2.7-6.7,8.8-4.1,13.8c2.7,4.9,8.8,6.7,13.8,4.1
	C162.8,307.5,164.6,301.4,162,296.5z"/>
<path class="st0" d="M353.7,316.7c-2.7-4.9-8.8-6.7-13.8-4.1c-4.9,2.7-6.7,8.8-4.1,13.8c2.7,4.9,8.8,6.7,13.8,4.1
	C354.6,327.8,356.4,321.7,353.7,316.7z"/>
<g>
	<g>
		<g id="layer1_00000065779824085999349810000016111542394466235060_">
			<path id="path2398_00000148646081987560925970000009844866645577447583_" class="st1" d="M552.3,639.8c-4.1-6.1-7.3-9.6-11.7-13
				c-2-1.5-2.2-2.1-1.5-3.4c2.6-4.5,8-4,11.9-0.1c1.6,1.5,3.2,5,5.6,5c1.8,0,0.6-3.9-3.5-11.9c-5.9-11.4-6.7-19-1.7-16.3
				c0.9,0.5,3.7,3.7,6.2,7.1l6,11.4l-1-14.3c0.3-6.5,0.9-9.7,1.9-11.3c1.7-2.6,2.5-2.8,4.4-0.8c2.2,2.2,2.6,5.5,3.1,13.5
				c0.3,4.1,1,8.2,1.8,12.3c3.1-6.2,0.9-16.2,5-22.1c3.6-3.8,4.8,0.8,5.6,12.4c0.3,4.6-0.3,11.6,0.1,11.9s1.5-2.5,3.5-6.1
				c1.6-2.9,2.8-5.8,3.7-6.8c0.9-1.1,6.2-4.6,4.7,3.9c-0.6,3.6-4.3,11.8-6.4,18.4c-0.8,6.1-3.3,15.9-5.4,19
				c-2.2,3.1-2.3,2.5-4.5,3.3c-2.4,0.9-11-0.4-13.9-0.7C558.4,649.4,556.4,646.4,552.3,639.8z"/>
			<path id="path3177_00000060032713093561270770000011264551319390752168_" class="st2" d="M501.4,583.4c-4.1-6.1-7.3-9.6-11.7-13
				c-2-1.5-2.2-2.1-1.5-3.4c2.6-4.5,8-4,11.9-0.1c1.6,1.5,3.2,5,5.6,5c1.8,0,0.6-3.9-3.5-11.9c-5.9-11.4-6.7-19-1.7-16.3
				c0.9,0.5,3.7,3.7,6.2,7.1l6,11.4l-1-14.3c0.3-6.5,0.9-9.7,1.9-11.3c1.7-2.6,2.5-2.8,4.4-0.8c2.2,2.2,2.6,5.5,3.1,13.5
				c0.3,4.1,1,8.2,1.8,12.3c3.1-6.2,0.9-16.2,5-22.1c3.6-3.8,4.8,0.8,5.6,12.4c0.3,4.6-0.3,11.6,0.1,11.9c0.4,0.4,1.5-2.5,3.5-6.1
				c1.6-2.9,2.8-5.8,3.7-6.8c0.9-1.1,6.2-4.6,4.7,3.9c-0.6,3.6-4.3,11.8-6.4,18.4c-0.8,6.1-3.3,15.9-5.4,19
				c-2.2,3.1-2.3,2.5-4.5,3.3c-2.4,0.9-11-0.4-13.9-0.7C507.5,593,505.5,590,501.4,583.4z"/>
		</g>
	</g>
</g>
<path class="st3" d="M613.1,654.2"/>
</svg>
